<?xml version="1.0" encoding="UTF-8" standalone="no"?>
<!-- Created with Inkscape (http://www.inkscape.org/) -->
<svg
   xmlns:svg="http://www.w3.org/2000/svg"
   xmlns="http://www.w3.org/2000/svg"
   version="1.0"
   width="609.82001"
   height="205.32001"
   id="svg2">
  <defs
     id="defs4" />
  <g
     transform="translate(-45.39346,-383.07618)"
     id="layer1">
    <g
       transform="translate(0.9995889,0.9989002)"
       id="g3172">
      <path
         d="M 204.808,448.79604 L 155.311,448.79604 C 155.311,448.79604 153.33165,421.52192 128.794,421.52192 C 101.2173,421.52192 97.103538,449.76129 96.974644,466.22118 C 96.842834,483.05344 97.277566,512.43565 128.794,512.43565 C 152.58848,512.43565 155.311,486.17168 155.311,486.17168 L 204.808,486.17168 C 204.808,486.17168 200.21351,551.32652 128.794,551.32652 C 60.921089,551.32652 45.182286,501.74319 45.395588,466.22118 C 45.60629,431.13225 62.89285,383.13612 128.794,383.13612 C 202.84969,383.13612 204.808,448.79604 204.808,448.79604 z"
         id="path2396"
         style="fill:#000000;fill-opacity:1;fill-rule:evenodd;stroke:none;stroke-width:1px;stroke-linecap:butt;stroke-linejoin:miter;stroke-opacity:1" />
      <path
         d="M 212.14286,383.07618 L 212.14286,415.93361 L 258.57143,415.93361 L 258.57143,383.07618 L 212.14286,383.07618 z"
         id="path3168"
         style="fill:#000000;fill-opacity:1;fill-rule:evenodd;stroke:none;stroke-width:1px;stroke-linecap:butt;stroke-linejoin:miter;stroke-opacity:1" />
      <path
         d="M 212.85714,430.93318 L 212.85714,547.36218 L 258.21429,547.36218 L 258.21429,456.82618 L 272.14286,456.82618 C 272.14286,456.82618 272.67857,518.14218 272.67857,518.14218 C 272.67857,536.99546 285.87101,547.36218 303.57143,547.36218 C 303.57143,547.36218 340.35714,547.36218 340.35714,547.36218 L 340.35714,514.86218 C 340.35714,514.86218 331.42857,514.86218 331.42857,514.86218 C 323.59659,514.86218 318.66071,509.30431 318.66071,504.50504 C 318.66071,504.50504 318.66071,456.82618 318.66071,456.82618 L 335,456.82618 C 335,456.82618 366.46818,540.00368 366.46818,545.57647 C 366.46818,553.02331 356.42857,554.50504 356.42857,554.50504 L 342.14286,554.50504 L 342.14286,586.29075 L 369.28571,586.29075 C 369.28571,586.29075 400.62577,589.52198 412.85714,560.57647 C 412.85714,560.57647 448.21429,456.82618 448.21429,456.82618 L 464.07651,456.82618 C 464.07651,456.82618 464.07651,518.14218 464.07651,518.14218 C 464.07651,540.97237 476.62125,547.36218 495.71429,547.36218 C 495.71429,547.36218 531.42857,547.36218 531.42857,547.36218 L 531.42857,514.86218 C 531.42857,514.86218 521.07143,514.86218 521.07143,514.86218 C 513.25468,514.86218 510.35714,509.71087 510.35714,504.50504 C 510.35714,504.50504 510.35714,456.82618 510.35714,456.82618 L 531.07143,456.82618 L 562.85714,547.36218 L 614.64286,547.36218 L 653.21429,430.93318 L 608.57143,430.93318 L 588.92857,502.89818 L 568.92857,430.93318 L 510,430.93318 L 510,394.68318 L 464.64286,394.68318 L 464.64286,430.93318 L 413.57143,430.93318 L 393.57143,502.89818 L 372.14286,430.93318 L 318.75,430.93318 L 318.75,394.68318 L 273.21429,394.68318 L 273.21429,430.93318 L 212.85714,430.93318 z"
         id="path3170"
         style="fill:#000000;fill-opacity:1;fill-rule:evenodd;stroke:none;stroke-width:1px;stroke-linecap:butt;stroke-linejoin:miter;stroke-opacity:1" />
    </g>
  </g>
</svg>
