<svg clip-rule="evenodd" fill-rule="evenodd" stroke-linejoin="round" stroke-miterlimit="2" viewBox="0 0 560 400" xmlns="http://www.w3.org/2000/svg"><path d="m25.634 20.028c-3.09.499-6.213.774-9.343.823-10.932.046-18.4-3.341-15.757-10.331 2.484-6.569 12.867-9.89 23.42-9.933 2.916.002 5.828.195 8.718.579l-1.952 5.166c-1.984-.439-4.007-.676-6.039-.705-5.371.023-10.07 1.75-11.28 4.953-1.274 3.367 1.848 5.065 7.078 5.043 2.393-.037 4.776-.3 7.119-.786zm9.379-19.15 21.722-.09c5.134-.022 11.509 1.409 9.513 6.687-1.933 5.11-8.24 7.236-14.837 7.264l-9.045.038-2.135 5.643-12.627.053zm8.743 9.354 2.779-.011c3.015-.013 6.207-.363 7.035-2.552.783-2.079-2.182-2.317-5.245-2.3l-2.733.012zm45.43 5.382-1.811 4.782h-26.6l2.113-5.578c2.343-.629 7.263-2 10.992-3.248 2.488-.883 5.35-1.994 5.986-3.675.777-2.048-2.064-2.76-5.176-2.758-2.62-.009-5.234.278-7.79.855l1.963-5.181c3.592-.392 7.201-.602 10.814-.628 7.273 0 14.644 1.392 12.7 6.517-1.714 4.525-10.379 7.06-17.041 8.856l-.021.056zm33.815-4.167-1.9 5.028h-6.04l-1.465 3.956-12.025.042 1.605-4-14.342-.1 2.589-6.835 17.6-9.538h12.277l-4.337 11.45zm-13.65-.568 2.481-6.549-11.928 6.55z" fill-rule="nonzero" transform="matrix(4.06501 0 0 4.06501 30.0002 157.619)"/></svg>