<?xml version="1.0" encoding="UTF-8"?>
<svg id="Layer_2" data-name="Layer 2" xmlns="http://www.w3.org/2000/svg" viewBox="0 0 328.82 172.64">
  <defs>
    <style>
      .cls-1, .cls-2 {
        fill: #fff;
      }

      .cls-2 {
        isolation: isolate;
        opacity: .5;
      }

      .cls-3 {
        fill: #418fde;
      }

      .cls-4 {
        fill: #263238;
      }
    </style>
  </defs>
  <g id="Layer_1-2" data-name="Layer 1">
    <g>
      <g>
        <g id="freepik--Clouds--inject-70">
          <path class="cls-3" d="m184.86,26.43c-4.4-2.4-6.4-.4-8-2.4s4.4-7.21-7.58-12.41c0,0-.8-11.2-17.21-11.6-16.41-.4-12.02,11.25-16.43,14.02-4.41,2.77-5.61-1.6-10,1.2-4.4,2.8-2.4,8.4-6.01,9.21s-8.4-3.6-12.81-.8-4.4,5.21-6.4,5.21-6.01-1.61-8.4,0-5.2,3.6-5.2,3.6h101.27s1.2-3.6-3.22-6.01Z"/>
          <path class="cls-2" d="m184.86,26.43c-4.4-2.4-6.4-.4-8-2.4s4.4-7.21-7.58-12.41c0,0-.8-11.2-17.21-11.6-16.41-.4-12.02,11.25-16.43,14.02-4.41,2.77-5.61-1.6-10,1.2-4.4,2.8-2.4,8.4-6.01,9.21s-8.4-3.6-12.81-.8-4.4,5.21-6.4,5.21-6.01-1.61-8.4,0-5.2,3.6-5.2,3.6h101.27s1.2-3.6-3.22-6.01Z"/>
          <path class="cls-3" d="m267.99,43.35c-2.83-1.52-4.12-.26-5.14-1.52s2.83-4.63-4.88-7.97c0,0-.52-7.21-11.06-7.46s-7.71,7.21-10.54,9-3.6-1.03-6.43.76-1.52,5.4-3.86,5.92-5.4-2.32-8.22-.52-2.83,3.34-4.12,3.34-3.86-1.02-5.4,0-3.34,2.32-3.34,2.32h65.06s.77-2.33-2.06-3.87Z"/>
        </g>
        <g id="freepik--House--inject-70">
          <rect class="cls-1" x="79.4" y="107.05" width="206.66" height="65.21"/>
          <path class="cls-4" d="m286.06,172.64H79.4c-.21,0-.38-.17-.38-.38v-65.23c0-.21.17-.38.38-.38h206.66c.21,0,.38.17.38.38v65.23c0,.21-.17.38-.38.38Zm-206.31-.76h205.93v-64.47H79.78l-.02,64.47Z"/>
          <polygon class="cls-3" points="183.01 47.55 79.95 107.05 286.06 107.05 183.01 47.55"/>
          <path class="cls-4" d="m286.06,107.43H79.95c-.21,0-.38-.17-.38-.38,0-.13.07-.25.19-.32l103.06-59.5c.12-.07.26-.07.38,0l103.05,59.51c.15.08.23.26.18.42-.05.16-.2.28-.37.27Zm-204.7-.76h203.27l-101.64-58.68-101.64,58.68Z"/>
          <rect class="cls-1" x="173.47" y="101.75" width="51.14" height="70.52"/>
          <path class="cls-4" d="m224.61,172.64h-51.14c-.21,0-.38-.17-.38-.38v-70.54c0-.21.17-.38.38-.38h51.14c.21,0,.38.17.38.38v70.54c0,.21-.17.38-.38.38Zm-50.76-.76h50.36v-69.78h-50.36v69.78Z"/>
          <rect class="cls-4" x="173.47" y="101.75" width="51.14" height="3"/>
          <path class="cls-4" d="m224.61,105.13h-51.14c-.21,0-.38-.17-.38-.38v-3.03c0-.21.17-.38.38-.38h51.14c.21,0,.38.17.38.38v3.03c0,.21-.17.38-.38.38Zm-50.76-.76h50.36v-2.28h-50.36v2.28Z"/>
          <path class="cls-4" d="m211.81,172.26h-25.53v-44.07c0-7.05,5.71-12.77,12.76-12.77h0c7.05,0,12.77,5.72,12.77,12.77v44.07Z"/>
          <path class="cls-4" d="m211.81,172.64h-25.53c-.21,0-.38-.17-.38-.38v-44.07c-.17-7.26,5.57-13.29,12.83-13.46,7.26-.17,13.29,5.57,13.46,12.83,0,.21,0,.42,0,.63v44.07c0,.21-.17.38-.38.38,0,0,0,0,0,0Zm-25.16-.76h24.78v-43.7c.17-6.84-5.24-12.53-12.08-12.7s-12.53,5.24-12.7,12.08c0,.2,0,.41,0,.61v43.7Z"/>
          <rect class="cls-1" x="64.56" y="118.47" width="118.46" height="53.79"/>
          <path class="cls-4" d="m183.02,172.64h-118.46c-.21,0-.38-.17-.38-.38v-53.79c0-.21.17-.38.38-.38h118.46c.21,0,.38.17.38.38v53.79c0,.21-.17.38-.38.38Zm-118.1-.76h117.72v-53.02h-117.72v53.02Z"/>
          <rect class="cls-4" x="64.56" y="118.47" width="118.46" height="2.4"/>
          <path class="cls-4" d="m183.02,121.25h-118.46c-.21,0-.38-.17-.38-.38v-2.4c0-.21.17-.38.38-.38h118.46c.21,0,.38.17.38.38v2.4c0,.21-.17.38-.38.38Zm-118.1-.76h117.72v-1.62h-117.72v1.62Z"/>
          <rect class="cls-3" x="77.59" y="122.91" width="92.39" height="49.35"/>
          <path class="cls-4" d="m169.98,172.64h-92.39c-.21,0-.38-.17-.38-.38v-49.35c0-.21.17-.38.38-.38h92.39c.21,0,.38.17.38.38v49.35c0,.21-.17.38-.38.38Zm-92.01-.76h91.62v-48.6h-91.62v48.6Z"/>
          <polygon class="cls-3" points="123.79 79.11 60.92 115.41 186.66 115.41 123.79 79.11"/>
          <path class="cls-4" d="m186.66,115.83H60.92c-.21,0-.38-.17-.38-.38,0-.13.07-.25.19-.32l62.87-36.3c.12-.07.26-.07.38,0l62.87,36.25c.18.11.24.34.13.52-.07.11-.19.18-.32.19v.05Zm-124.32-.76h122.87l-61.44-35.48-61.44,35.48Z"/>
          <rect class="cls-1" x="60.92" y="115.41" width="125.73" height="3.06"/>
          <path class="cls-4" d="m186.66,118.87H60.92c-.21,0-.38-.17-.38-.38v-3.03c0-.21.17-.38.38-.38h125.74c.21,0,.38.17.38.38v3.03c0,.21-.17.38-.38.38Zm-125.36-.76h124.97v-2.28H61.3v2.28Z"/>
          <polygon class="cls-3" points="199.03 81.28 166.48 100.08 231.59 100.08 199.03 81.28"/>
          <path class="cls-4" d="m231.59,100.46h-65.12c-.17,0-.33-.11-.37-.28-.05-.17.03-.34.18-.42l32.55-18.81c.12-.06.26-.06.38,0l32.56,18.81c.18.11.24.34.13.52-.07.11-.19.18-.32.19Zm-63.71-.76h62.29l-31.14-18-31.15,18Z"/>
          <rect class="cls-1" x="166.48" y="100.08" width="65.12" height="3.02"/>
          <path class="cls-4" d="m231.59,103.48h-65.12c-.21,0-.38-.17-.38-.38v-3.03c0-.21.17-.38.38-.38h65.12c.21,0,.38.17.38.38v3.03c0,.21-.17.38-.38.38Zm-64.74-.76h64.36v-2.28h-64.36v2.28Z"/>
          <rect class="cls-1" x="80.96" y="126.88" width="7.48" height="7.48"/>
          <path class="cls-4" d="m88.43,134.73h-7.48c-.21,0-.38-.17-.38-.38v-7.48c0-.21.17-.38.38-.38h7.48c.21,0,.38.17.38.38v7.48c0,.21-.17.38-.38.38Zm-7.1-.76h6.72v-6.72h-6.72v6.72Z"/>
          <rect class="cls-1" x="92.19" y="126.88" width="7.48" height="7.48"/>
          <path class="cls-4" d="m99.67,134.73h-7.44c-.21,0-.38-.17-.38-.38v-7.48c0-.21.17-.38.38-.38h7.48c.21,0,.38.17.38.38v7.48c0,.21-.17.38-.38.38-.01,0-.03,0-.04,0Zm-7.1-.76h6.72v-6.72h-6.72v6.72Z"/>
          <rect class="cls-1" x="103.4" y="126.88" width="7.48" height="7.48"/>
          <path class="cls-4" d="m110.89,134.73h-7.49c-.21,0-.38-.17-.38-.38v-7.48c0-.21.17-.38.38-.38h7.49c.21,0,.38.17.38.38v7.48c0,.21-.17.38-.38.38Zm-7.11-.76h6.73v-6.72h-6.73v6.72Z"/>
          <rect class="cls-1" x="114.63" y="126.88" width="7.48" height="7.48"/>
          <path class="cls-4" d="m122.12,134.73h-7.49c-.21,0-.38-.17-.38-.38v-7.48c0-.21.17-.38.38-.38h7.49c.21,0,.38.17.38.38v7.48c0,.21-.17.38-.38.38Zm-7.11-.76h6.73v-6.72h-6.76l.03,6.72Z"/>
          <rect class="cls-1" x="125.86" y="126.88" width="7.48" height="7.48"/>
          <path class="cls-4" d="m133.33,134.73h-7.48c-.21,0-.38-.17-.38-.38v-7.48c0-.21.17-.38.38-.38h7.48c.21,0,.38.17.38.38v7.48c0,.21-.17.38-.38.38Zm-7.1-.76h6.72v-6.72h-6.72v6.72Z"/>
          <rect class="cls-1" x="137.07" y="126.88" width="7.48" height="7.48"/>
          <path class="cls-4" d="m144.56,134.73h-7.49c-.21,0-.38-.17-.38-.38v-7.48c0-.21.17-.38.38-.38h7.49c.21,0,.38.17.38.38v7.48c0,.21-.17.38-.38.38Zm-7.11-.76h6.73v-6.72h-6.73v6.72Z"/>
          <rect class="cls-1" x="148.3" y="126.88" width="7.48" height="7.48"/>
          <path class="cls-4" d="m155.79,134.73h-7.49c-.21,0-.38-.17-.38-.38v-7.48c0-.21.17-.38.38-.38h7.49c.21,0,.38.17.38.38v7.48c0,.21-.17.38-.38.38Zm-7.11-.76h6.73v-6.72h-6.73v6.72Z"/>
          <rect class="cls-1" x="159.52" y="126.88" width="7.48" height="7.48"/>
          <path class="cls-4" d="m167,134.73h-7.48c-.21,0-.38-.17-.38-.38v-7.48c0-.21.17-.38.38-.38h7.48c.21,0,.38.17.38.38v7.48c0,.21-.17.38-.38.38Zm-7.1-.76h6.72v-6.72h-6.72v6.72Z"/>
          <rect class="cls-1" x="80.96" y="137.89" width="7.48" height="7.48"/>
          <path class="cls-4" d="m88.43,145.75h-7.48c-.21,0-.38-.17-.38-.38v-7.48c0-.21.17-.38.38-.38h7.48c.21,0,.38.17.38.38v7.48c0,.21-.17.38-.38.38Zm-7.1-.76h6.72v-6.72h-6.72v6.72Z"/>
          <rect class="cls-1" x="92.19" y="137.89" width="7.48" height="7.48"/>
          <path class="cls-4" d="m99.67,145.75h-7.44c-.21,0-.38-.17-.38-.38v-7.48c0-.21.17-.38.38-.38h7.48c.21,0,.38.17.38.38v7.48c0,.21-.17.38-.38.38-.01,0-.03,0-.04,0Zm-7.1-.76h6.72v-6.72h-6.72v6.72Z"/>
          <rect class="cls-1" x="103.4" y="137.89" width="7.48" height="7.48"/>
          <path class="cls-4" d="m110.89,145.75h-7.49c-.21,0-.38-.17-.38-.38v-7.48c0-.21.17-.38.38-.38h7.49c.21,0,.38.17.38.38v7.48c0,.21-.17.38-.38.38Zm-7.11-.76h6.73v-6.72h-6.73v6.72Z"/>
          <rect class="cls-1" x="114.63" y="137.89" width="7.48" height="7.48"/>
          <path class="cls-4" d="m122.12,145.75h-7.49c-.21,0-.38-.17-.38-.38v-7.48c0-.21.17-.38.38-.38h7.49c.21,0,.38.17.38.38v7.48c0,.21-.17.38-.38.38Zm-7.11-.76h6.73v-6.72h-6.76l.03,6.72Z"/>
          <rect class="cls-1" x="125.86" y="137.89" width="7.48" height="7.48"/>
          <path class="cls-4" d="m133.33,145.75h-7.48c-.21,0-.38-.17-.38-.38v-7.48c0-.21.17-.38.38-.38h7.48c.21,0,.38.17.38.38v7.48c0,.21-.17.38-.38.38Zm-7.1-.76h6.72v-6.72h-6.72v6.72Z"/>
          <rect class="cls-1" x="137.07" y="137.89" width="7.48" height="7.48"/>
          <path class="cls-4" d="m144.56,145.75h-7.49c-.21,0-.38-.17-.38-.38v-7.48c0-.21.17-.38.38-.38h7.49c.21,0,.38.17.38.38v7.48c0,.21-.17.38-.38.38Zm-7.11-.76h6.73v-6.72h-6.73v6.72Z"/>
          <rect class="cls-1" x="148.3" y="137.89" width="7.48" height="7.48"/>
          <path class="cls-4" d="m155.79,145.75h-7.49c-.21,0-.38-.17-.38-.38v-7.48c0-.21.17-.38.38-.38h7.49c.21,0,.38.17.38.38v7.48c0,.21-.17.38-.38.38Zm-7.11-.76h6.73v-6.72h-6.73v6.72Z"/>
          <rect class="cls-1" x="159.52" y="137.89" width="7.48" height="7.48"/>
          <path class="cls-4" d="m167,145.75h-7.48c-.21,0-.38-.17-.38-.38v-7.48c0-.21.17-.38.38-.38h7.48c.21,0,.38.17.38.38v7.48c0,.21-.17.38-.38.38Zm-7.1-.76h6.72v-6.72h-6.72v6.72Z"/>
          <rect class="cls-1" x="80.96" y="148.89" width="7.48" height="7.48"/>
          <path class="cls-4" d="m88.43,156.79h-7.48c-.21,0-.38-.17-.38-.38v-7.49c0-.21.17-.38.38-.38h7.48c.21,0,.38.17.38.38v7.49c0,.21-.17.38-.38.38Zm-7.1-.76h6.72v-6.73h-6.72v6.73Z"/>
          <rect class="cls-1" x="92.19" y="148.89" width="7.48" height="7.48"/>
          <path class="cls-4" d="m99.67,156.79h-7.44c-.21,0-.38-.17-.38-.38v-7.49c0-.21.17-.38.38-.38h7.48c.21,0,.38.17.38.38v7.49c0,.21-.17.38-.38.38-.01,0-.03,0-.04,0Zm-7.1-.76h6.72v-6.73h-6.72v6.73Z"/>
          <rect class="cls-1" x="103.4" y="148.89" width="7.48" height="7.48"/>
          <path class="cls-4" d="m110.89,156.79h-7.49c-.21,0-.38-.17-.38-.38v-7.49c0-.21.17-.38.38-.38h7.49c.21,0,.38.17.38.38v7.49c0,.21-.17.38-.38.38Zm-7.11-.76h6.73v-6.73h-6.73v6.73Z"/>
          <rect class="cls-1" x="114.63" y="148.89" width="7.48" height="7.48"/>
          <path class="cls-4" d="m122.12,156.79h-7.49c-.21,0-.38-.17-.38-.38v-7.49c0-.21.17-.38.38-.38h7.49c.21,0,.38.17.38.38v7.49c0,.21-.17.38-.38.38Zm-7.14-.76h6.73v-6.73h-6.73v6.73Z"/>
          <rect class="cls-1" x="125.86" y="148.89" width="7.48" height="7.48"/>
          <path class="cls-4" d="m133.33,156.79h-7.48c-.21,0-.38-.17-.38-.38v-7.49c0-.21.17-.38.38-.38h7.48c.21,0,.38.17.38.38v7.49c0,.21-.17.38-.38.38Zm-7.1-.76h6.72v-6.73h-6.72v6.73Z"/>
          <rect class="cls-1" x="137.07" y="148.89" width="7.48" height="7.48"/>
          <path class="cls-4" d="m144.56,156.79h-7.49c-.21,0-.38-.17-.38-.38v-7.49c0-.21.17-.38.38-.38h7.49c.21,0,.38.17.38.38v7.49c0,.21-.17.38-.38.38Zm-7.11-.76h6.73v-6.73h-6.73v6.73Z"/>
          <rect class="cls-1" x="148.3" y="148.89" width="7.48" height="7.48"/>
          <path class="cls-4" d="m155.79,156.79h-7.49c-.21,0-.38-.17-.38-.38v-7.49c0-.21.17-.38.38-.38h7.49c.21,0,.38.17.38.38v7.49c0,.21-.17.38-.38.38Zm-7.11-.76h6.73v-6.73h-6.73v6.73Z"/>
          <rect class="cls-1" x="159.52" y="148.89" width="7.48" height="7.48"/>
          <path class="cls-4" d="m167,156.79h-7.48c-.21,0-.38-.17-.38-.38v-7.49c0-.21.17-.38.38-.38h7.48c.21,0,.38.17.38.38v7.49c0,.21-.17.38-.38.38Zm-7.1-.76h6.72v-6.73h-6.72v6.73Z"/>
          <rect class="cls-1" x="80.96" y="159.91" width="7.48" height="7.48"/>
          <path class="cls-4" d="m88.43,167.76h-7.48c-.21,0-.38-.17-.38-.38v-7.48c0-.21.17-.38.38-.38h7.48c.21,0,.38.17.38.38v7.5c-.01.2-.18.36-.38.36Zm-7.1-.76h6.72v-6.72h-6.72v6.72Z"/>
          <rect class="cls-1" x="92.19" y="159.91" width="7.48" height="7.48"/>
          <path class="cls-4" d="m99.67,167.76h-7.44c-.21,0-.38-.17-.38-.38v-7.48c0-.21.17-.38.38-.38h7.48c.21,0,.38.17.38.38v7.5c-.01.21-.19.37-.4.36,0,0-.01,0-.02,0Zm-7.1-.76h6.72v-6.72h-6.72v6.72Z"/>
          <rect class="cls-1" x="103.4" y="159.91" width="7.48" height="7.48"/>
          <path class="cls-4" d="m110.89,167.76h-7.49c-.21,0-.38-.17-.38-.38v-7.48c0-.21.17-.38.38-.38h7.49c.21,0,.38.17.38.38v7.5c-.01.2-.18.36-.38.36Zm-7.11-.76h6.73v-6.72h-6.73v6.72Z"/>
          <rect class="cls-1" x="114.63" y="159.91" width="7.48" height="7.48"/>
          <path class="cls-4" d="m122.12,167.76h-7.49c-.21,0-.38-.17-.38-.38v-7.48c0-.21.17-.38.38-.38h7.49c.21,0,.38.17.38.38v7.5c-.01.2-.18.36-.38.36Zm-7.11-.76h6.73v-6.72h-6.76l.03,6.72Z"/>
          <rect class="cls-1" x="125.86" y="159.91" width="7.48" height="7.48"/>
          <path class="cls-4" d="m133.33,167.76h-7.48c-.21,0-.38-.17-.38-.38v-7.48c0-.21.17-.38.38-.38h7.48c.21,0,.38.17.38.38v7.5c-.01.2-.18.36-.38.36Zm-7.1-.76h6.72v-6.72h-6.72v6.72Z"/>
          <rect class="cls-1" x="137.07" y="159.91" width="7.48" height="7.48"/>
          <path class="cls-4" d="m144.56,167.76h-7.49c-.21,0-.38-.17-.38-.38v-7.48c0-.21.17-.38.38-.38h7.49c.21,0,.38.17.38.38v7.5c-.01.2-.18.36-.38.36Zm-7.11-.76h6.73v-6.72h-6.73v6.72Z"/>
          <rect class="cls-1" x="148.3" y="159.91" width="7.48" height="7.48"/>
          <path class="cls-4" d="m155.79,167.76h-7.49c-.21,0-.38-.17-.38-.38v-7.48c0-.21.17-.38.38-.38h7.49c.21,0,.38.17.38.38v7.5c-.01.2-.18.36-.38.36Zm-7.11-.76h6.73v-6.72h-6.73v6.72Z"/>
          <rect class="cls-1" x="159.52" y="159.91" width="7.48" height="7.48"/>
          <path class="cls-4" d="m167,167.76h-7.48c-.21,0-.38-.17-.38-.38v-7.48c0-.21.17-.38.38-.38h7.48c.21,0,.38.17.38.38v7.5c-.01.2-.18.36-.38.36Zm-7.1-.76h6.72v-6.72h-6.72v6.72Z"/>
          <path class="cls-1" d="m191.42,172.64c-.21,0-.38-.17-.38-.38v-7.83c0-.21.17-.38.38-.38s.38.17.38.38v7.83c0,.21-.17.38-.38.38Z"/>
          <polyline class="cls-4" points="205.17 172.26 205.17 130.61 191.42 130.61 191.42 160.98"/>
          <path class="cls-1" d="m205.17,172.64c-.21,0-.38-.17-.38-.38v-41.26h-12.99v29.99c0,.21-.17.38-.38.38s-.38-.17-.38-.38v-30.34c0-.21.17-.38.38-.38h13.75c.21,0,.38.17.38.38v41.61c0,.21-.17.38-.38.38Z"/>
          <polygon class="cls-1" points="291.92 172.26 216.36 172.26 216.36 101.75 254.14 81.28 291.92 101.75 291.92 172.26"/>
          <path class="cls-4" d="m291.92,172.64h-75.56c-.21,0-.38-.17-.38-.38v-70.54c0-.14.08-.27.2-.33l37.78-20.48c.11-.06.25-.06.36,0l37.78,20.48c.12.07.2.2.2.33v70.54c0,.21-.17.38-.38.38h0Zm-75.18-.76h74.8v-69.91l-37.4-20.27-37.4,20.26v69.92Z"/>
          <polygon class="cls-1" points="297.7 104.75 254.14 81.15 210.59 104.75 209.23 102.25 254.14 77.92 299.05 102.25 297.7 104.75"/>
          <path class="cls-4" d="m297.7,105.13c-.06,0-.12-.02-.17-.05l-43.38-23.51-43.38,23.51c-.09.03-.2.03-.29,0-.1-.03-.17-.1-.22-.19l-1.36-2.5c-.1-.18-.03-.41.15-.51h0s44.91-24.33,44.91-24.33c.11-.06.25-.06.36,0l44.91,24.33c.09.05.15.13.18.23.04.09.04.2,0,.29l-1.36,2.5c-.06.15-.21.24-.36.24Zm-43.55-24.35c.06,0,.13.02.18.05l43.23,23.41.99-1.84-44.39-24.05-44.37,24.05.99,1.84,43.23-23.41s.08-.04.13-.05h0Z"/>
          <polygon class="cls-4" points="216.36 101.75 216.36 103.46 254.14 83 291.92 103.46 291.92 101.75 254.14 81.28 216.36 101.75"/>
          <path class="cls-4" d="m291.92,103.84c-.06,0-.13-.02-.18-.05l-37.6-20.37-37.6,20.37c-.11.07-.26.07-.37,0-.12-.06-.19-.19-.19-.33v-1.71c0-.14.08-.27.2-.33l37.78-20.48c.11-.06.25-.06.36,0l37.78,20.48c.12.07.2.2.2.33v1.71c0,.13-.07.26-.18.33-.06.03-.13.05-.2.05Zm-37.78-21.24c.06,0,.13.02.18.05l37.22,20.16v-.85l-37.4-20.26-37.4,20.26v.85l37.22-20.16c.06-.02.12-.03.18-.03v-.02Z"/>
          <polyline class="cls-1" points="237.62 118.87 237.62 111.44 270.22 111.44 270.22 148.49"/>
          <path class="cls-4" d="m270.22,148.87c-.21,0-.38-.17-.38-.38v-36.67h-31.86v7.05c0,.21-.17.38-.38.38s-.38-.17-.38-.38v-7.43c0-.21.17-.38.38-.38h32.61c.21,0,.38.17.38.38v37.05c0,.21-.16.38-.37.39,0,0,0,0,0,0Z"/>
          <polyline class="cls-1" points="270.22 152.32 270.22 159.62 237.62 159.62 237.62 121.7"/>
          <path class="cls-4" d="m270.22,160h-32.61c-.21,0-.38-.17-.38-.38v-37.92c0-.21.17-.38.38-.38s.38.17.38.38v37.54h31.86v-6.92c0-.21.17-.38.38-.38s.38.17.38.38v7.3c0,.21-.17.38-.38.39Z"/>
          <rect class="cls-4" x="255.37" y="125.92" width="12.68" height="8.81"/>
          <path class="cls-4" d="m268.04,135.11h-12.67c-.21,0-.38-.17-.38-.38v-8.81c0-.21.17-.38.38-.38h12.67c.21,0,.38.17.38.38v8.81c0,.21-.17.38-.38.38h0Zm-12.29-.76h11.92v-8.06h-11.92v8.06Z"/>
          <rect class="cls-4" x="255.37" y="137.63" width="12.68" height="8.81"/>
          <path class="cls-4" d="m268.04,146.82h-12.67c-.21,0-.38-.17-.38-.38v-8.81c0-.21.17-.38.38-.38h12.67c.21,0,.38.17.38.38v8.81c0,.21-.17.38-.38.38h0Zm-12.29-.76h11.92v-8.05h-11.92v8.05Z"/>
          <rect class="cls-4" x="255.37" y="113.61" width="12.68" height="9.41"/>
          <path class="cls-4" d="m268.04,123.42h-12.67c-.21,0-.38-.17-.38-.38v-9.43c0-.21.17-.38.38-.38h12.67c.21,0,.38.17.38.38v9.41c0,.21-.15.39-.36.39,0,0-.01,0-.02,0Zm-12.29-.76h11.92v-8.67h-11.92v8.67Z"/>
          <rect class="cls-4" x="239.79" y="113.61" width="12.68" height="9.41"/>
          <path class="cls-4" d="m252.47,123.42h-12.68c-.21,0-.38-.17-.38-.38v-9.43c0-.21.17-.38.38-.38h12.68c.21,0,.38.17.38.38v9.41c0,.21-.17.39-.38.39h0Zm-12.3-.76h11.92v-8.67h-11.92v8.67Z"/>
          <rect class="cls-4" x="239.79" y="137.63" width="12.68" height="8.81"/>
          <path class="cls-4" d="m252.47,146.82h-12.68c-.21,0-.38-.17-.38-.38v-8.81c0-.21.17-.38.38-.38h12.68c.21,0,.38.17.38.38v8.81c0,.21-.17.38-.38.38h0Zm-12.3-.76h11.92v-8.05h-11.92v8.05Z"/>
          <rect class="cls-4" x="239.79" y="125.92" width="12.68" height="8.81"/>
          <path class="cls-4" d="m252.47,135.11h-12.68c-.21,0-.38-.17-.38-.38v-8.81c0-.21.17-.38.38-.38h12.68c.21,0,.38.17.38.38v8.81c0,.21-.17.38-.38.38Zm-12.3-.76h11.92v-8.06h-11.92v8.06Z"/>
          <rect class="cls-4" x="255.37" y="149.33" width="12.68" height="8.11"/>
          <path class="cls-4" d="m268.04,157.82h-12.67c-.21,0-.38-.17-.38-.38v-8.11c0-.21.17-.38.38-.38h12.67c.21,0,.38.17.38.38v8.11c0,.21-.17.38-.38.38Zm-12.29-.76h11.92v-7.35h-11.92v7.35Z"/>
          <rect class="cls-4" x="239.79" y="149.33" width="12.68" height="8.11"/>
          <path class="cls-4" d="m252.47,157.82h-12.68c-.21,0-.38-.17-.38-.38v-8.11c0-.21.17-.38.38-.38h12.68c.21,0,.38.17.38.38v8.11c0,.21-.17.38-.38.38Zm-12.3-.76h11.92v-7.35h-11.92v7.35Z"/>
        </g>
      </g>
      <g id="freepik--Floor--inject-93">
        <path class="cls-4" d="m0,172.5c0-.07,73.61-.13,164.4-.13s164.42.06,164.42.13-73.6.13-164.42.13-164.4-.06-164.4-.13Z"/>
      </g>
      <path class="cls-4" d="m305.41,147.23c.02.09.03.17.03.26,0,.2.03.45.05.75.03.65.09,1.59.19,2.75.18,2.32.52,5.52,1.13,9.02.61,3.5,1.38,6.63,2,8.88.31,1.13.57,2.03.76,2.65l.21.72c.03.09.05.17.06.26-.04-.08-.08-.16-.11-.24-.06-.19-.15-.42-.25-.71-.22-.61-.49-1.51-.84-2.63-.85-2.92-1.55-5.89-2.07-8.88-.52-2.99-.88-6.01-1.06-9.05-.07-1.16-.1-2.11-.11-2.76v-.75c0-.09,0-.18.01-.27Z"/>
      <path class="cls-4" d="m295.3,153.53c.2.2.39.41.56.63.35.41.83,1.03,1.41,1.82,2.98,4.11,5.29,8.66,6.83,13.5.3.92.49,1.68.64,2.21.08.27.14.55.17.83-.11-.26-.2-.53-.27-.8-.15-.52-.39-1.26-.71-2.18-.81-2.38-1.78-4.71-2.91-6.96-1.14-2.24-2.44-4.41-3.87-6.48-.55-.79-1.01-1.43-1.34-1.86-.18-.22-.35-.45-.5-.7Z"/>
      <path class="cls-4" d="m316.31,155.94c-.05.22-.12.43-.21.63-.16.4-.37.99-.6,1.71-1.24,3.79-1.71,7.78-1.39,11.76.05.76.12,1.38.18,1.8.04.22.06.44.06.67-.08-.21-.13-.43-.16-.65-.09-.42-.18-1.04-.26-1.8-.42-4,.06-8.05,1.4-11.84.26-.72.49-1.3.68-1.69.08-.2.18-.4.3-.58Z"/>
      <path class="cls-4" d="m217.87,164.47c.15.01.3.05.43.1.39.11.77.26,1.14.42,2.46,1.12,4.44,3.07,5.6,5.5.18.36.33.74.45,1.12.05.14.09.29.1.43-.04,0-.25-.58-.72-1.48-.61-1.16-1.4-2.22-2.33-3.14-.94-.92-2.01-1.69-3.18-2.28-.9-.44-1.5-.64-1.49-.68Z"/>
      <path class="cls-4" d="m225.4,154.38c.07,0,.71,3.95,1.42,8.81s1.23,8.84,1.16,8.85-.71-3.95-1.42-8.81-1.23-8.84-1.16-8.85Z"/>
      <path class="cls-3" d="m36.48,141.49c1.57.36,2.93,1.34,3.76,2.72.81,1.37,1.3,2.92,1.43,4.51.33,3.06-.69,6.45-1.97,9.24-3.01-1.63-4.44-5.33-5.05-7.24-.99-3.04-.87-9.11,1.84-9.23"/>
      <path class="cls-3" d="m43.71,162.23c-.74-1.66-.53-3.58.54-5.04,1.09-1.43,2.71-2.37,4.49-2.6.81-.12,1.73-.08,2.33.49.54.57.73,1.38.49,2.13-.23.74-.66,1.39-1.23,1.91-1.87,1.86-4.02,3.31-6.65,3.12"/>
      <path class="cls-4" d="m42.54,172.1c-.03-.22-.04-.43-.03-.65,0-.44-.04-1.03-.06-1.72-.13-1.91.04-3.82.52-5.68.51-1.86,1.51-3.54,2.89-4.89.42-.4.89-.74,1.4-1.03.14-.08.28-.15.42-.22.1-.04.15-.06.15-.05-2.33,1.38-4,3.63-4.65,6.25-.47,1.83-.66,3.72-.58,5.61v1.73c0,.22-.02.44-.06.65Z"/>
      <path class="cls-4" d="m36.81,146.12c.04.08.07.17.09.26.06.2.13.45.22.76.19.66.44,1.62.75,2.8.61,2.37,1.42,5.67,2.22,9.32s1.48,6.98,1.9,9.38c.22,1.2.38,2.18.49,2.86.05.32.09.58.12.78.02.09.03.18.03.27-.04-.08-.06-.17-.07-.27-.05-.2-.1-.45-.16-.77-.14-.7-.33-1.67-.57-2.85-.49-2.4-1.15-5.72-1.97-9.38s-1.58-6.94-2.15-9.32l-.68-2.82c-.07-.32-.13-.57-.18-.76-.02-.09-.03-.17-.02-.26Z"/>
      <path class="cls-3" d="m39.77,165.04c-1.44-3.53-4.49-6.15-8.19-7.04-.93-.21-2.09-.23-2.64.55s-.14,1.87.39,2.66c2.33,3.35,6.45,4.96,10.43,4.09"/>
      <path class="cls-4" d="m32.64,160.72c.2.02.39.06.58.11.23.05.46.11.68.19.3.09.59.19.87.31.35.14.69.29,1.03.46.39.19.76.41,1.13.64.83.54,1.6,1.17,2.29,1.88.68.72,1.27,1.52,1.76,2.38.21.38.4.76.57,1.16.15.34.28.7.39,1.06.1.29.18.59.25.89.06.23.1.46.13.69.04.2.06.4.06.6-.05,0-.15-.84-.59-2.13-.12-.35-.26-.7-.41-1.03-.17-.39-.37-.76-.58-1.13-.49-.84-1.08-1.62-1.74-2.33-.68-.7-1.43-1.32-2.24-1.87-.38-.24-.74-.47-1.1-.65s-.69-.34-.99-.49c-1.29-.52-2.12-.69-2.09-.74Z"/>
    </g>
  </g>
</svg>