<?xml version="1.0" encoding="UTF-8"?>
<svg id="Layer_2" data-name="Layer 2" xmlns="http://www.w3.org/2000/svg" viewBox="0 0 220.76 170.4">
  <defs>
    <style>
      .cls-1 {
        fill: #f0f0f0;
      }

      .cls-2, .cls-3, .cls-4, .cls-5, .cls-6, .cls-7, .cls-8, .cls-9, .cls-10 {
        fill: #fff;
      }

      .cls-3 {
        opacity: .8;
      }

      .cls-3, .cls-11, .cls-4, .cls-5, .cls-6, .cls-12, .cls-7, .cls-13, .cls-8, .cls-14, .cls-9, .cls-10 {
        isolation: isolate;
      }

      .cls-15, .cls-5 {
        opacity: .5;
      }

      .cls-16 {
        fill: #3f3d56;
      }

      .cls-11 {
        fill: #fafafa;
        opacity: .9;
      }

      .cls-4, .cls-12, .cls-17 {
        opacity: .3;
      }

      .cls-18 {
        fill: #e0e0e0;
      }

      .cls-19, .cls-8 {
        opacity: .7;
      }

      .cls-6, .cls-14 {
        opacity: .1;
      }

      .cls-20 {
        fill: #e6e6e6;
      }

      .cls-7 {
        opacity: .6;
      }

      .cls-13, .cls-21, .cls-10 {
        opacity: .2;
      }

      .cls-22 {
        fill: #b55b52;
      }

      .cls-23 {
        fill: #ebebeb;
      }

      .cls-24 {
        fill: #407bff;
      }

      .cls-9 {
        opacity: .4;
      }

      .cls-25 {
        fill: #a02724;
      }

      .cls-26 {
        fill: #263238;
      }
    </style>
  </defs>
  <g id="Layer_1-2" data-name="Layer 1">
    <g>
      <g>
        <g id="freepik--background-complete--inject-4">
          <rect class="cls-23" x="148.7" y="166.72" width="4.73" height=".14"/>
          <rect class="cls-20" x="128.91" y="11.92" width="63.1" height="47.18" transform="translate(-2.58 14.83) rotate(-5.25)"/>
          <rect class="cls-11" x="132.57" y="15.57" width="55.79" height="39.87" transform="translate(-2.58 14.83) rotate(-5.25)"/>
          <path class="cls-18" d="m160.87,20.46l.33,3.6-21.58,1.99,1.09,11.86,1.17,12.48,10.52-.97,16.9-1.55.78-.08,11.7-1.09-.18-1.99-3.09.28c.05-1.45,1.08-2.69,2.5-3l.34-.08-.71-7.67-2.08.19-1.42-15.46-16.27,1.48Zm-18.31,29.07l-1.01-10.92,2.42-.22c.56,1.78,2.28,2.93,4.14,2.76l.39-.03-.29-3.12,2.31-.21,1.01,10.92-8.97.82Zm9.75-.89l-1.09-11.7-3.87.35.28,3.1c-1.45-.05-2.69-1.08-3-2.5l-.08-.33-3.09.28-1-11.08,20.8-1.91,1.09,11.86,1.77-.16,2.8-.26,1.28-.12,1,10.92-16.9,1.55Zm11.75-12.88l-.22-2.36c1.3.05,2.44.88,2.88,2.11l-2.67.24Zm15.84-.67l.57,6.22c-1.78.56-2.92,2.28-2.76,4.14l.03.39,3.12-.29.04.46-10.92,1-1-10.92,9.61-.89,1.31-.12Zm-3.5-15.27l1.35,14.69-8.83.82-.78.07-.6.05c-.54-1.8-2.28-2.98-4.15-2.81l-.39.03.29,3.17h-.21l-1.09-11.86-.26-2.82,14.68-1.34Z"/>
          <rect class="cls-20" x="21.9" y="-2.3" width="48.13" height="64.37" transform="translate(7.69 69.14) rotate(-78.75)"/>
          <rect class="cls-11" x="25.63" y="1.43" width="40.68" height="56.91" transform="translate(7.69 69.14) rotate(-78.75)"/>
          <path class="cls-18" d="m50.73,15.27l-.72,3.61-21.69-4.31-2.36,11.92-2.49,12.52,10.58,2.11,16.98,3.37.78.16,11.75,2.33.4-2.02-3.11-.61c.47-1.41,1.83-2.31,3.31-2.21h.35l1.53-7.7-2.09-.42,3.09-15.54-16.33-3.2Zm-26.33,23.13l2.18-10.97,2.43.48c.03,1.91,1.39,3.54,3.27,3.91l.39.08.63-3.13,2.32.46-2.18,10.97-9.03-1.79Zm9.8,1.95l2.33-11.75-3.89-.76-.61,3.11c-1.41-.47-2.31-1.83-2.21-3.31v-.35l-3.1-.61,2.22-11.14,20.9,4.16-2.37,11.92,1.78.35,2.81.54,1.28.25-2.18,10.97-16.96-3.37Zm15.24-9.19l.47-2.37c1.26.43,2.13,1.58,2.21,2.91l-2.68-.53Zm15.69,3.93l-1.24,6.25c-1.91.04-3.53,1.39-3.9,3.27l-.08.39,3.13.63-.09.46-10.97-2.18,2.18-10.97,9.66,1.92,1.32.24Zm.98-15.96l-2.93,14.75-8.88-1.77-.78-.15-.6-.12c0-1.93-1.37-3.58-3.27-3.95l-.39-.08-.63,3.18-.22-.04,2.37-11.92.54-2.83,14.79,2.93Z"/>
          <path class="cls-1" d="m107.67,28.62h-5.32c-3.09,0-5.6-2.51-5.6-5.6h0v-5.28c0-3.09,2.51-5.6,5.6-5.6h5.32c3.09,0,5.6,2.51,5.6,5.6v5.32c-.02,3.08-2.52,5.56-5.6,5.56Zm-5.32-14.89c-2.19,0-3.97,1.78-3.97,3.98,0,0,0,.02,0,.03v5.32c0,2.19,1.78,3.96,3.97,3.97h5.32c2.19,0,3.96-1.78,3.97-3.97v-5.32c0-2.19-1.78-3.96-3.97-3.97l-5.32-.04Z"/>
          <polygon class="cls-18" points="102.8 23.83 95.04 16.07 97.35 13.76 102.8 19.21 112.67 9.34 114.98 11.64 102.8 23.83"/>
        </g>
        <g id="freepik--Character--inject-4">
          <path class="cls-22" d="m167.22,54.01c.78-2.07,1.72-4.07,2.81-5.99.52-.95,1.09-1.86,1.63-2.77s1.14-1.79,1.8-2.72c.87-1.19,2.55-1.45,3.74-.58,1.15.84,1.44,2.42.67,3.62v.03c-.54.79-1.09,1.63-1.63,2.5s-1.04,1.71-1.55,2.57c-1,1.67-1.88,3.4-2.66,5.18-.22.54-.41,1.06-.54,1.55h-5.16c.19-1.16.49-2.3.89-3.4Z"/>
          <path class="cls-24" d="m177.77,36.83c-5.2,1.15-9.6,12.37-9.6,12.37l5.99,3.4c1.77-1.9,3.24-4.06,4.35-6.41,1.31-2.79,3.9-10.39-.73-9.36Z"/>
          <path class="cls-13" d="m179.68,43.12c-.32,1.04-.72,2.07-1.18,3.06-1.11,2.35-2.58,4.51-4.35,6.41l-1.3-.76c2.06-3.74,2.04-8.53,2.04-8.53l4.48-.78.3.6Z"/>
          <path class="cls-26" d="m173.22,76.99l.32.06c.49.09.83.56.74,1.05h0s-1.9,10.87-1.9,10.87c-.09.49-.56.83-1.05.74h0s-.05,0-.05,0c-.82-.14-1.37-.93-1.23-1.75l1.74-9.94c.12-.67.76-1.13,1.43-1.02Z"/>
          <path class="cls-6" d="m173.22,76.99l.32.06c.49.09.83.56.74,1.05h0s-1.9,10.87-1.9,10.87c-.09.49-.56.83-1.05.74h0s-.05,0-.05,0c-.82-.14-1.37-.93-1.23-1.75l1.74-9.94c.12-.67.76-1.13,1.43-1.02Z"/>
          <polygon class="cls-22" points="173.68 165.75 169.62 165.7 169.28 156.26 174.64 156.35 173.68 165.75"/>
          <polygon class="cls-13" points="169.28 156.27 169.47 161.78 174.08 161.84 174.64 156.35 169.28 156.27"/>
          <path class="cls-26" d="m169.53,164.31l4.43.07c.16,0,.3.12.31.28l.38,3.62c.03.37-.25.68-.61.71-.02,0-.04,0-.06,0-1.59-.05-3.89-.18-5.9-.21-2.35-.04-2.12.06-4.87,0-1.67-.03-1.93-1.72-1.21-1.86,3.27-.64,3.58-.67,6.53-2.32.3-.18.65-.28,1-.29Z"/>
          <path class="cls-24" d="m168.79,164.68s.06-.04.07-.08c0-.04-.01-.08-.05-.1-.19-.1-1.8-.95-2.3-.68-.1.05-.16.14-.16.25h0c-.02.18.04.35.17.47.44.4,1.63.26,2.26.14h.01Zm-2.18-.71c.3-.1,1.19.25,1.82.54-.9.14-1.57.09-1.81-.14-.09-.08-.13-.2-.11-.32,0-.04.02-.08.06-.1h.04Z"/>
          <path class="cls-24" d="m168.79,164.68h0s.05-.05.04-.08c0-.05-.09-1.14-.6-1.58-.15-.13-.35-.19-.54-.17h0c-.27,0-.34.16-.36.27-.08.46.88,1.35,1.36,1.58.03.01.07.01.1-.01Zm-1.15-1.63s.07,0,.1,0h0c.14-.02.29.03.39.13.29.36.47.8.51,1.26-.5-.31-1.14-1.01-1.09-1.28,0-.04,0-.08.09-.11h0Z"/>
          <path class="cls-26" d="m178.3,121.01c6.04-20.72,11.66-35.12,10.34-45.4l-14.32.17s-7.59,33.6-7.02,45.76c.59,12.64,1.33,36.66,1.33,36.66l6.53.09s4.84-23.16,3.14-37.28Z"/>
          <path class="cls-13" d="m180.72,112.66c3.2-10.57,6.07-17.91,7.72-24.07-9.49,3.35-9.3,14.94-7.72,24.07Z"/>
          <polygon class="cls-26" points="167.7 156.74 168.1 159.55 175.28 159.67 175.71 157.03 167.7 156.74"/>
          <polygon class="cls-12" points="167.7 156.74 168.1 159.55 175.28 159.67 175.71 157.03 167.7 156.74"/>
          <polygon class="cls-22" points="201.37 165.75 197.3 165.7 195.19 156.26 200.41 156.34 201.37 165.75"/>
          <polygon class="cls-13" points="195.19 156.27 196.41 161.71 200.97 161.77 200.42 156.35 195.19 156.27"/>
          <path class="cls-26" d="m196.99,164.86l4.42-.09c.16,0,.3.11.33.27l.51,3.6c.04.36-.22.69-.58.73-.02,0-.04,0-.06,0-1.59,0-2.1-.1-4.11-.07-2.35.05-1.26.1-4.01.16-1.67.03-1.99-1.63-1.28-1.82,2.24-.54,2.79-1.47,3.78-2.47.28-.24.64-.36,1-.34Z"/>
          <path class="cls-24" d="m197.81,165.14s.07-.02.09-.05c.02-.04.02-.08,0-.11-.14-.15-1.42-1.46-1.98-1.36-.1.02-.19.09-.23.19h0c-.08.16-.08.34,0,.5.29.52,1.44.75,2.11.83h.02Zm-1.83-1.34c.33,0,1.06.6,1.56,1.09-.9-.15-1.51-.4-1.68-.69-.05-.1-.05-.23,0-.33,0-.04.04-.07.09-.08h.03Z"/>
          <path class="cls-24" d="m197.81,165.14h.03s.06-.03.07-.07c0-.05.27-1.09-.09-1.69-.1-.17-.26-.29-.45-.33h0c-.26-.06-.38.04-.42.14-.22.41.41,1.56.81,1.92.02.02.04.02.07.02Zm-.59-1.91s.07,0,.1,0h0c.14.03.26.12.33.24.17.43.21.9.1,1.36-.38-.45-.77-1.31-.64-1.56.03-.04.07-.05.11-.04h0Z"/>
          <path class="cls-26" d="m196.74,121.67c2.23-20.73,4.07-36,.85-46.26l-14.92.4s.36,34.25,3.17,46.41c2.91,12.64,8.94,36.01,8.94,36.01l6.53.09s-.27-22.53-4.57-36.65Z"/>
          <polygon class="cls-26" points="193.82 156.74 194.25 159.55 201.59 159.67 202 157.03 193.82 156.74"/>
          <polygon class="cls-12" points="193.82 156.74 194.25 159.55 201.59 159.67 202 157.03 193.82 156.74"/>
          <path class="cls-24" d="m179.86,36.2c4.56-.49,9.17-.32,13.69.49,2.51.4,4.47,2.38,4.84,4.9.84,5.81,2.18,17.24-.22,35.08-2.15.68-8.48.63-13.51.27-.54-.04-1.88-1.32-1.88-1.32,0,0-1.21,1.04-1.9.96-3.33-.4-5.99-.97-6.6-1.63-1.36-3.27-2.21-11.46,1.4-18.81.04-4.4-.83-9.36-.91-14.09-.05-2.97,2.16-5.49,5.1-5.84Z"/>
          <path class="cls-22" d="m187.56,28.69c.4,3.02,1.02,6.53,3.15,8.24-.91,2.4-3.17,4.01-5.73,4.11-3.23.17-2.72-2.41-2.18-3.78,1.37-1.54.71-3.27.36-4.48l4.39-4.09Z"/>
          <path class="cls-13" d="m186.67,30.17c0-.19-.05-.38-.08-.57l-3.44,3.19c.31.83.46,1.7.46,2.58,1.7-1.14,3.27-3.36,3.06-5.2Z"/>
          <path class="cls-22" d="m188.7,24.3c-.51,3.99-.6,6.36-2.76,8.27-3.27,2.87-8.09.66-8.78-3.41-.63-3.67.31-9.58,4.35-10.88,2.92-.93,6.04.67,6.98,3.59.25.78.32,1.61.22,2.43Z"/>
          <path class="cls-26" d="m182.3,26.56c0,.33-.21.58-.43.54s-.37-.29-.35-.61.21-.58.43-.54.36.3.35.61Z"/>
          <path class="cls-26" d="m178.21,26.39c0,.33-.21.58-.42.54s-.37-.29-.35-.62.21-.58.42-.54.37.29.35.62Z"/>
          <path class="cls-26" d="m183.42,26.66h-3.02c-.24,0-.45.18-.47.42-.3-.13-.63-.13-.93,0-.03-.24-.23-.42-.47-.42h-2.29c-.27,0-.48.22-.48.48h0v1.4c0,.27.22.48.48.48h2.31c.27,0,.48-.22.48-.48h0v-1.14c.28-.17.63-.17.91,0v1.15c0,.27.22.48.48.48h3.02c.27,0,.48-.22.48-.48h0v-1.4c0-.27-.2-.49-.47-.5-.01,0-.02,0-.03,0Zm-4.7,1.88c0,.11-.09.2-.2.2h-2.29c-.11,0-.2-.09-.2-.2v-1.4c0-.11.09-.2.2-.2h2.31c.11,0,.2.09.2.2l-.02,1.4Zm4.9,0c0,.11-.08.2-.19.2,0,0,0,0-.01,0h-3.02c-.11,0-.2-.08-.2-.19,0,0,0,0,0-.01v-1.4c0-.11.08-.2.19-.2,0,0,0,0,.01,0h3.02c.11,0,.2.09.2.2v1.4Z"/>
          <path class="cls-25" d="m179.46,27.27c-.43.8-.97,1.53-1.61,2.18.35.32.81.47,1.28.42l.33-2.6Z"/>
          <path class="cls-26" d="m183.09,24.77s.06-.03.08-.05c.08-.07.08-.19,0-.27,0,0,0,0,0,0-.41-.45-1.02-.68-1.63-.61-.1.02-.17.12-.15.22,0,0,0,0,0,0,.02.1.12.17.23.15h0c.49-.05.97.14,1.3.5.05.04.11.06.17.05Z"/>
          <path class="cls-26" d="m176.97,24.72c.06.01.13,0,.17-.05.33-.36.81-.54,1.3-.48.1.02.2-.05.22-.16s-.05-.2-.16-.22h0c-.61-.08-1.22.14-1.63.59-.07.08-.07.2,0,.27.02.03.06.05.09.05Z"/>
          <path class="cls-24" d="m189.58,35.43c.1.93-1.01,4.21-4.9,5.61,1.5,0,2.15,1.91,2.15,1.91,0,0,5.14-2.72,4.53-6.05-.17-.85-.91-1.47-1.78-1.47Z"/>
          <path class="cls-24" d="m183.49,35.68c.09.91-.96,2.81,1.2,5.36-1.5,0-2.39,1.5-2.39,1.5-1.17-1.83-1.33-4.14-.42-6.12.45-.41,1.01-.67,1.62-.75Z"/>
          <g class="cls-15">
            <path class="cls-2" d="m189.58,35.43c.1.93-1.01,4.21-4.9,5.61,1.5,0,2.15,1.91,2.15,1.91,0,0,5.14-2.72,4.53-6.05-.17-.85-.91-1.47-1.78-1.47Z"/>
            <path class="cls-2" d="m183.49,35.68c.09.91-.96,2.81,1.2,5.36-1.5,0-2.39,1.5-2.39,1.5-1.17-1.83-1.33-4.14-.42-6.12.45-.41,1.01-.67,1.62-.75Z"/>
          </g>
          <polygon class="cls-26" points="173.32 78.14 198.92 78.83 198.92 75.61 173.71 74.94 173.32 78.14"/>
          <polygon class="cls-4" points="173.32 78.14 198.92 78.83 198.92 75.61 173.71 74.94 173.32 78.14"/>
          <path class="cls-26" d="m191.18,77.63l.83,13.17,6.79-.43c.89-.06,1.56-.83,1.51-1.71l-.65-10.23c-.05-.73-.68-1.29-1.41-1.24l-7.07.45Z"/>
          <path class="cls-4" d="m191.18,77.63l.83,13.17,6.79-.43c.89-.06,1.56-.83,1.51-1.71l-.65-10.23c-.05-.73-.68-1.29-1.41-1.24l-7.07.45Z"/>
          <path class="cls-13" d="m192.83,90.73l-.8.05h0l-.83-13.17h0l1.09-.07c.69-.04,1.28.48,1.32,1.17h0s.66,10.43.66,10.43c.04.83-.6,1.55-1.43,1.59h0Z"/>
          <path class="cls-10" d="m193.6,79.22v-.41c-.05-.73-.68-1.29-1.41-1.24,0,0,0,0,0,0l6.08-.39c.73-.05,1.36.51,1.41,1.24l.03.41.06,1.01c.04.64-.45,1.19-1.08,1.23,0,0,0,0,0,0l-3.77.23c-.64.04-1.19-.44-1.23-1.07,0,0,0-.01,0-.02l-.08-1Z"/>
          <path class="cls-26" d="m196.23,80c.02.25.23.44.48.43.25-.02.44-.23.43-.48-.02-.25-.23-.44-.48-.43,0,0,0,0,0,0-.25.01-.44.23-.42.48,0,0,0,0,0,0Z"/>
          <path class="cls-26" d="m182.15,76.72c.03.25.26.44.51.41.22-.02.39-.19.41-.41-.03-.25-.26-.44-.51-.41-.22.02-.39.19-.41.41Z"/>
          <rect class="cls-14" x="195.9" y="81.2" width="2.3" height="9.28" transform="translate(-5.01 12.58) rotate(-3.61)"/>
          <path class="cls-26" d="m186.69,27.96s-1.22.11-.89-1.6-1.36-3.42-.88-5.06-4.73-.36-5.1-1.63-.46,2.31-2.07,1.82c-1.4-.42.42-2.11.42-2.11,0,0-2.15,1.22-2.15,0s2.54-1.17,3.43-1.38c2.56-.61,8.14-3.62,9.71,4.04,0,0,2.39,1.67-1.09,6.53l-1.39-.61Z"/>
          <path class="cls-13" d="m198.58,43c.63,4.78.95,9.59.93,14.42-3.44-2.98-6.46-11.09-6.46-11.09v-3.21l2.57-2.07,2.96,1.95Z"/>
          <polygon class="cls-24" points="174.93 52.35 168.07 48.42 167.53 50.26 173.71 53.77 174.93 52.35"/>
          <polygon class="cls-5" points="174.93 52.35 168.07 48.42 167.53 50.26 173.71 53.77 174.93 52.35"/>
          <path class="cls-24" d="m178.87,17.63s5.37-5.03,10.26-.88c4.07,3.47.6,8.86.6,8.86l-1.96-2.29-3.81-3.27-3.49-2.02-1.6-.42Z"/>
          <path class="cls-24" d="m176.01,17.28c2.36-1.81,9.49,1.57,13.79,8.39v.05c-1.21-1.33-7.9-8.38-11.92-7.5-.01,0-3.32.17-1.87-.94Z"/>
          <g class="cls-17">
            <path d="m176.01,17.28c2.36-1.81,9.49,1.57,13.79,8.39v.05c-1.21-1.33-7.9-8.38-11.92-7.5-.01,0-3.32.17-1.87-.94Z"/>
          </g>
          <path class="cls-24" d="m180.63,16.17c1.81-1.03,5.34-2.34,8.62.45,3.52,2.99,1.57,7.38.89,8.66l-.33-.15c0-.05,1.92-5.13-.77-7.4-2.18-1.86-4.84-.86-6.22-.1l-.09.05-.09-.05c-.45-.29-1.16-.71-2-1.13l-.3-.16.29-.16Z"/>
          <path class="cls-4" d="m180.63,16.17c1.81-1.03,5.34-2.34,8.62.45,3.52,2.99,1.57,7.38.89,8.66l-.33-.15c0-.05,1.92-5.13-.77-7.4-2.18-1.86-4.84-.86-6.22-.1l-.09.05-.09-.05c-.45-.29-1.16-.71-2-1.13l-.3-.16.29-.16Z"/>
          <path class="cls-26" d="m180.11,31.51c-.19,0-.38-.02-.57-.05-.06-.01-.09-.06-.08-.12,0-.05.06-.09.11-.08,0,0,0,0,0,0,.85.17,1.73-.07,2.37-.66.04-.04.1-.04.14,0,.04.04.04.1,0,.14-.53.51-1.24.78-1.98.77Z"/>
          <path class="cls-5" d="m193.97,49.62h-7.29l.24.84c.14.49.58.83,1.09.84h4.33c.42,0,.81-.23,1.02-.6l.61-1.08Z"/>
          <path class="cls-24" d="m189.88,50.42c0,.25.2.45.45.45.25,0,.45-.2.46-.45,0-.25-.21-.45-.46-.46-.25,0-.45.21-.45.46Z"/>
          <path class="cls-5" d="m181.52,49.57h-5.87l.19.84c.06.46.44.81.9.84h3.48c.37-.02.69-.26.82-.6l.47-1.08Z"/>
          <path class="cls-24" d="m177.65,50.42c0,.25.2.45.45.45.25,0,.45-.2.46-.45,0-.25-.21-.45-.46-.46-.25,0-.45.21-.45.46Z"/>
          <polygon class="cls-26" points="183.71 27.01 187.08 26.79 187.06 26.42 183.4 26.68 183.71 27.01"/>
          <path class="cls-22" d="m189.79,28.47c-.54.85-1.4,1.45-2.39,1.67-1.31.28-1.89-.92-1.46-2.11.39-1.09,1.53-2.51,2.82-2.25.93.21,1.52,1.13,1.32,2.06-.05.23-.15.45-.28.64Z"/>
          <path class="cls-26" d="m182.52,55.04l-.27.85c-.02.07.01.14.08.17.03.01.07,0,.1,0l.8-.4,4.76-5.59c.1-.12.09-.3-.03-.4l-.28-.24c-.12-.1-.3-.09-.4.03,0,0,0,0,0,0l-4.76,5.59Z"/>
          <path class="cls-5" d="m182.52,55.04l-.27.85c-.02.07.01.14.08.17.03.01.07,0,.1,0l.8-.4,4.76-5.59c.1-.12.09-.3-.03-.4l-.28-.24c-.12-.1-.3-.09-.4.03,0,0,0,0,0,0l-4.76,5.59Z"/>
          <path class="cls-5" d="m187.57,49.36l-4.96,5.83-.33.82s-.04-.08-.03-.12l.27-.85,4.76-5.59c.07-.08.18-.12.29-.09Z"/>
          <path class="cls-22" d="m190.02,55.26l-3.27-1.63-.75,4.31s3.14,1.09,3.99-.47l.02-2.2Z"/>
          <path class="cls-22" d="m183.14,54.84v1.56c0,.62.44,1.15,1.05,1.25l1.8.3.75-4.31-2.3-.06c-.7-.02-1.29.54-1.31,1.24,0,0,0,.01,0,.02Z"/>
          <path class="cls-22" d="m188.48,57.58c2.33,1.49,4.82,2.71,7.42,3.64.7.24,1.41.45,2.13.6.85.19,1.72.27,2.59.23.64-.04,1.26-.2,1.84-.48.4-.2.77-.47,1.09-.79.08-.09.17-.2.24-.27l.16-.21c.1-.14.19-.29.27-.44.52-.98.78-2.08.75-3.19-.01-.84-.11-1.68-.3-2.5-.16-.74-.36-1.46-.6-2.18-.46-1.35-.99-2.68-1.61-3.97-.6-1.25-1.23-2.48-1.92-3.66s-1.37-2.33-2.18-3.52c-.88-1.27-2.62-1.59-3.89-.71-1.22.84-1.57,2.5-.79,3.77l.03.05c.64,1.02,1.32,2.13,1.94,3.22s1.24,2.18,1.79,3.31c.56,1.08,1.06,2.18,1.5,3.31.4.96.67,1.97.81,3,.01.14.01.28,0,.42-.33.02-.67.02-1,0-.54-.05-1.13-.13-1.73-.24-2.38-.45-4.9-1.18-7.37-1.9h-.05c-.74-.22-1.51.2-1.73.94-.18.6.07,1.25.6,1.58h.01Z"/>
          <path class="cls-24" d="m195.63,37.33c5.69,1.79,8.9,13.71,8.9,13.71l-6.17,2.43c-2.07-1.62-3.76-3.66-4.97-5.99-.63-1.21-2.29-11.58,2.25-10.15Z"/>
          <polygon class="cls-24" points="204.52 49.62 196.97 52.6 198.08 54.18 205 51.44 204.52 49.62"/>
          <polygon class="cls-5" points="204.52 49.62 196.97 52.6 198.08 54.18 205 51.44 204.52 49.62"/>
          <polygon class="cls-26" points="169.1 51.09 180.23 51.09 188.05 64.72 187.75 65.02 176.62 65.02 168.79 51.39 169.1 51.09"/>
          <polygon class="cls-10" points="169.1 51.09 180.23 51.09 188.05 64.72 187.75 65.02 176.62 65.02 168.79 51.39 169.1 51.09"/>
          <polygon class="cls-26" points="176.62 65.02 187.75 65.02 179.93 51.39 168.79 51.39 176.62 65.02"/>
          <polygon class="cls-9" points="176.62 65.02 187.75 65.02 179.93 51.39 168.79 51.39 176.62 65.02"/>
          <polygon class="cls-24" points="171.95 50.89 176.19 50.89 177.09 52.46 176.96 52.58 172.72 52.58 171.83 51.01 171.95 50.89"/>
          <polygon class="cls-5" points="171.95 50.89 176.19 50.89 177.09 52.46 176.96 52.58 172.72 52.58 171.83 51.01 171.95 50.89"/>
          <polygon class="cls-24" points="172.72 52.58 171.83 51.01 176.06 51.01 176.96 52.58 172.72 52.58"/>
          <polygon class="cls-10" points="172.72 52.58 171.83 51.01 176.06 51.01 176.96 52.58 172.72 52.58"/>
          <path class="cls-22" d="m166.31,59.8c-.1-.75-.1-1.5,0-2.25.03-.2.07-.38.1-.54h5.22c-.15.43-.27.87-.36,1.32-.06.28-.09.57-.09.85,0,.03,0,.07,0,.1.04.02.08.04.13.06.39.17.79.3,1.2.41.88.24,1.89.45,2.84.69h.1c.73.18,1.17.92.99,1.65-.11.46-.46.83-.91.97-1.09.35-2.23.56-3.37.62-.63.04-1.25.02-1.88-.05-.37-.06-.73-.14-1.09-.25-.49-.15-.94-.38-1.35-.69-.14-.11-.27-.22-.39-.35-.13-.14-.25-.28-.36-.44-.15-.23-.29-.48-.4-.73-.19-.44-.32-.9-.39-1.37Z"/>
          <path class="cls-22" d="m175.33,63.07l3.87-.54-2.23-3.58s-3.27.48-3.05,2.5l1.41,1.63Z"/>
          <path class="cls-22" d="m180.73,60.36l-.7-1.63c-.24-.55-.88-.81-1.43-.57-.02,0-.04.02-.06.03l-1.58.76,2.23,3.58,1.17-.84c.42-.3.57-.85.36-1.32Z"/>
        </g>
        <g id="freepik--House--inject-4">
          <polygon class="cls-24" points="30.1 78.07 34.43 78.07 34.43 79.78 33.72 79.78 33.72 87.45 30.81 87.45 30.81 79.78 30.1 79.78 30.1 78.07"/>
          <g class="cls-21">
            <polygon points="30.1 78.07 34.43 78.07 34.43 79.78 33.72 79.78 33.72 87.45 30.81 87.45 30.81 79.78 30.1 79.78 30.1 78.07"/>
          </g>
          <polygon class="cls-24" points="55.68 72.61 71.04 96.24 71.04 117.45 34.67 117.45 34.67 96.24 55.68 72.61"/>
          <polygon class="cls-5" points="55.68 72.61 71.04 96.24 71.04 117.45 34.67 117.45 34.67 96.24 55.68 72.61"/>
          <polygon class="cls-24" points="38.81 73.57 41.15 69.98 55.68 69.98 72.8 96.24 58.26 96.24 38.81 96.24 38.81 73.57"/>
          <polygon class="cls-13" points="38.81 73.57 41.15 69.98 55.68 69.98 72.8 96.24 58.26 96.24 38.81 96.24 38.81 73.57"/>
          <polygon class="cls-24" points="58.26 96.24 41.15 69.98 24.03 96.24 58.26 96.24"/>
          <polygon class="cls-24" points="41.15 72.61 56.5 96.24 56.5 117.45 25.78 117.45 25.78 96.24 41.15 72.61"/>
          <polygon class="cls-3" points="41.15 72.61 56.5 96.24 56.5 117.45 25.78 117.45 25.78 96.24 41.15 72.61"/>
          <rect class="cls-24" x="44.93" y="86.21" width="3.11" height="8.23"/>
          <rect class="cls-24" x="34.05" y="86.21" width="3.11" height="8.23"/>
          <rect class="cls-24" x="37.16" y="85.82" width="7.77" height="9.01"/>
          <rect class="cls-9" x="37.16" y="85.82" width="7.77" height="9.01"/>
          <rect class="cls-26" x="38.13" y="86.79" width="5.83" height="7.07"/>
          <rect class="cls-24" x="36.35" y="102.29" width="9.39" height="15.16"/>
          <rect class="cls-4" x="36.35" y="102.29" width="9.39" height="15.16"/>
          <polygon class="cls-24" points="36.93 99.11 45.16 99.11 47.16 102.83 34.93 102.83 36.93 99.11"/>
          <rect class="cls-26" x="41.22" y="104.87" width="2.88" height="12.59"/>
          <rect class="cls-26" x="37.99" y="104.87" width="2.88" height="12.59"/>
          <rect class="cls-24" x="21.42" y="132.77" width="43.76" height="37.09"/>
          <rect class="cls-7" x="21.42" y="132.77" width="43.76" height="37.09"/>
          <rect class="cls-24" x="53.79" y="132.77" width="21.61" height="37.09"/>
          <rect class="cls-3" x="53.79" y="132.77" width="21.61" height="37.09"/>
          <rect class="cls-24" x="41.11" y="136.5" width="8.61" height="9.99"/>
          <rect class="cls-4" x="41.11" y="136.5" width="8.61" height="9.99"/>
          <rect class="cls-26" x="42.19" y="137.57" width="6.45" height="7.83"/>
          <rect class="cls-24" x="56.75" y="136.92" width="3.44" height="9.13"/>
          <rect class="cls-24" x="68.8" y="136.92" width="3.44" height="9.13"/>
          <rect class="cls-24" x="60.19" y="136.5" width="8.61" height="9.99"/>
          <rect class="cls-4" x="60.19" y="136.5" width="8.61" height="9.99"/>
          <rect class="cls-26" x="61.27" y="137.57" width="6.45" height="7.83"/>
          <rect class="cls-24" x="31.54" y="153.35" width="10.22" height="16.49"/>
          <rect class="cls-4" x="31.54" y="153.35" width="10.22" height="16.49"/>
          <polygon class="cls-24" points="41.13 149.9 32.17 149.9 29.99 153.94 43.3 153.94 41.13 149.9"/>
          <rect class="cls-26" x="33.32" y="156.16" width="3.13" height="13.69"/>
          <rect class="cls-26" x="36.84" y="156.16" width="3.13" height="13.69"/>
          <polygon class="cls-24" points="70.05 133.08 61.5 117.21 25.1 117.21 16.55 133.08 70.05 133.08"/>
          <polygon class="cls-12" points="70.05 133.08 61.5 117.21 25.1 117.21 16.55 133.08 70.05 133.08"/>
          <polygon class="cls-24" points="80.27 133.08 71.72 117.21 57.47 117.21 48.92 133.08 80.27 133.08"/>
          <polygon class="cls-14" points="80.27 133.08 71.72 117.21 57.47 117.21 48.92 133.08 80.27 133.08"/>
          <polygon class="cls-24" points="33.26 130.37 33.26 117.21 50.08 117.21 43 130.37 33.26 130.37"/>
          <polygon class="cls-3" points="33.26 130.37 33.26 117.21 50.08 117.21 43 130.37 33.26 130.37"/>
          <rect class="cls-24" x="32.76" y="120.15" width="10.22" height="10.22"/>
          <rect class="cls-7" x="32.76" y="120.15" width="10.22" height="10.22"/>
          <path class="cls-24" d="m40.03,129.13h-4.31c-.39,0-.71-.32-.71-.71v-.52h5.72v.52c0,.39-.32.71-.71.71Z"/>
          <path class="cls-26" d="m36.06,123.72c-.05-1,.71-1.85,1.71-1.91,1-.05,1.85.71,1.91,1.71,0,.07,0,.13,0,.2v3.9h-3.62v-3.9Z"/>
          <polygon class="cls-24" points="39.68 120.73 41.58 117.21 50.08 117.21 48.19 120.73 39.68 120.73"/>
          <polygon class="cls-13" points="39.68 120.73 41.58 117.21 50.08 117.21 48.19 120.73 39.68 120.73"/>
          <polygon class="cls-24" points="42.63 117.21 44.53 120.73 31.22 120.73 33.11 117.21 42.63 117.21"/>
          <rect class="cls-24" x="25.69" y="136.5" width="8.61" height="9.99"/>
          <rect class="cls-4" x="25.69" y="136.5" width="8.61" height="9.99"/>
          <rect class="cls-26" x="26.76" y="137.57" width="6.45" height="7.83"/>
        </g>
        <g id="freepik--Clipboard--inject-4">
          <path class="cls-26" d="m77.12,169.48h80.07c1.34.02,2.45-1.05,2.47-2.4,0-.1,0-.2-.01-.3l-10.05-114.82c-.15-1.51-1.41-2.67-2.92-2.69h-80.08c-1.34-.02-2.45,1.05-2.47,2.4,0,.1,0,.2.01.3l10.05,114.82c.15,1.51,1.42,2.67,2.94,2.69Z"/>
          <path class="cls-26" d="m78.26,169.48h80.08c1.34.02,2.45-1.04,2.47-2.38,0-.1,0-.21-.01-.31l-10.05-114.82c-.15-1.51-1.41-2.67-2.93-2.69h-80.08c-1.34-.02-2.45,1.04-2.47,2.38,0,.1,0,.21.01.31l10.05,114.82c.15,1.51,1.41,2.67,2.92,2.69Z"/>
          <path class="cls-5" d="m78.26,169.48h80.08c1.34.02,2.45-1.04,2.47-2.38,0-.1,0-.21-.01-.31l-10.05-114.82c-.15-1.51-1.41-2.67-2.93-2.69h-80.08c-1.34-.02-2.45,1.04-2.47,2.38,0,.1,0,.21.01.31l10.05,114.82c.15,1.51,1.41,2.67,2.92,2.69Z"/>
          <polygon class="cls-13" points="143.3 55.91 152.91 165.32 80.73 165.32 71.12 55.91 143.3 55.91"/>
          <path class="cls-2" d="m143.74,55.91l2.77,35.28c.73,9.15,1.81,18.25,3.27,27.32l7.07,44.33h-72.2l-7.07-44.44c-1.45-9.05-2.53-18.15-3.24-27.29l-2.76-35.2h72.16Z"/>
          <path class="cls-24" d="m95.84,69.94h27.06c.78.02,1.42-.6,1.44-1.37,0-.09,0-.17-.02-.26l-.21-1.76c-.13-.92-.9-1.61-1.82-1.63h-27.07c-.78-.02-1.42.59-1.44,1.37,0,.09,0,.18.02.26l.21,1.76c.13.92.9,1.61,1.82,1.63Z"/>
          <path class="cls-24" d="m84.41,106.31h58.1c.78.02,1.42-.59,1.44-1.37,0-.09,0-.18-.02-.26l-.21-1.76c-.13-.92-.9-1.61-1.82-1.63h-58.1c-.78-.02-1.42.6-1.44,1.37,0,.09,0,.17.02.26l.22,1.76c.13.92.9,1.61,1.82,1.63Z"/>
          <path class="cls-5" d="m84.41,106.31h58.1c.78.02,1.42-.59,1.44-1.37,0-.09,0-.18-.02-.26l-.21-1.76c-.13-.92-.9-1.61-1.82-1.63h-58.1c-.78-.02-1.42.6-1.44,1.37,0,.09,0,.17.02.26l.22,1.76c.13.92.9,1.61,1.82,1.63Z"/>
          <path class="cls-26" d="m120.22,77.42h-27.06c-.54,0-.63-.87-.08-.87h27.06c.54,0,.64.87.08.87h0Z"/>
          <path class="cls-26" d="m81.62,79.83h38.92c.54,0,.64.87.08.87h-38.93c-.54,0-.63-.87-.07-.87h0Z"/>
          <path class="cls-26" d="m126.19,80.84h13.21c.78.02,1.42-.6,1.44-1.37,0-.09,0-.17-.02-.26l-.22-1.76c-.12-.92-.9-1.61-1.82-1.63h-13.22c-.78-.02-1.42.59-1.44,1.36,0,.09,0,.18.02.27l.22,1.76c.13.92.91,1.62,1.84,1.63Z"/>
          <path class="cls-8" d="m126.19,80.84h13.21c.78.02,1.42-.6,1.44-1.37,0-.09,0-.17-.02-.26l-.22-1.76c-.12-.92-.9-1.61-1.82-1.63h-13.22c-.78-.02-1.42.59-1.44,1.36,0,.09,0,.18.02.27l.22,1.76c.13.92.91,1.62,1.84,1.63Z"/>
          <path class="cls-26" d="m133.63,90.91h6.99c.78.02,1.42-.6,1.44-1.37,0-.09,0-.17-.02-.26l-.11-.92c-.12-.92-.89-1.61-1.82-1.63h-7c-.78-.02-1.42.59-1.44,1.36,0,.09,0,.18.02.27l.11.92c.13.92.9,1.61,1.82,1.63Z"/>
          <path class="cls-26" d="m112.25,90.91h16.23c.78.02,1.42-.6,1.44-1.37,0-.09,0-.17-.02-.26l-.11-.92c-.12-.92-.89-1.61-1.82-1.63h-16.24c-.77-.02-1.42.58-1.44,1.36,0,.09,0,.19.02.28l.11.92c.13.92.9,1.61,1.82,1.63Z"/>
          <path class="cls-26" d="m94.9,90.91h12.2c.78.02,1.43-.61,1.44-1.39,0-.08,0-.16-.02-.25l-.11-.92c-.12-.92-.9-1.61-1.82-1.63h-12.19c-.78-.02-1.42.59-1.44,1.36,0,.09,0,.18.02.27l.11.92c.13.92.9,1.6,1.82,1.63Z"/>
          <path class="cls-26" d="m83.33,90.91h6.42c.78.02,1.42-.6,1.44-1.37,0-.09,0-.17-.02-.26l-.11-.92c-.12-.92-.9-1.61-1.82-1.63h-6.42c-.78-.02-1.42.59-1.44,1.36,0,.09,0,.18.02.27l.11.92c.12.92.89,1.61,1.82,1.63Z"/>
          <path class="cls-26" d="m129.18,97h12.19c.78.02,1.42-.59,1.44-1.36,0-.09,0-.18-.02-.27l-.11-.92c-.12-.92-.89-1.61-1.82-1.63h-12.2c-.78-.02-1.42.6-1.44,1.37,0,.09,0,.17.02.26l.11.92c.12.92.9,1.61,1.82,1.63Z"/>
          <path class="cls-26" d="m109.53,97h14.5c.78.02,1.42-.59,1.44-1.36,0-.09,0-.18-.02-.27l-.11-.92c-.13-.92-.9-1.6-1.82-1.63h-14.5c-.78-.02-1.42.6-1.44,1.37,0,.09,0,.17.02.26l.11.92c.12.92.9,1.61,1.82,1.63Z"/>
          <path class="cls-26" d="m97.38,97h6.99c.78.02,1.42-.59,1.44-1.36,0-.09,0-.18-.02-.27l-.11-.92c-.13-.92-.9-1.61-1.82-1.63h-6.99c-.78-.02-1.42.6-1.44,1.37,0,.09,0,.17.02.26l.11.92c.12.92.9,1.61,1.82,1.63Z"/>
          <path class="cls-26" d="m84.08,97h8.16c.78.02,1.42-.59,1.44-1.36,0-.09,0-.18-.02-.27l-.11-.92c-.13-.92-.9-1.61-1.82-1.63h-8.16c-.78-.02-1.42.6-1.44,1.37,0,.09,0,.17.02.26l.11.92c.12.92.9,1.61,1.82,1.63Z"/>
          <g class="cls-19">
            <path class="cls-2" d="m133.63,90.91h6.99c.78.02,1.42-.6,1.44-1.37,0-.09,0-.17-.02-.26l-.11-.92c-.12-.92-.89-1.61-1.82-1.63h-7c-.78-.02-1.42.59-1.44,1.36,0,.09,0,.18.02.27l.11.92c.13.92.9,1.61,1.82,1.63Z"/>
            <path class="cls-2" d="m112.25,90.91h16.23c.78.02,1.42-.6,1.44-1.37,0-.09,0-.17-.02-.26l-.11-.92c-.12-.92-.89-1.61-1.82-1.63h-16.24c-.77-.02-1.42.58-1.44,1.36,0,.09,0,.19.02.28l.11.92c.13.92.9,1.61,1.82,1.63Z"/>
            <path class="cls-2" d="m94.9,90.91h12.2c.78.02,1.43-.61,1.44-1.39,0-.08,0-.16-.02-.25l-.11-.92c-.12-.92-.9-1.61-1.82-1.63h-12.19c-.78-.02-1.42.59-1.44,1.36,0,.09,0,.18.02.27l.11.92c.13.92.9,1.6,1.82,1.63Z"/>
            <path class="cls-2" d="m83.33,90.91h6.42c.78.02,1.42-.6,1.44-1.37,0-.09,0-.17-.02-.26l-.11-.92c-.12-.92-.9-1.61-1.82-1.63h-6.42c-.78-.02-1.42.59-1.44,1.36,0,.09,0,.18.02.27l.11.92c.12.92.89,1.61,1.82,1.63Z"/>
            <path class="cls-2" d="m129.18,97h12.19c.78.02,1.42-.59,1.44-1.36,0-.09,0-.18-.02-.27l-.11-.92c-.12-.92-.89-1.61-1.82-1.63h-12.2c-.78-.02-1.42.6-1.44,1.37,0,.09,0,.17.02.26l.11.92c.12.92.9,1.61,1.82,1.63Z"/>
            <path class="cls-2" d="m109.53,97h14.5c.78.02,1.42-.59,1.44-1.36,0-.09,0-.18-.02-.27l-.11-.92c-.13-.92-.9-1.6-1.82-1.63h-14.5c-.78-.02-1.42.6-1.44,1.37,0,.09,0,.17.02.26l.11.92c.12.92.9,1.61,1.82,1.63Z"/>
            <path class="cls-2" d="m97.38,97h6.99c.78.02,1.42-.59,1.44-1.36,0-.09,0-.18-.02-.27l-.11-.92c-.13-.92-.9-1.61-1.82-1.63h-6.99c-.78-.02-1.42.6-1.44,1.37,0,.09,0,.17.02.26l.11.92c.12.92.9,1.61,1.82,1.63Z"/>
            <path class="cls-2" d="m84.08,97h8.16c.78.02,1.42-.59,1.44-1.36,0-.09,0-.18-.02-.27l-.11-.92c-.13-.92-.9-1.61-1.82-1.63h-8.16c-.78-.02-1.42.6-1.44,1.37,0,.09,0,.17.02.26l.11.92c.12.92.9,1.61,1.82,1.63Z"/>
          </g>
          <path class="cls-26" d="m107.24,158.41h-18.8c-.54,0-.63-.87-.08-.87h18.8c.54,0,.64.87.08.87Z"/>
          <path class="cls-26" d="m150.5,158.41h-18.8c-.54,0-.63-.87-.08-.87h18.8c.54,0,.64.87.08.87Z"/>
          <path class="cls-26" d="m147.24,131.78h-24c-.54,0-.64-.87-.08-.87h24c.54,0,.63.87.08.87Z"/>
          <path class="cls-26" d="m123.57,134.23h24c.54,0,.63.87.08.87h-24c-.54,0-.64-.87-.08-.87Z"/>
          <path class="cls-26" d="m123.98,137.56h24c.54,0,.63.87.08.87h-24c-.54,0-.64-.87-.08-.87Z"/>
          <path class="cls-26" d="m124.39,140.89h24.03c.54,0,.63.87.07.87h-24.02c-.54,0-.64-.87-.08-.87h0Z"/>
          <path class="cls-26" d="m124.79,144.22h24c.54,0,.63.87.07.87h-23.99c-.54,0-.64-.87-.08-.87h0Z"/>
          <path class="cls-26" d="m111.35,131.78h-18.8c-.54,0-.63-.87-.08-.87h18.8c.54,0,.64.87.08.87h0Z"/>
          <path class="cls-26" d="m92.9,134.23h18.8c.54,0,.64.87.08.87h-18.82c-.54,0-.64-.87-.08-.87h.02Z"/>
          <path class="cls-26" d="m93.29,137.56h18.8c.54,0,.63.87.08.87h-18.8c-.54,0-.64-.87-.08-.87Z"/>
          <path class="cls-26" d="m93.7,140.89h18.8c.54,0,.63.87.08.87h-18.8c-.54,0-.64-.87-.08-.87Z"/>
          <path class="cls-26" d="m94.11,144.22h18.8c.54,0,.63.87.08.87h-18.8c-.54,0-.64-.87-.08-.87Z"/>
          <path class="cls-24" d="m83.58,114.61h0l.5,4.04h0l.5,4.04h0l.5,4.04h61.78l-.54-4.47h0l-.5-4.04h0l-.5-4.04h0l-.5-4.04h-61.79l.55,4.47Zm11.03-2.24l.22,1.81h-10.88l-.44-3.61h10.88l.22,1.81Zm.93,4.04l-.22-1.81h18.94l.22,1.81.22,1.8h-18.94l-.22-1.8Zm19.14-1.81h18.94l.22,1.81.22,1.8h-18.92l-.22-1.8-.24-1.81Zm19.88,7.65h-18.92l-.22-1.81-.22-1.8h18.94l.22,1.8.2,1.81Zm-19.38,0h-18.92l-.22-1.81-.22-1.8h18.95l.22,1.8.2,1.81Zm-1.21-9.89l.22,1.81h-18.92l-.22-1.81-.22-1.81h18.94l.2,1.81Zm19.38,0l.22,1.81h-18.92l-.22-1.81-.22-1.81h18.94l.2,1.81Zm11.52,1.81h-10.88l-.22-1.81-.22-1.81h10.88l.44,3.61Zm.5,4.04h-10.88l-.22-1.8-.22-1.81h10.88l.44,3.61Zm.5,4.04h-10.88l-.22-1.81-.22-1.8h10.88l.44,3.61Zm-10.59,2.24l-.22-1.8h10.88l.44,3.61h-10.88l-.22-1.81Zm-19.38,0l-.22-1.8h18.95l.22,1.8.22,1.81h-18.92l-.24-1.81Zm-19.38,0l-.22-1.8h18.95l.22,1.8.22,1.81h-18.92l-.24-1.81Zm-11.52-1.8h10.88l.22,1.8.22,1.81h-10.88l-.44-3.61Zm-.5-4.04h10.88l.22,1.8.22,1.81h-10.88l-.44-3.61Zm-.5-4.04h10.88l.22,1.81.22,1.8h-10.88l-.44-3.61Z"/>
          <path class="cls-5" d="m83.58,114.61h0l.5,4.04h0l.5,4.04h0l.5,4.04h61.78l-.54-4.47h0l-.5-4.04h0l-.5-4.04h0l-.5-4.04h-61.79l.55,4.47Zm11.03-2.24l.22,1.81h-10.88l-.44-3.61h10.88l.22,1.81Zm.93,4.04l-.22-1.81h18.94l.22,1.81.22,1.8h-18.94l-.22-1.8Zm19.14-1.81h18.94l.22,1.81.22,1.8h-18.92l-.22-1.8-.24-1.81Zm19.88,7.65h-18.92l-.22-1.81-.22-1.8h18.94l.22,1.8.2,1.81Zm-19.38,0h-18.92l-.22-1.81-.22-1.8h18.95l.22,1.8.2,1.81Zm-1.21-9.89l.22,1.81h-18.92l-.22-1.81-.22-1.81h18.94l.2,1.81Zm19.38,0l.22,1.81h-18.92l-.22-1.81-.22-1.81h18.94l.2,1.81Zm11.52,1.81h-10.88l-.22-1.81-.22-1.81h10.88l.44,3.61Zm.5,4.04h-10.88l-.22-1.8-.22-1.81h10.88l.44,3.61Zm.5,4.04h-10.88l-.22-1.81-.22-1.8h10.88l.44,3.61Zm-10.59,2.24l-.22-1.8h10.88l.44,3.61h-10.88l-.22-1.81Zm-19.38,0l-.22-1.8h18.95l.22,1.8.22,1.81h-18.92l-.24-1.81Zm-19.38,0l-.22-1.8h18.95l.22,1.8.22,1.81h-18.92l-.24-1.81Zm-11.52-1.8h10.88l.22,1.8.22,1.81h-10.88l-.44-3.61Zm-.5-4.04h10.88l.22,1.8.22,1.81h-10.88l-.44-3.61Zm-.5-4.04h10.88l.22,1.81.22,1.8h-10.88l-.44-3.61Z"/>
          <path class="cls-24" d="m87.26,134.5h1.79c.3,0,.55-.24.55-.54,0-.02,0-.04,0-.06l-.22-1.79c-.05-.34-.33-.59-.67-.6h-1.8c-.3,0-.55.24-.55.54,0,.02,0,.04,0,.06l.22,1.79c.05.34.34.59.68.6Z"/>
          <path class="cls-24" d="m87.65,137.77h1.8c.3,0,.55-.24.55-.54,0-.02,0-.04,0-.06l-.22-1.79c-.05-.34-.34-.59-.68-.6h-1.79c-.3,0-.55.24-.55.54,0,.02,0,.04,0,.06l.22,1.79c.05.34.33.59.67.6Z"/>
          <path class="cls-24" d="m88.06,141.03h1.79c.3,0,.55-.24.55-.54,0-.02,0-.04,0-.06l-.22-1.8c-.05-.34-.33-.59-.67-.6h-1.79c-.3,0-.55.24-.55.54,0,.02,0,.04,0,.06l.22,1.8c.05.34.33.59.67.6Z"/>
          <path class="cls-24" d="m88.46,144.3h1.79c.3,0,.55-.24.55-.54,0-.02,0-.04,0-.06l-.22-1.79c-.05-.34-.34-.6-.68-.6h-1.79c-.3,0-.55.24-.55.54,0,.02,0,.04,0,.06l.22,1.79c.05.34.34.59.68.6Z"/>
          <path class="cls-5" d="m87.65,137.77h1.8c.3,0,.55-.24.55-.54,0-.02,0-.04,0-.06l-.22-1.79c-.05-.34-.34-.59-.68-.6h-1.79c-.3,0-.55.24-.55.54,0,.02,0,.04,0,.06l.22,1.79c.05.34.33.59.67.6Z"/>
          <path class="cls-5" d="m88.46,144.3h1.79c.3,0,.55-.24.55-.54,0-.02,0-.04,0-.06l-.22-1.79c-.05-.34-.34-.6-.68-.6h-1.79c-.3,0-.55.24-.55.54,0,.02,0,.04,0,.06l.22,1.79c.05.34.34.59.68.6Z"/>
          <path class="cls-24" d="m96.32,47.3h7.07l-1.09-2.66c-.35-.84.39-1.63,1.5-1.63h6.89c1.09,0,2,.81,1.79,1.63l-.65,2.66h7.07c2.18.04,3.99,1.7,4.21,3.86l.54,6.21c.12,1.11-.68,2.1-1.78,2.22-.08,0-.17.01-.25.01h-25.87c-1.26-.02-2.3-.98-2.42-2.23l-.54-6.21c-.21-1.91,1.17-3.63,3.08-3.84.15-.02.3-.02.45-.02Z"/>
          <polygon class="cls-13" points="111.84 47.3 103.39 47.3 102.73 45.74 112.22 45.74 111.84 47.3"/>
          <path class="cls-26" d="m117.53,55.88c.07.67.63,1.19,1.31,1.2.6,0,1.09-.48,1.09-1.08,0-.04,0-.08,0-.12-.07-.67-.63-1.19-1.31-1.2-.6,0-1.09.48-1.09,1.08,0,.04,0,.08,0,.12Z"/>
          <path class="cls-26" d="m96.79,55.88c.07.67.63,1.19,1.31,1.2.6,0,1.09-.48,1.09-1.08,0-.04,0-.08,0-.12-.07-.67-.63-1.19-1.31-1.2-.6,0-1.09.48-1.1,1.08,0,.04,0,.08,0,.13Z"/>
          <path class="cls-24" d="m142.56,154.01l-32,6.26c-1.39.32-2.77-.54-3.09-1.93-.02-.1-.04-.2-.05-.3l-.54-4.87c-.13-1.59.96-3.03,2.53-3.34l32-6.26c1.39-.32,2.78.55,3.1,1.94.02.1.04.2.05.3l.54,4.87c.13,1.6-.96,3.03-2.53,3.34Zm-33.07-3.37c-1.11.22-1.88,1.24-1.79,2.37l.54,4.87c.11,1,1.01,1.73,2.02,1.62.07,0,.14-.02.22-.04l31.99-6.25c1.11-.22,1.88-1.24,1.79-2.37l-.54-4.87c-.11-1-1.01-1.72-2.01-1.61-.07,0-.14.02-.22.04l-32,6.25Z"/>
          <path class="cls-24" d="m114.02,155.25l-1.63.32-.23.79-.82.16,1.17-3.72.79-.16,1.94,3.11-.85.17-.37-.67Zm-.32-.54l-.7-1.2-.41,1.42,1.1-.22Z"/>
          <path class="cls-24" d="m117.56,151.97c.46.09.8.48.83.95.03.24-.01.48-.11.69-.1.22-.27.41-.47.54-.24.15-.51.26-.79.3l-.7.14.1.95-.81.15-.38-3.42,1.51-.29c.27-.06.55-.07.82-.02Zm-.13,1.58c.12-.13.17-.3.14-.47,0-.17-.1-.32-.24-.4-.17-.08-.36-.1-.54-.05l-.66.13.14,1.19.65-.13c.2-.03.37-.12.51-.27h0Z"/>
          <path class="cls-24" d="m121.14,151.27c.22.05.42.16.57.33.15.17.24.39.26.62.03.24,0,.48-.11.69-.1.22-.27.41-.47.54-.24.15-.5.26-.78.3l-.7.14.1.95-.81.16-.38-3.42,1.51-.29c.27-.06.55-.07.82-.02Zm-.13,1.58c.12-.13.17-.3.14-.47,0-.17-.1-.32-.24-.4-.17-.08-.36-.09-.54-.05l-.66.13.14,1.19.65-.13c.19-.03.37-.12.51-.26Z"/>
          <path class="cls-24" d="m125.01,153.85l-.78-.82h-.04l-.7.14.1.95-.81.16-.38-3.42,1.51-.29c.27-.06.55-.06.82,0,.22.05.42.16.57.33.15.17.24.39.26.62.03.24,0,.48-.11.7-.11.22-.27.41-.48.54l.9.95-.86.15Zm-.5-2.58c-.17-.08-.36-.09-.54-.04l-.66.13.14,1.19.65-.13c.21-.02.4-.12.54-.27.12-.13.17-.3.14-.47-.01-.18-.12-.33-.28-.41h0Z"/>
          <path class="cls-24" d="m127.13,153.27c-.61-.19-1.04-.73-1.09-1.36-.04-.32.01-.65.15-.95.14-.3.34-.57.61-.77.28-.21.61-.36.95-.42.33-.07.67-.06,1,.04.29.09.55.26.75.5.2.24.32.54.35.86.04.32-.01.65-.15.95-.14.3-.35.57-.61.77-.28.21-.6.35-.95.42-.34.07-.68.06-1.01-.04Zm1.47-.89c.15-.12.27-.28.34-.46.08-.19.1-.39.08-.59-.02-.2-.09-.38-.21-.54-.11-.14-.26-.25-.43-.31-.19-.06-.39-.07-.58-.03-.2.04-.39.12-.54.25-.15.12-.27.28-.35.46-.07.19-.1.39-.08.59.02.2.09.38.2.54.11.14.26.25.44.31.18.06.36.07.54.03.21-.03.41-.12.58-.25h0Z"/>
          <path class="cls-24" d="m133.48,148.71l-1.12,3.71-.79.16-1.88-3.13.87-.17,1.33,2.24.8-2.65.8-.16Z"/>
          <path class="cls-24" d="m136.77,150.91l.07.64-2.69.54-.38-3.42,2.63-.51.07.64-1.83.35.08.75,1.63-.32.07.61-1.63.32.09.79,1.89-.39Z"/>
          <path class="cls-24" d="m137.1,148l1.58-.31c.34-.08.69-.08,1.02,0,.29.08.55.24.75.47.19.24.31.54.34.85.04.32,0,.65-.14.95-.13.29-.34.55-.61.73-.29.21-.62.35-.97.41l-1.58.31-.38-3.4Zm1.84,2.47c.31-.05.6-.21.8-.45.19-.24.27-.54.23-.84-.02-.29-.16-.55-.4-.71-.26-.15-.57-.2-.87-.12l-.73.14.23,2.12.73-.15Z"/>
        </g>
      </g>
      <path class="cls-16" d="m220.37,170.4H.38c-.21,0-.38-.17-.38-.38s.17-.38.38-.38h219.99c.21,0,.38.17.38.38s-.17.38-.38.38Z"/>
    </g>
  </g>
</svg>