<?xml version="1.0" encoding="UTF-8"?>
<svg id="Layer_1" data-name="Layer 1" xmlns="http://www.w3.org/2000/svg" viewBox="0 0 1000 1000">
  <defs>
    <style>
      .cls-1, .cls-2 {
        stroke-width: 0px;
      }

      .cls-2 {
        fill: #be3d37;
      }
    </style>
  </defs>
  <path class="cls-1" d="m706,643.02h9v-18h18v-7h-18v-12h20v-8h-29v45Z"/>
  <path class="cls-1" d="m764.23,630.02h-.3l-12.82-32h-10.1v45h8v-30h.22l12.23,30h6l12.23-30h.3v30h8v-45h-10.95l-12.82,32Z"/>
  <path class="cls-1" d="m563,446.02h-36v107h36v-107Z"/>
  <path class="cls-1" d="m252.51,433.21c-7.62-18.96-26.44-30.97-46.83-31.2h-64.68v151h35v-46h22.09l27.01,46h42.64l-33.39-55.08c18.9-13.28,28.76-38.51,18.22-64.63m-76.58,3.71h29.29c5.29,0,10.43,2.53,13.19,7.07,8.42,13.93-1.71,28.37-15.05,27.93h-27.42v-35Z"/>
  <path class="cls-1" d="m633.12,442.26c-31.44,0-56.99,25.52-56.99,56.94s25.54,56.94,56.99,56.94,56.99-25.52,56.99-56.94-25.54-56.94-56.99-56.94Zm0,82.47c-14.12,0-25.54-11.42-25.54-25.52s11.43-25.52,25.54-25.52,25.54,11.42,25.54,25.52-11.43,25.52-25.54,25.52Z"/>
  <path class="cls-1" d="m379,447.02h-34.4c-6.94-2.99-14.55-4.7-22.54-4.7-31.42,0-56.94,25.53-56.94,56.96s25.52,56.96,56.94,56.96c7.76,0,15.22-1.57,21.94-4.4v1.19h37.09l-2.09-17.32v-88.68Zm-53,77.71c-14.12,0-25.54-11.42-25.54-25.52s11.43-25.52,25.54-25.52c7.25,0,13.74,3.06,18.45,7.84,4.41,4.55,7.1,10.82,7.1,17.61s-2.69,13.06-7.1,17.61c-4.63,4.85-11.2,7.84-18.37,7.84"/>
  <path class="cls-1" d="m506,499.3v-97.28h-35v44.61c-6.79-2.84-14.18-4.41-21.94-4.41-31.42,0-56.94,25.55-56.94,57.01s25.52,57.01,56.94,57.01c7.76,0,15.22-1.57,21.94-4.41v1.2h36.79l-1.79-14.87v-38.93.07Zm-56.91,25.43c-14.12,0-25.54-11.42-25.54-25.52s11.43-25.52,25.54-25.52c9.34,0,17.55,5.07,21.96,12.54,2.24,3.81,3.58,8.21,3.58,12.91s-1.34,9.18-3.58,12.91c-4.41,7.54-12.62,12.54-21.96,12.54"/>
  <path class="cls-1" d="m544.84,395.02c-10.23,0-18.52,8.28-18.52,18.51s8.29,18.51,18.52,18.51,18.52-8.28,18.52-18.51-8.29-18.51-18.52-18.51Z"/>
  <path class="cls-1" d="m732.82,537.26c0-10.22-8.29-18.51-18.52-18.51s-18.52,8.28-18.52,18.51,8.29,18.51,18.52,18.51,18.52-8.28,18.52-18.51Z"/>
  <path class="cls-1" d="m760.2,402.02l-45.58,36.5,18.04,23.36,20.34-14.41-.74,105.54h36.74v-151h-28.8Z"/>
  <path class="cls-2" d="m846.96,356.98c-12.62,0-22.82,10.2-22.82,22.82s10.2,22.82,22.82,22.82,22.82-10.2,22.82-22.82-10.2-22.82-22.82-22.82Z"/>
</svg>