<svg xmlns="http://www.w3.org/2000/svg" height="800" width="1200" viewBox="-141.760125 -24.9325 1228.58775 149.595"><path d="M933.7875 0h5.805L910.43 49.8425 939.5888 99.73h-5.8063L904.74 49.8425zM11.2825 0H5.4762l29.16 49.8425L5.4812 99.73h5.8038l29.0425-49.8875z" fill="#fff"/><path d="M5.4825 99.73l29.1537-49.8875L5.4775 0H0l29.3525 49.8713L.01 99.73z" fill="#176fc1"/><path d="M933.7875 0H11.2837l29.045 49.8425L11.2862 99.73h922.4963L904.74 49.8425z" fill="#176fc1"/><path d="M939.5888 99.73L910.43 49.8425 939.5925 0h5.475l-29.355 49.8713L945.0588 99.73z" fill="#176fc1"/><path d="M499.9725 36.0711l-1.91.34c-4.75-13.0875-10.9488-19.565-20.825-19.565h-4.425v58.1c0 3.6888 2.69 6.1275 11.8013 6.2975V82.69H447.04v-1.4463c9.0237-.34 11.7137-2.6087 11.7137-6.2975v-58.1h-4.5987c-9.6387 0-16.53 6.475-20.7375 19.565l-1.91-.34 1.9962-21.4375h64.5588l1.91 21.4375m-69.94-19.9912c-9.8375 1.5662-11.6288 5.2362-11.6288 14.6325v53.5937h-5.38l-45.1212-58.1875h-.1725v40.2388c0 9.38 2.07 13.5162 12.7538 14.8862v1.4475h-28.0275v-1.4474c9.8512-1.4713 12.1487-5.5038 12.1487-14.8863V26.885c0-5.755-3.0825-10.51-12.1487-10.805v-1.445h24.5587l38.0038 49.3387h.2625V30.7125c0-9.3563-2.7788-13.2575-13.2775-14.6325v-1.445h28.0287v1.445M137.1763 36.0711l-1.91.34c-4.7513-13.0875-10.9488-19.565-20.8238-19.565h-4.4275v58.1c0 3.6888 2.6925 6.1275 11.8013 6.2975V82.69H84.245v-1.4463c9.0225-.34 11.7138-2.6087 11.7138-6.2975v-58.1H91.36c-9.64 0-16.5312 6.475-20.74 19.565l-1.9075-.34 1.9963-21.4375h64.5575l1.91 21.4375m419.8912 12.7614c0-23.65-7.3213-33.6887-20.0425-33.6887-12.7075 0-20.0463 10.2087-20.0463 33.605 0 23.9025 7.3225 33.6 20.0463 33.6 12.6062 0 20.0425-9.8675 20.0425-33.5163m14.925-.255c0 21.5175-16.2188 35.9838-34.9675 35.9838-19.3738 0-34.97-14.03-34.97-35.645 0-21.4175 16.1175-35.8975 34.97-35.8975 19.265 0 34.9675 13.9475 34.9675 35.5587m-234.98.255c0-23.65-7.3238-33.6037-20.045-33.6037-12.7075 0-20.0437 10.1237-20.0437 33.52 0 23.9025 7.3237 33.6 20.0437 33.6 12.6075 0 20.045-9.8675 20.045-33.5163m14.9238-.255c0 21.5175-16.22 35.9838-34.9688 35.9838-19.3687 0-34.9675-14.03-34.9675-35.645 0-21.4175 16.1187-35.8975 34.9675-35.8975 19.2662 0 34.9688 13.9475 34.9688 35.5587" fill="#fff"/><path d="M260.2175 31.9887c0-9.0475-4.685-15.1425-17.7887-15.1425h-6.5925v31.4775h6.3325c12.41 0 18.0487-6.1812 18.0487-16.335m30.8938 50.7025h-24.125c-2.8638-2.895-7.0463-7.6862-11.8875-15.2287-9.7213-15.145-11.455-16.9288-17.1825-16.9288h-2.08v24.4138c0 3.9087 1.4237 5.9962 10.4125 6.2962v1.4475h-35.405v-1.4475c9.305-.3 10.6737-2.585 10.6737-6.2962v-52.655c0-3.6163-1.3712-5.9113-10.6737-6.2125v-1.445h33.755c19.2637 0 30.1112 6.1225 30.1112 17.1837 0 8.1025-7.7237 15.5675-22.1275 18.1188v.1712c5.5525 1.105 9.41 3.845 14.665 10.8888l5.9013 7.9112c6.3937 8.5738 10.7575 12.165 17.9625 12.335v1.4475M194.185 48.8326c0-23.65-7.3212-33.6887-20.0462-33.6887-12.705 0-20.0438 10.2087-20.0438 33.605 0 23.9025 7.3225 33.6 20.0438 33.6 12.6062 0 20.0462-9.8675 20.0462-33.5163m14.925-.255c0 21.5175-16.2225 35.9838-34.9712 35.9838-19.3688 0-34.9675-14.03-34.9675-35.645 0-21.4175 16.1187-35.8975 34.9675-35.8975 19.2687 0 34.9712 13.9475 34.9712 35.5587m528.6525-12.5065l-1.91.34c-4.7512-13.0875-10.9487-19.565-20.8262-19.565h-4.4288v58.1c0 3.6888 1.995 6.1275 11.1113 6.2975V82.69h-36.8775v-1.4463c9.0237-.34 11.71-2.6087 11.71-6.2975v-58.1h-4.5988c-9.635 0-16.53 6.475-20.7375 19.565l-1.9075-.34 1.9975-21.4375h64.5575l1.91 21.4375m-66.815 27.4775c0 12.505-10.76 21.0125-30.0237 21.0125-10.4988 0-18.0575-2.7437-22.995-5.1887l-3.3838 4.0812h-1.1262l-2.0863-22.7962 1.735-.3413c6.5975 15.1413 13.4525 22.0325 28.0313 22.0325 10.9987 0 18.2212-6.21 18.2212-13.6962 0-7.4-3.8687-10.7063-17.445-15.1425l-9.63-3.1475c-10.3662-3.3863-18.7437-8.9438-18.7437-19.7338 0-11.9975 11.0225-17.61 26.1175-17.61 9.2012 0 16.1437 2.8063 19.9575 5.1025l2.3437-3.6575h1.3038l1.8225 21.6075-1.8225.3413c-4.5975-13.5275-11.3663-21.1838-23.6875-21.1838-9.1988 0-14.3188 5.02-14.3188 10.72 0 6.8925 5.145 9.355 14.4013 12.335l11.3687 3.6588c11.5725 3.7225 19.96 9.7825 19.96 21.6062m182.135-31.56c0-9.0475-4.6875-15.1425-17.7875-15.1425h-6.5963v31.4775h6.3325c12.4138 0 18.0513-6.1812 18.0513-16.335m30.8912 50.7025H859.85c-2.865-2.895-7.045-7.6862-11.885-15.2287-9.7225-15.145-11.4575-16.9288-17.185-16.9288h-2.0812v24.4138c0 3.9087 1.4225 5.9962 10.4162 6.2962v1.4475H803.71v-1.4475c9.3012-.3 10.67-2.585 10.67-6.2962V22.3762c0-3.6137-1.3725-5.995-10.67-6.2962v-1.445h33.7525c19.265 0 30.1113 6.1212 30.1113 17.1837 0 8.1025-7.7238 15.5675-22.125 18.1188v.1712c5.55 1.105 9.4087 3.845 14.6612 10.8888l5.9025 7.9112c6.3938 8.5738 10.7575 12.165 17.9613 12.335v1.4475" fill="#fff"/><path d="M770.8225 55.4675l-10.9337-30.115h-.4375l-11.275 30.115zm33.2338 27.2238h-35.49v-1.4475c7.2575-.3613 9.7325-1.42 9.7187-4.1688-.0075-.985-.3275-2.1912-.8687-3.6575l-5.9-15.9925h-24.21l-3.035 7.6563c-1.6538 4.1625-2.2575 7.2337-2.2575 9.5275 0 4.0775 2.515 5.87 8.5025 6.635v1.4475H726.83v-1.4475c6.765-1.2763 10.5262-5.3425 14.7462-15.9925l20.9163-52.7438h6.8525l22.475 59.5488c2.2575 5.98 4.2438 8.1075 12.2363 9.1875v1.4475" fill="#fff"/></svg>