<?xml version="1.0" encoding="UTF-8"?>
<svg id="Layer_2" data-name="Layer 2" xmlns="http://www.w3.org/2000/svg" viewBox="0 0 339.94 169.41">
  <defs>
    <style>
      .cls-1 {
        fill: #f0f0f0;
      }

      .cls-2 {
        fill: #fff;
      }

      .cls-3 {
        fill: #cacaca;
      }

      .cls-4 {
        fill: #3f3d56;
      }

      .cls-5 {
        fill: #418fde;
      }

      .cls-6 {
        opacity: .3;
      }

      .cls-6, .cls-7 {
        isolation: isolate;
      }

      .cls-7 {
        opacity: .2;
      }

      .cls-8 {
        fill: #e4e4e4;
      }
    </style>
  </defs>
  <g id="Layer_1-2" data-name="Layer 1">
    <g>
      <circle class="cls-8" cx="92.81" cy="121.85" r="16.71"/>
      <path class="cls-7" d="m80.48,110.69c-3.63,8.49.31,18.31,8.8,21.93,6.6,2.82,14.27,1.11,19.05-4.25-3.63,8.49-13.45,12.43-21.93,8.8-8.49-3.63-12.43-13.45-8.8-21.93.71-1.66,1.69-3.2,2.89-4.55Z"/>
      <polygon class="cls-4" points="92.86 121.85 92.91 121.85 93.73 169.22 91.99 169.22 92.86 121.85"/>
      <circle class="cls-8" cx="59.01" cy="73.71" r="33.69"/>
      <path class="cls-7" d="m34.13,51.2c-7.31,17.11.63,36.91,17.74,44.22,13.31,5.69,28.77,2.24,38.4-8.57-7.31,17.11-27.11,25.05-44.22,17.74-17.11-7.31-25.05-27.11-17.74-44.22,1.43-3.35,3.4-6.45,5.83-9.17Z"/>
      <polygon class="cls-4" points="59.1 73.7 59.19 73.7 60.86 169.22 57.34 169.22 59.1 73.7"/>
      <rect class="cls-1" x="126.7" y="119.78" width="154.42" height="45.78"/>
      <rect class="cls-3" x="194.91" y="129.24" width="18.01" height="36.32"/>
      <rect class="cls-1" x="135.71" y="65.77" width="136.42" height="42.11"/>
      <path class="cls-3" d="m285.95,68.36H121.88c-.76,0-1.37-.61-1.37-1.37,0-.37.15-.73.42-.99l44.84-43.1V4.12c0-.76.62-1.37,1.37-1.37h8.85c.76,0,1.37.62,1.37,1.37v7.63l3.39-3.26c11.5-11.05,29.58-11.35,41.44-.69l64.68,58.16c.56.51.61,1.38.1,1.94-.26.29-.63.46-1.02.46h0Z"/>
      <path class="cls-2" d="m171.72,76.45h0c4.8,0,8.7,3.89,8.7,8.7v11.75h-17.4v-11.75c0-4.8,3.89-8.7,8.7-8.7Z"/>
      <path class="cls-2" d="m203.92,76.6h0c4.8,0,8.7,3.89,8.7,8.7h0v11.75h-17.4v-11.75c0-4.8,3.89-8.7,8.7-8.7h0Z"/>
      <path class="cls-2" d="m236.11,76.75h0c4.8,0,8.7,3.89,8.7,8.7h0v11.75h-17.4v-11.75c0-4.8,3.89-8.7,8.7-8.7h0Z"/>
      <path class="cls-2" d="m248.93,128.79h0c4.8,0,8.7,3.89,8.7,8.7h0v11.75h-17.4v-11.75c0-4.8,3.89-8.7,8.7-8.7h0Z"/>
      <path class="cls-2" d="m162.87,128.79h0c4.8,0,8.7,3.89,8.7,8.7v11.75h-17.4v-11.75c0-4.8,3.89-8.7,8.7-8.7h0Z"/>
      <path class="cls-3" d="m303.69,120.5l-28.97-12.82c-.16-.07-.32-.1-.49-.1h-138.05c-.16,0-.31.03-.46.09l-31.53,12.82c-.62.25-.93.97-.67,1.59.19.46.63.76,1.13.76h8.18v42.11h-.92v4.27h184.02v-4.27h-1.53v-42.11h8.79c.67,0,1.22-.55,1.22-1.22,0-.48-.28-.92-.73-1.12Zm-11.73,44.45H115.26v-42.11h176.7v42.11Z"/>
      <rect class="cls-3" x="160.27" y="95.22" width="22.28" height="3.66"/>
      <rect class="cls-3" x="192.93" y="95.22" width="22.28" height="3.66"/>
      <rect class="cls-3" x="225.58" y="95.22" width="22.28" height="3.66"/>
      <rect class="cls-3" x="237.79" y="148.01" width="22.28" height="3.66"/>
      <rect class="cls-3" x="151.42" y="148.01" width="22.28" height="3.66"/>
      <path class="cls-4" d="m339.57,169.41H.37c-.21,0-.37-.17-.37-.37s.17-.37.37-.37h339.19c.21,0,.37.17.37.37s-.17.37-.37.37Z"/>
      <path class="cls-1" d="m254.25,65.14c0,.24,0,.48,0,.72,0,.29-.01.57-.02.86-.01.25-.02.5-.04.74-.04.83-.12,1.65-.21,2.48-.02.21-.05.42-.08.62-.02.16-.04.33-.07.49-.03.18-.05.37-.08.55-.06.39-.13.78-.2,1.17-.04.19-.07.39-.12.58-.08.39-.16.77-.25,1.16,0,.03-.01.06-.02.09-.04.19-.09.38-.14.57-.01.06-.03.11-.04.16-.03.14-.07.28-.11.43-.05.2-.1.39-.16.59-.09.31-.18.61-.27.92-.01.03-.02.06-.03.1-.18.58-.37,1.15-.58,1.72-.11.3-.22.6-.34.9-.12.3-.24.6-.36.89-.12.29-.24.58-.37.86-.03.07-.06.13-.09.2-.13.3-.27.58-.4.87,0,0,0,.01,0,.01-.11.23-.22.46-.34.69,0,0,0,.01,0,.02-.11.22-.23.45-.35.67l-.19.36-.02.04c-.24.45-.49.89-.75,1.32-.06.1-.11.19-.17.29-.06.1-.12.19-.18.29-.04.07-.08.13-.12.2-.08.13-.16.26-.24.39-.01.03-.03.05-.05.08-.14.22-.28.44-.43.66-.18.27-.36.53-.54.79l-4.06,6.5-.18-.15-.05-.04h0l-.16-.13-.44-.37c-.13.13-.27.26-.4.39-.05.05-.11.1-.16.15-.04.04-.08.07-.12.11-7.02,6.86-16.36,10.83-26.17,11.13h-.01c-7.43.2-14.78-1.53-21.33-5.03-.15-.07-.29-.15-.43-.24-.85-.46-1.69-.95-2.51-1.48,0,0,0,0-.01,0-.95-.67-1.88-1.39-2.78-2.15-9.84-8.3-15.23-20.72-14.56-33.58.01-.25.03-.5.04-.75.06-.91.15-1.81.28-2.7.03-.25.07-.5.11-.75h79.95c.16,1.14.27,2.29.33,3.45.04.72.06,1.44.06,2.16Z"/>
      <path class="cls-5" d="m253.87,59.53c-3.32-22.08-23.91-37.28-45.98-33.96-17.55,2.64-31.32,16.41-33.96,33.96-.04.25-.07.5-.11.75-.12.9-.22,1.8-.28,2.7h80.66c-.06-1.16-.17-2.31-.33-3.45Z"/>
      <path class="cls-5" d="m216.51,101.18h-23.16v-18.53c.43-8.47,7.66-9.15,14.47-8.7,4.8,0,8.7,3.89,8.7,8.7h0v18.53Z"/>
      <path class="cls-4" d="m193.35,88h0s0,0,0,0h0Zm-9.32-28.48c-.01.09-.03.19-.05.28.01-.09.03-.19.05-.28h0Zm-.46,3.45c-.01.14-.02.28-.03.43,0-.14.02-.28.03-.43,0-.03,0-.05,0-.08,0,.03,0,.05,0,.08h0Zm9.78,25.03s0,0,0,0h0s0,0,0,0Zm-9.32-28.48c-.01.09-.03.19-.05.28.01-.09.03-.19.05-.28h0Zm-.49,3.88c0-.14.02-.28.03-.43,0-.03,0-.05,0-.08,0,.03,0,.05,0,.08-.01.14-.02.28-.03.43Zm115.53,68.8c-.07-.08-.15-.15-.23-.22h0s-18.52-15.63-18.52-15.63l-.48-.4-1.82-1.54-.46-.39-2.6-2.19-.71-.6-1.47-1.24-.75-.64-7.09-5.98-4.07-3.43-.55-.46-11.98-10.11c.18-.26.36-.52.54-.79.14-.22.28-.44.43-.66.01-.03.03-.05.05-.08.08-.13.16-.26.24-.39.04-.07.09-.13.12-.2.06-.09.12-.19.18-.29.06-.09.11-.19.17-.29.26-.44.51-.88.75-1.32l.02-.04.19-.36c.12-.22.24-.45.35-.67,0,0,0-.01,0-.02.12-.23.23-.46.34-.69,0,0,0-.01,0-.01.14-.29.27-.58.4-.87.03-.07.06-.13.09-.2.12-.28.25-.57.37-.86.12-.3.24-.59.36-.89.12-.3.23-.6.34-.9.21-.57.4-1.15.58-1.72,0-.03.02-.07.03-.1.09-.31.18-.61.27-.92.06-.2.11-.39.16-.59.04-.14.07-.28.11-.43.02-.06.03-.11.04-.16.05-.19.09-.38.14-.57,0-.03.01-.06.02-.09.09-.39.18-.77.25-1.16.04-.19.08-.39.12-.58.07-.39.14-.78.2-1.17.03-.18.06-.37.08-.55.03-.16.05-.33.07-.49.03-.21.06-.42.08-.62.1-.83.17-1.65.21-2.48.01-.25.03-.49.04-.74.01-.29.02-.57.02-.86,0-.24,0-.48,0-.72,0-.72-.02-1.44-.06-2.16-.06-1.16-.17-2.31-.33-3.45-3.08-22.52-23.84-38.28-46.36-35.2-18.02,2.47-32.29,16.47-35.09,34.45-.04.25-.07.5-.11.75-.12.9-.22,1.8-.28,2.7-.02.25-.03.5-.04.75-.67,12.86,4.72,25.28,14.56,33.58.9.76,1.83,1.48,2.78,2.15,0,0,0,0,.01,0,.32.22.64.45.96.66.51.34,1.03.67,1.55.98.04.02.08.05.12.07.45.27.9.53,1.35.78h0c1.68.93,3.43,1.73,5.23,2.41,5.28,1.99,10.91,2.87,16.54,2.6h.01c6.57-.32,12.98-2.21,18.66-5.52.83-.48,1.64-.99,2.44-1.54.2-.13.4-.27.59-.41.24-.17.48-.34.72-.52,0,0,0,0,0,0,.02-.01.04-.03.06-.04.16-.12.33-.25.48-.37.04-.03.08-.06.12-.09.01,0,.02-.02.03-.03.09-.07.18-.14.28-.21.09-.07.18-.15.28-.22.02-.01.03-.02.04-.03.1-.09.21-.17.31-.25.11-.09.21-.18.31-.26.1-.09.21-.17.31-.26.09-.07.18-.15.27-.24.03-.02.06-.05.09-.07.01-.01.02-.02.04-.03.12-.1.24-.21.36-.32.03-.03.06-.05.09-.08.18-.16.37-.33.55-.5.04-.04.09-.08.13-.12.04-.04.08-.07.12-.11.05-.05.11-.1.16-.15.13-.13.27-.26.4-.39l.44.37.16.13h0l.05.04.18.15,2.61,2.21.06.05.04.03.3.25.59.5.59.5.09.07,2.75,2.32.38.32,2.65,2.24,13.72,11.58.48.4,18.78,15.85,4.82,4.07,1.79,1.51c1.6,1.35,3.99,1.15,5.34-.44h0c.27-.32.48-.68.63-1.07.56-1.4.22-3-.85-4.07Zm-108.33-86.69c10.98-13.01,30.43-14.66,43.45-3.68,5.38,4.54,9.04,10.78,10.38,17.7.05.25.09.5.13.75.15.89.27,1.8.33,2.7.02.25.04.5.05.75.03.56.05,1.13.05,1.69,0,3.4-.56,6.78-1.67,10h0c-1.24,3.61-3.14,6.96-5.6,9.87-.05.06-.1.12-.16.18-.49.58-1.01,1.14-1.55,1.68,0,0,0,.01-.01.01-.18.18-.37.37-.56.54-.38.37-.77.72-1.17,1.06-.59.52-1.2,1.01-1.83,1.46-.21.15-.42.3-.63.45-.21.15-.42.29-.64.43-.43.28-.86.56-1.3.82-.22.13-.44.26-.66.38-.22.13-.45.25-.67.36-.22.12-.45.24-.68.35-.45.23-.91.44-1.37.64-.23.1-.46.2-.7.29-.15.06-.29.12-.43.17-.06.03-.12.05-.18.07-.08.03-.16.06-.24.09-.03.01-.05.02-.08.03-.16.06-.32.12-.48.18-.24.09-.47.16-.71.24-.24.08-.47.15-.71.22-.24.07-.48.14-.72.21-.24.07-.48.13-.73.19-.26.07-.52.13-.78.18-.23.05-.45.1-.68.14-.21.04-.43.08-.64.12-.3.05-.6.1-.9.14-.16.03-.33.05-.49.06-.07.01-.14.02-.21.03-.21.03-.42.05-.62.07-.06,0-.11.01-.16.01-.23.02-.46.04-.69.06-.49.03-.98.06-1.47.07-.25,0-.5,0-.74,0s-.49,0-.74-.01c0,0,0,0,0,0t0,0s0,0,0,0c0,0,0,0,0,0-.01,0-.03,0-.04,0-.18,0-.35,0-.52-.02-.13,0-.26,0-.39-.02-.18,0-.35-.02-.53-.03-.06,0-.11,0-.17-.01-.03,0-.05,0-.08,0-.18-.01-.36-.03-.54-.05-.09,0-.18-.01-.27-.03-.27-.03-.55-.06-.82-.1-.31-.04-.61-.08-.92-.14-.14-.02-.28-.04-.42-.07-.18-.03-.37-.06-.55-.1-.19-.04-.38-.07-.57-.12-.15-.03-.31-.07-.46-.1-.07-.01-.15-.03-.22-.05-.39-.09-.78-.19-1.17-.31-.24-.07-.49-.14-.73-.21-.33-.1-.65-.21-.98-.33-.13-.04-.25-.09-.38-.13-.13-.04-.25-.09-.38-.14-.12-.04-.23-.09-.34-.13-.19-.07-.37-.15-.55-.22-.38-.15-.75-.31-1.12-.49-.21-.1-.42-.2-.62-.3-.81-.39-1.61-.83-2.4-1.31-.19-.12-.39-.24-.58-.36-.24-.15-.48-.31-.71-.46-.13-.09-.26-.18-.39-.27-.24-.16-.47-.33-.7-.5-.12-.09-.24-.18-.36-.27-.42-.31-.82-.64-1.22-.98-.19-.16-.38-.33-.57-.49-.08-.07-.16-.14-.24-.21-.09-.08-.18-.16-.27-.25h0c-.13-.12-.26-.25-.39-.37-.2-.19-.39-.38-.58-.57-.19-.19-.38-.39-.56-.58-.19-.19-.37-.39-.54-.59-.18-.2-.36-.4-.53-.61-.17-.19-.33-.4-.49-.59-.38-.47-.75-.95-1.09-1.44-.16-.22-.31-.45-.46-.68-.16-.23-.31-.47-.46-.7-.15-.24-.3-.47-.44-.72,0,0,0-.02-.01-.02-.28-.47-.55-.95-.8-1.44-.26-.49-.5-.99-.73-1.5-.12-.25-.23-.5-.33-.76-.22-.51-.42-1.02-.61-1.54-.09-.25-.18-.5-.27-.76,0-.02,0-.03-.01-.05-.17-.52-.33-1.04-.47-1.56,0,0,0-.01,0-.02-.07-.26-.14-.52-.2-.78-.06-.23-.11-.46-.16-.69-.06-.26-.11-.52-.16-.78-.03-.13-.05-.27-.07-.4-.02-.11-.04-.23-.06-.34-.02-.11-.04-.23-.06-.34-.04-.23-.07-.46-.1-.68-.04-.27-.07-.54-.1-.81-.03-.33-.06-.65-.09-.98-.02-.22-.03-.45-.04-.67-.01-.21-.02-.41-.03-.62,0-.01,0-.02,0-.03,0,0,0,0,0,0,0,0,0,0,0,0t0,0s0,0,0,0c0,0,0,0,0,0,0-.08,0-.16,0-.25,0-.24-.01-.49-.01-.73,0-.22,0-.44,0-.66,0-.31.02-.61.03-.92,0-.07,0-.13.01-.2,0-.07,0-.13.01-.2,0-.14.02-.28.03-.43,0-.03,0-.05,0-.08.01-.16.03-.32.04-.48.03-.32.07-.65.11-.97.02-.16.04-.32.07-.48.01-.11.03-.23.05-.34.01-.12.03-.23.06-.35.03-.15.05-.31.08-.47.01-.09.03-.19.05-.28.07-.37.15-.75.24-1.12.09-.38.18-.75.29-1.13.1-.38.21-.76.33-1.13.06-.19.12-.38.18-.56.12-.38.25-.75.4-1.12.07-.18.14-.37.22-.55.15-.37.31-.74.47-1.1.08-.18.16-.37.25-.55.17-.36.34-.73.53-1.08.18-.36.38-.72.58-1.07s.41-.7.63-1.05c.1-.17.21-.35.33-.52.22-.34.46-.69.7-1.02.48-.68,1-1.35,1.55-2Zm-7.18,17.47c-.01.14-.02.28-.03.43,0-.14.02-.28.03-.43,0-.03,0-.05,0-.08,0,.03,0,.05,0,.08Zm.46-3.45c-.01.09-.03.19-.05.28.01-.09.03-.19.05-.28h0Zm9.32,28.48h0s0,0,0,0h0Z"/>
      <path class="cls-6" d="m194.43,88.96c-12.27-10.35-14.54-28.38-5.23-41.45-.59.59-1.16,1.22-1.71,1.87-10.98,13.01-9.33,32.47,3.68,43.45,13.01,10.98,32.47,9.33,43.45-3.68.55-.65,1.07-1.32,1.55-2-11.32,11.38-29.47,12.16-41.74,1.82Z"/>
    </g>
  </g>
</svg>