<?xml version="1.0" encoding="UTF-8"?>
<svg id="Layer_2" data-name="Layer 2" xmlns="http://www.w3.org/2000/svg" viewBox="0 0 275.08 172.63">
  <defs>
    <style>
      .cls-1 {
        fill: #fff;
      }

      .cls-2 {
        fill: #f5f5f5;
      }

      .cls-3 {
        fill: #a26760;
      }

      .cls-4 {
        fill: #455a64;
      }

      .cls-5 {
        fill: #7b4b45;
      }

      .cls-6 {
        fill: #e0e0e0;
      }

      .cls-7 {
        fill: #418fde;
      }

      .cls-8 {
        opacity: .3;
      }

      .cls-8, .cls-9 {
        isolation: isolate;
      }

      .cls-10 {
        fill: #eb996e;
      }

      .cls-11 {
        opacity: .6;
      }

      .cls-9 {
        opacity: .2;
      }

      .cls-12 {
        fill: #ffbe9d;
      }

      .cls-13 {
        fill: #ebebeb;
      }

      .cls-14 {
        fill: #263238;
      }
    </style>
  </defs>
  <g id="Layer_1-2" data-name="Layer 1">
    <g>
      <g id="freepik--background-complete--inject-93">
        <polygon class="cls-6" points="268.82 26.02 271.81 26.56 262.49 14.99 264.29 4.86 258.46 3.82 257.56 8.86 254.1 4.57 246.2 3.16 246.19 3.17 236.99 1.53 242.1 7.45 242.1 7.45 256.23 23.78 249.85 22.65 244.45 52.98 263.42 56.36 268.82 26.02"/>
        <path class="cls-13" d="m249.85,22.65l6.38,1.14-14.11-16.32h0l-5.13-5.93-22.6,14.82,3.23.57-5.39,30.33,10.78,1.92,2.81-15.78,10.04,1.79-2.81,15.78,1.64.29,1.54.27h0l8.24,1.47,5.38-30.35Zm-8.95,4.42h0l.59-3.31,4.39.77-.73,4.08-4.4-.77.15-.77Zm-20.42-7.06l4.04.72-.73,4.09-4.04-.72.73-4.09Zm-1.57,8.81l.73-4.09,4.04.74-.73,4.09-4.04-.74Zm6.33-7.97l4.05.72-.73,4.09-4.05-.72.73-4.09Zm-1.57,8.81l.73-4.09,4.04.72-.72,4.09-4.05-.73Zm10.25-12.84c-2.07-.37-3.46-2.35-3.09-4.42.37-2.07,2.35-3.46,4.42-3.09,2.07.37,3.46,2.35,3.09,4.42,0,0,0,0,0,0-.37,2.07-2.34,3.45-4.42,3.09,0,0,0,0,0,0h0Zm3.18,6.16l3.69.65-.68,3.82h-.02l-.04.24-.32-.06h-.02l-3.33-.59.73-4.07Zm-1.57,8.81l.73-4.09,2.52.45h0l1.15.2-.18,1.04h0l-.54,3.04-3.67-.65Zm4.83-1.63h0l.3-1.67,4.4.77-.73,4.09-1.69-.3h0l-2.69-.48.41-2.4Z"/>
        <rect class="cls-2" x="222.31" y="38.41" width="15.99" height="10.16" transform="translate(145.92 262.15) rotate(-79.59)"/>
        <path class="cls-2" d="m233.92,16.82c2.07.37,4.06-1,4.43-3.08.37-2.07-1-4.06-3.08-4.43s-4.06,1-4.43,3.08c0,0,0,0,0,0-.37,2.07,1.01,4.05,3.08,4.42h0Z"/>
        <rect class="cls-2" x="220.06" y="20.36" width="4.15" height="4.11" transform="translate(161.15 237.18) rotate(-79.91)"/>
        <rect class="cls-2" x="219.22" y="25.08" width="4.15" height="4.11" transform="translate(155.81 240.25) rotate(-79.91)"/>
        <rect class="cls-2" x="224.82" y="21.2" width="4.15" height="4.11" transform="translate(164.25 242.57) rotate(-79.91)"/>
        <rect class="cls-2" x="223.98" y="25.93" width="4.15" height="4.11" transform="translate(158.91 245.64) rotate(-79.91)"/>
        <polygon class="cls-2" points="239.77 29.38 239.75 29.36 239.94 28.33 238.77 28.12 238.78 28.14 236.26 27.69 235.54 31.77 239.22 32.43 239.77 29.38"/>
        <polygon class="cls-2" points="245.89 24.55 245.91 24.53 245.89 24.53 245.89 24.52 245.88 24.53 241.51 23.75 240.92 27.03 240.9 27.04 240.76 27.82 245.17 28.61 245.89 24.55"/>
        <polygon class="cls-2" points="240.05 27.69 240.09 27.48 240.11 27.47 240.79 23.62 237.1 22.97 236.38 27.05 239.74 27.65 239.76 27.64 240.05 27.69"/>
        <polygon class="cls-2" points="244.33 33.33 245.05 29.24 240.65 28.46 240.35 30.13 240.37 30.15 239.94 32.56 242.66 33.04 242.65 33.03 244.33 33.33"/>
        <path class="cls-2" d="m206.46,20.25c.23-1.65-2.1-3-3.85-3.14-.83-.07-1.7.06-2.49-.22-1.71-.6-2.39-2.8-4.06-3.51-1.25-.53-2.69-.06-3.89.55s-2.4,1.37-3.75,1.46c-1.15.08-2.45-.36-3.46.22-.77.43-1.15,1.31-1.87,1.83s-1.59.62-2.45.67-1.74.05-2.52.41-1.42,1.18-1.26,2.02l29.6-.29Z"/>
        <path class="cls-6" d="m20.22,64.21c4.23,6.84,14.24,9.34,21.2,5.31,5.05,6.8,14.65,8.22,21.45,3.17,1.79-1.33,3.28-3.04,4.34-5,3.01,1.5,6.89.49,9.24-1.9s3.36-5.89,3.29-9.26-1.09-6.64-2.28-9.78c0,0-26.13-6.95-27.96-6.45s-29.28,23.91-29.28,23.91Z"/>
        <path class="cls-13" d="m33.47,54.52c0,.52,4.02,10.04,4.02,10.04l6.93,9.28,2.91,28.44,2.91,6.63-1.92,32.11,4.78-.17,1.23-33.41-1.43-9.58,2.67-10.2,7.13-10.82,4.27-22.43-3.62-.6-3.08,15.53-2.88,8.82-3.46,5.75-3.76.61,1.78-33.36-3.3-1.45-.95,17.7-2.53,1.92-3.02-4.39-6.99-12.03-1.68,1.6Z"/>
        <path class="cls-6" d="m90.47,34.12c-1.92-4.91-5.98-8.64-9.9-12.18,2.18-1.46,2.97-4.44,2.42-7s-2.21-4.76-4.07-6.6C70.78.25,57.65-2.27,47.1,2.18l-4.29.65c-8.99-2.12-19.12,2.14-23.88,10.06-1.04,1.72-1.84,3.59-3.13,5.12-1.84,2.21-4.48,3.54-6.76,5.27C-.61,30.59-2.87,44.16,3.88,54.21c1.65,2.46,3.78,4.62,5.12,7.25.97,1.92,1.51,4.09,2.81,5.8,2.53,3.31,7.43,4.06,11.39,2.75,3.13-1.04,9.84-10.85,11.11-13.4,1.54.38,8.16.03,9.6-6.35,0,0,3.69,3.58,11.77-1.29,2.43-1.47,6.18,2.88,8.94,4.55,2.97,1.79,5.44,4.29,8.29,6.27,2.85,1.98,6.32,3.46,9.72,2.82,4.59-.87,7.61-5.3,6.74-9.9-.31-1.65-1.11-3.18-2.3-4.37,4.45-2.84,5.33-9.3,3.39-14.22Z"/>
        <path class="cls-2" d="m275.06,94.19c.29-2.09-2.67-3.82-4.89-3.99-1.06-.09-2.16.08-3.16-.27-2.17-.77-3.04-3.57-5.16-4.46-1.59-.67-3.41-.07-4.95.7s-3.08,1.75-4.78,1.86c-1.49.1-3.12-.46-4.42.27-.97.54-1.49,1.67-2.38,2.33s-2.02.77-3.11.84-2.22.07-3.21.52-1.82,1.5-1.61,2.58l37.67-.37Z"/>
      </g>
      <g id="freepik--Drawing--inject-93">
        <polygon class="cls-13" points="18.76 21.02 28.39 120.11 64.27 114.22 97.09 122.79 126.4 110.15 158.14 117.7 184.07 104.59 180.52 9.99 155.74 17.51 126.45 9.73 91.48 22.06 55.84 13.92 18.76 21.02"/>
        <path class="cls-14" d="m18.74,21.01l.15-.03.46-.1,1.83-.36,7.18-1.4,27.44-5.31h.04l35.65,8.11h-.08l34.96-12.35h.1l29.32,7.76h-.1l24.77-7.52.23-.07v.24c1.1,29.14,2.31,61.13,3.56,94.59v.13l-.12.06-.52.27-25.4,12.85-.07.03h-.07l-31.74-7.55h.12l-29.3,12.63-.06.02h-.06l-32.82-8.59h.07l-35.88,5.83-.17.03v-.17c-2.93-30.38-5.31-55.16-6.97-72.36-.82-8.59-1.45-15.28-1.89-19.82-.22-2.27-.38-4-.48-5.17-.05-.58-.09-1.02-.12-1.31s-.05-.44-.05-.44c0,0,.02.16.05.45s.08.74.14,1.33c.12,1.15.29,2.91.52,5.19.45,4.55,1.12,11.25,1.97,19.85,1.69,17.17,4.13,41.93,7.11,72.25l-.18-.14,35.88-5.91h.07l32.83,8.56h-.12l29.3-12.64.06-.03h.06l31.74,7.54h-.13l25.4-12.85.52-.27-.11.19c-1.25-33.46-2.45-65.45-3.54-94.59l.24.17-24.77,7.5h-.1l-29.27-7.74h.1l-34.97,12.32h-.08l-35.64-8.17h.04l-27.41,5.17-7.21,1.35-1.85.34-.47.08c-.06.01-.12.02-.18.02Z"/>
        <polygon class="cls-1" points="22.03 23.56 31.13 117.19 65.03 111.62 96.04 119.72 126.34 106.66 157.98 114.16 180.53 101.99 177.18 13.83 156.99 20.52 126.56 12.43 91.97 25.48 57.06 16.86 22.03 23.56"/>
        <path class="cls-14" d="m22.03,23.56l35.02-6.75h.02l34.91,8.61h-.04l34.59-13.06h.05l30.43,8.08h-.05l20.18-6.69.12-.04v.13c1.04,27.18,2.17,56.99,3.36,88.16v.07l-.06.03-.89.48-21.66,11.7-.03.02h-.03l-31.64-7.5h.06l-30.27,13.04h-.06l-31.01-8.11h.03l-33.92,5.56h-.08v-.08c-5.54-57.37-8.98-92.99-9.04-93.62.06.63,3.56,36.25,9.18,93.62l-.09-.07,33.9-5.57h.03l31.02,8.08h-.06l30.29-13.09h.06l31.64,7.5h-.07l21.68-11.66.89-.48-.05.09c-1.18-31.17-2.31-60.98-3.34-88.16l.12.08-20.2,6.69h-.05l-30.43-8.08h.05l-34.6,13.04h-.04l-34.9-8.66h0l-35.03,6.65Z"/>
        <path class="cls-4" d="m34.64,71.11c1.72,2.76,5.73,3.76,8.54,2.14,2.01,2.74,5.87,3.33,8.61,1.32.74-.54,1.35-1.25,1.78-2.06,1.21.6,2.77.2,3.73-.77.92-1.02,1.4-2.36,1.33-3.73-.08-1.36-.39-2.69-.92-3.94,0,0-10.53-2.8-11.26-2.6s-11.81,9.64-11.81,9.64Z"/>
        <path class="cls-3" d="m39.98,67.21c0,.21,1.62,4.04,1.62,4.04l2.79,3.74,1.15,11.46,1.17,2.67.15,6.16,1.92-.07-.42-6.69-.57-3.85,1.08-4.11,2.87-4.36,1.72-9.04-1.46-.24-1.23,6.25-1.15,3.56-1.4,2.31-1.52.24.71-13.42-1.33-.59-.38,7.14-1.02.77-1.22-1.77-2.8-4.85-.69.64Z"/>
        <path class="cls-4" d="m62.95,58.99c-.77-1.98-2.41-3.48-3.99-4.91.88-.59,1.19-1.79.97-2.82-.28-1.03-.85-1.95-1.64-2.66-3.41-3.28-8.43-4.25-12.82-2.48l-1.72.26c-3.74-.8-7.58.82-9.62,4.05-.36.72-.79,1.41-1.26,2.07-.74.89-1.8,1.42-2.72,2.12-3.89,2.95-4.8,8.42-2.08,12.47.66.99,1.54,1.86,2.06,2.92.38.77.61,1.65,1.15,2.34,1.02,1.34,2.99,1.64,4.59,1.11,1.26-.42,3.96-4.37,4.48-5.39.61.15,3.29,0,3.85-2.56,0,0,1.49,1.44,4.74-.52.98-.59,2.49,1.15,3.6,1.83,1.2.72,2.19,1.73,3.34,2.53s2.54,1.4,3.92,1.15c1.85-.35,3.08-2.13,2.73-3.98-.13-.68-.46-1.31-.95-1.8,1.8-1.15,2.14-3.75,1.36-5.73Z"/>
        <path class="cls-14" d="m49.62,61.21c.03.05.05.11.06.17.04.16.07.33.08.49.06.62-.04,1.25-.29,1.83-.17.4-.4.78-.69,1.1-.34.38-.76.68-1.22.88-1.09.48-2.35.45-3.41-.1l.15-.07c-.08.46-.26.9-.55,1.28-.81,1.12-2.23,1.62-3.57,1.27l.12-.06c-.47,1.44-1.38,2.69-2.61,3.57-.35.25-.72.46-1.11.64-.13.06-.24.1-.32.12-.04.02-.07.03-.11.03.51-.26,1-.56,1.47-.89,1.18-.89,2.05-2.13,2.51-3.53l.03-.09.09.03c1.26.32,2.58-.16,3.35-1.2.26-.35.44-.76.51-1.19l.02-.14.13.07c1.01.52,2.2.56,3.24.11.84-.36,1.51-1.03,1.87-1.87.25-.56.36-1.16.33-1.77-.02-.43-.09-.66-.07-.67Z"/>
        <path class="cls-14" d="m57.14,68.32c-.12.08-.25.14-.38.17-.36.12-.75.17-1.13.15-.57-.02-1.13-.19-1.62-.5-.6-.38-1.06-.93-1.33-1.59-.08-.2-.14-.41-.19-.62l.15.07c-.54.32-1.18.45-1.81.38-.5-.05-.99-.23-1.39-.53-.27-.19-.5-.44-.68-.72-.07-.1-.13-.21-.16-.32.26.36.58.68.94.95.4.27.86.43,1.33.47.59.05,1.18-.08,1.69-.38l.12-.07.03.14c.04.2.1.4.18.58.26.62.69,1.14,1.25,1.51.46.3.99.48,1.54.52.5.02,1-.05,1.48-.2Z"/>
        <path class="cls-4" d="m138.88,62.2c2.17,3.49,7.27,4.77,10.83,2.72,2.58,3.47,7.49,4.19,10.96,1.61.91-.68,1.67-1.55,2.21-2.55,1.54.77,3.52.25,4.73-.97s1.72-3.01,1.69-4.73c-.1-1.72-.49-3.41-1.15-5,0,0-13.34-3.55-14.28-3.29s-14.97,12.22-14.97,12.22Z"/>
        <path class="cls-3" d="m145.65,57.25c0,.26,2.06,5.13,2.06,5.13l3.53,4.74,1.49,14.54,1.48,3.39.06,7.7,2.23-.05-.2-8.38-.73-4.9,1.37-5.21,3.64-5.53,2.18-11.46-1.85-.31-1.56,7.93-1.47,4.5-1.77,2.94-1.92.31.91-17.04-1.68-.75-.48,9.05-1.29,1-1.54-2.24-3.57-6.16-.87.81Z"/>
        <path class="cls-4" d="m174.77,46.83c-.99-2.51-3.08-4.41-5.06-6.22,1.12-.75,1.52-2.27,1.24-3.58s-1.13-2.43-2.08-3.38c-4.33-4.15-10.69-5.38-16.25-3.14l-2.19.33c-4.74-1.02-9.62,1.03-12.2,5.14-.53.87-.94,1.83-1.6,2.61-.94,1.12-2.29,1.81-3.46,2.69-4.93,3.74-6.08,10.67-2.63,15.81.84,1.26,1.92,2.35,2.61,3.7.5.98.77,2.09,1.44,2.96,1.29,1.69,3.8,2.07,5.82,1.4,1.6-.53,5.03-5.54,5.68-6.85.77.19,4.17,0,4.9-3.24,0,0,1.89,1.83,6.01-.66,1.24-.75,3.16,1.47,4.57,2.31,1.52.92,2.78,2.19,4.23,3.21s3.23,1.77,4.96,1.44c2.35-.45,3.89-2.71,3.44-5.06-.16-.84-.57-1.62-1.17-2.23,2.29-1.44,2.74-4.76,1.74-7.25Z"/>
        <path class="cls-14" d="m157.87,49.65c.03.07.05.14.07.21.05.21.09.42.1.63.06.79-.07,1.58-.38,2.31-.22.51-.51.98-.88,1.39-.43.47-.95.85-1.54,1.11-1.38.61-2.96.56-4.3-.13l.15-.07c-.1.59-.33,1.14-.69,1.61-1.08,1.45-2.99,2.08-4.49,1.6l.12-.06c-.6,1.82-1.75,3.4-3.3,4.52-.44.32-.91.59-1.4.82-.17.08-.31.13-.38.17-.04.02-.09.04-.14.05.17-.1.34-.19.51-.27,1.21-.62,2.27-1.5,3.1-2.58.64-.83,1.13-1.76,1.45-2.76l.03-.09.09.03c1.42.45,3.25-.15,4.28-1.54.34-.45.57-.98.65-1.54l.02-.14.12.07c1.29.66,2.81.72,4.14.14.57-.24,1.08-.6,1.5-1.05.36-.39.66-.84.87-1.34.31-.71.46-1.48.42-2.25-.03-.53-.12-.82-.1-.82Z"/>
        <path class="cls-14" d="m167.4,58.66s-.08.05-.12.07c-.12.06-.24.11-.37.14-.46.15-.94.21-1.43.18-.72-.03-1.42-.25-2.04-.64-.75-.48-1.34-1.18-1.67-2-.1-.25-.18-.51-.24-.77l.15.07c-.69.41-1.48.59-2.28.51-.63-.06-1.24-.29-1.75-.67-.34-.25-.63-.55-.87-.9-.09-.12-.16-.25-.21-.38.31.46.7.87,1.15,1.2.5.34,1.09.55,1.7.6.75.06,1.51-.11,2.16-.5l.12-.07.03.14c.05.26.13.51.23.75.32.79.88,1.46,1.59,1.92.58.38,1.25.6,1.95.65.47.04.94,0,1.4-.12.32-.12.5-.18.5-.17Z"/>
        <polygon class="cls-7" points="155.78 53.02 147.63 53.21 132.44 36.26 137.92 29.88 155.78 53.02"/>
        <polygon class="cls-8" points="155.78 53.02 147.63 53.21 132.44 36.26 137.92 29.88 155.78 53.02"/>
        <polygon class="cls-7" points="59.11 54.21 54.16 77.16 56.91 77.09 61.31 56.95 59.11 54.21"/>
        <polygon class="cls-8" points="59.11 54.21 54.16 77.16 56.91 77.09 61.31 56.95 59.11 54.21"/>
        <polygon class="cls-6" points="56.55 95.05 56.09 76.26 59.82 58.71 63.7 77.78 64.11 94.87 56.55 95.05"/>
        <rect class="cls-6" x="112.19" y="48.09" width="14.29" height="28.99" transform="translate(-1.46 2.87) rotate(-1.37)"/>
        <polygon class="cls-7" points="59.11 54.28 63.7 77.86 125.32 76.39 112.56 53.01 59.11 54.28"/>
        <rect class="cls-13" x="63.9" y="77.05" width="61.27" height="17.09" transform="translate(-2.02 2.28) rotate(-1.37)"/>
        <polygon class="cls-6" points="69.18 77.73 69.59 94.74 76.97 94.56 76.43 77.48 69.18 77.73"/>
        <polygon class="cls-13" points="94.84 55.5 76.43 77.48 76.97 94.56 113.25 93.69 112.53 77.24 94.84 55.5"/>
        <polygon class="cls-7" points="67.44 77.69 86.06 53.56 94.79 53.36 75.51 77.5 67.44 77.69"/>
        <polygon class="cls-7" points="107.89 53.04 122.09 52.88 138.44 29.87 137.73 28.95 124.16 29.54 107.89 53.04"/>
        <polygon class="cls-7" points="126.22 44.85 120.37 52.92 122.09 52.88 138.44 29.87 137.73 28.95 126.22 44.85"/>
        <path class="cls-14" d="m126.22,44.85s.03-.06.05-.08l.15-.23.62-.88c.55-.77,1.35-1.89,2.35-3.3l8.27-11.47.07-.1.08.1.7.92.04.05-.04.06-5.53,7.79c-4.09,5.77-7.87,11.05-10.83,15.21l-.02.03h-.04l-1.72.03h-.15l.09-.12c1.81-2.48,3.28-4.49,4.3-5.88l1.18-1.6c.13-.18.23-.31.31-.41.03-.05.07-.1.11-.14-.03.05-.06.1-.1.15l-.29.42-1.15,1.62-4.23,5.92-.06-.12,1.72-.05-.06.03,10.78-15.23,5.54-7.79v.12l-.7-.92h.15c-3.38,4.65-6.27,8.61-8.31,11.43l-2.4,3.26-.64.87-.17.22s-.07.07-.07.07Z"/>
        <polygon class="cls-13" points="149.85 49.87 150.87 92.79 125.37 93.4 124.32 49.74 136.07 33.2 149.85 49.87"/>
        <path class="cls-14" d="m158.33,62.14c.13.92.2,1.86.2,2.79.07.93.07,1.86,0,2.79-.14-.92-.2-1.85-.2-2.79-.06-.93-.06-1.87,0-2.8Z"/>
        <path class="cls-14" d="m158.33,62.14c-1.35.14-2.71.2-4.07.2-2.25.05-4.07.05-4.07,0s1.82-.14,4.07-.2,4.08-.06,4.08,0Z"/>
        <path class="cls-14" d="m155.67,67.77c-.12-.91-.18-1.84-.17-2.76-.06-.92-.05-1.84.03-2.76.12.91.17,1.84.17,2.76.05.92.04,1.84-.03,2.76Z"/>
        <path class="cls-14" d="m152.72,67.87c-.12-.92-.18-1.86-.17-2.79-.06-.93-.05-1.87.03-2.8.12.92.18,1.86.17,2.79.05.93.04,1.87-.03,2.8Z"/>
        <polygon class="cls-8" points="66.91 77.71 86.06 53.56 94.79 53.36 75.51 77.5 66.91 77.71"/>
        <polygon class="cls-7" points="94.14 56.34 112.53 77.24 114.09 77.21 94.84 55.5 94.14 56.34"/>
        <polygon class="cls-8" points="94.14 56.34 112.53 77.24 114.09 77.21 94.84 55.5 94.14 56.34"/>
        <polygon class="cls-7" points="94.79 53.36 73.98 77.54 76.43 77.48 94.84 55.5 114.09 77.46 114.95 76.39 94.79 53.36"/>
        <path class="cls-14" d="m94.79,53.36l.09.1.28.31,1.08,1.22,4.09,4.65,14.67,16.7.05.05-.05.06-.85,1.07-.07.08-.07-.08-19.24-21.94h.15l-.6.67-17.82,21.28-.02.03h-.04l-2.46.06h-.21l.13-.15c6.25-7.24,11.47-13.28,15.13-17.52l4.23-4.9,1.12-1.28.29-.33.1-.1s-.03.04-.1.12l-.28.34-1.12,1.31-4.23,4.94-15.01,17.53-.07-.14,2.46-.06-.07.03,17.82-21.28.59-.7.08-.09.08.09,19.24,21.97h-.13l.85-1.07v.11l-14.55-16.72-4.08-4.69-1.07-1.24-.28-.32-.11-.1Z"/>
        <path class="cls-14" d="m76.89,94.72c-.05,0-.19-3.85-.3-8.58-.11-4.73-.16-8.59-.1-8.59s.19,3.85.3,8.58c.11,4.73.16,8.58.1,8.58Z"/>
        <path class="cls-14" d="m69.7,94.96c-.06,0-.19-3.85-.31-8.58s-.16-8.59-.1-8.59.19,3.85.3,8.58c.11,4.73.16,8.58.11,8.59Z"/>
        <rect class="cls-4" x="90.08" y="79.2" width="7.19" height="14.96" transform="translate(-2.05 2.26) rotate(-1.37)"/>
        <path class="cls-14" d="m90.75,88.07h0c-.13,0-.24-.1-.25-.24h0s-.03-1.51-.03-1.51c0-.13.1-.24.23-.25,0,0,0,0,0,0h0c.13,0,.24.1.25.23,0,0,0,0,0,0l.04,1.51c0,.13-.1.25-.24.25Z"/>
        <path class="cls-4" d="m90.84,87.58s-.04-.08-.08-.07c0,0,0,0,0,0-.04,0-.08.03-.08.07,0,0,0,0,0,0,0,.03.02.05.05.07v.09s.01.03.03.03c0,0,0,0,0,0h0s.03-.02.03-.03v-.08s.04-.04.04-.07Z"/>
        <path class="cls-14" d="m91.93,86.96l-1.09.03c-.07,0-.12-.05-.12-.12h0c0-.07.05-.12.12-.12,0,0,0,0,0,0l1.09-.03c.07,0,.12.05.12.12,0,0,0,0,0,0h0c0,.06-.04.12-.11.12,0,0,0,0,0,0Z"/>
        <path class="cls-4" d="m91.2,86.98s-.1,0-.15,0c-.05,0-.11,0-.16,0-.07,0-.14-.03-.19-.08-.02-.04-.02-.08,0-.12.02-.03.05-.05.09-.06.05,0,.11,0,.17,0,.05,0,.1,0,.15,0-.05.01-.1.02-.15.02-.05,0-.1,0-.15.02-.04,0-.07.04-.07.08,0,.01,0,.03.01.04.08.09.23.07.32.08.05,0,.1.01.14.03Z"/>
        <path class="cls-14" d="m93.4,82.55s0-.25-.03-.68-.03-1.08-.05-1.76h.02l-2.14.05h.02v1.29c0,.38.02.77.03,1.15v-.02l1.54-.03h.59l-.58.02-1.54.05h0c0-.36-.02-.74-.03-1.15v-1.29h0l.02-.02,2.13-.05h0c0,.69.02,1.29.03,1.77s-.02.66-.02.66Z"/>
        <path class="cls-14" d="m93.02,82.26v-.52c0-.38-.03-.84-.04-1.34l.02.02-1.47.04s.04-.04,0-.02h0v.99c0,.3,0,.6.02.87h1.45l-.38.02-1.07.03h0v-.02c0-.27,0-.57-.02-.87,0-.16,0-.32,0-.48v-.5h0s.02-.03.02-.02l1.47-.03h0c0,.51,0,.96.02,1.35,0,.31,0,.49,0,.49Z"/>
        <path class="cls-14" d="m93.51,87.71c-.02-.77-.07-2.22-.13-4.56h.02l-2.13.05s0,0,.02-.02h0v1.29c0,.42.02.82.03,1.21.02.77.03,1.46.05,2.06h0l2.14-.04-2.13.07h0c0-.61-.03-1.3-.05-2.07,0-.38-.02-.79-.03-1.21v-1.29h0l.02-.02,2.13-.05h0v.02c.03,2.36.07,3.79.08,4.56Z"/>
        <path class="cls-14" d="m93.15,87.47v-.31c0-.2,0-.52-.03-.84-.02-.77-.05-1.75-.08-2.88h0l-1.47.03h0v1.16c0,.38.02.73.03,1.08,0,.67.03,1.27.03,1.79h0l1.47-.02h-.38l-1.08.03h0c0-.52-.03-1.12-.05-1.79,0-.34,0-.7-.03-1.08v-1.16h0l.02-.02,1.47-.03h.02v.02c.02,1.14.04,2.13.06,2.89v.84c0,.23.02.29.02.29Z"/>
        <path class="cls-14" d="m93.65,93.49c-.02-.77-.07-2.22-.13-4.56h0l-2.13.05v-.02h0v1.29c0,.42,0,.82.03,1.21.02.77.03,1.46.05,2.06h0l2.14-.04-2.14.07h0c0-.6-.03-1.3-.05-2.06,0-.38,0-.79-.03-1.21v-1.29h.02l2.13-.05h.02v.02c.06,2.32.09,3.76.1,4.53Z"/>
        <path class="cls-14" d="m93.29,93.25v-.31c0-.2,0-.52-.03-.84-.02-.77-.05-1.75-.08-2.88l.02.02-1.47.03s0,0,.02-.02h0v1.16c0,.38.02.73.03,1.08,0,.67.03,1.27.03,1.79h0l1.47-.02h-.38l-1.08.03h0c0-.52-.03-1.12-.05-1.79,0-.34-.02-.7-.03-1.08v-1.16h0s-.02.02,0-.02l1.47-.03h.02c.02,1.15.04,2.13.06,2.89v.84c0,.23,0,.31,0,.31Z"/>
        <path class="cls-14" d="m91.59,82.29c-.05.06-.11.12-.17.16-.1.08-.19.14-.2.13.05-.06.11-.12.17-.16.06-.05.13-.1.2-.13Z"/>
        <path class="cls-14" d="m93.4,82.52s-.09-.04-.19-.11c-.06-.04-.12-.09-.17-.14,0,0,.09.04.19.11s.17.13.17.14Z"/>
        <path class="cls-14" d="m93.3,80.17c-.04.05-.1.1-.15.13-.05.04-.11.08-.18.1,0,0,.06-.07.15-.13.05-.05.11-.08.18-.1Z"/>
        <path class="cls-14" d="m91.51,80.4s-.08-.03-.18-.08-.17-.11-.16-.12c.06.02.12.05.18.08.09.06.17.11.16.12Z"/>
        <path class="cls-14" d="m91.58,83.48c-.14-.06-.26-.17-.31-.31,0,0,.07.08.15.16s.17.14.16.15Z"/>
        <path class="cls-14" d="m93.37,83.14s-.05.08-.14.15c-.05.05-.1.09-.17.12,0,0,.05-.07.14-.15.05-.05.1-.09.17-.12Z"/>
        <path class="cls-14" d="m91.67,87.52s-.06.06-.14.13-.14.13-.15.12.04-.08.12-.15c.05-.05.1-.08.17-.1Z"/>
        <path class="cls-14" d="m93.45,87.71c-.06-.02-.11-.06-.16-.1-.08-.07-.14-.13-.13-.13.06.02.11.06.16.1.09.07.14.12.13.13Z"/>
        <path class="cls-14" d="m91.75,89.31c-.07-.04-.13-.09-.19-.15-.1-.09-.17-.17-.16-.18.07.04.13.09.19.15.06.05.12.11.16.18Z"/>
        <path class="cls-14" d="m93.53,88.91s-.06.09-.15.17c-.05.06-.11.11-.18.14.04-.07.09-.12.15-.17.05-.06.11-.1.18-.14Z"/>
        <path class="cls-14" d="m91.78,93.26s-.05.08-.12.15c-.04.05-.09.09-.15.13,0,0,.04-.08.12-.15s.13-.13.15-.13Z"/>
        <path class="cls-14" d="m93.61,93.49s-.08-.04-.17-.11-.15-.14-.14-.15c.06.03.12.07.17.12.08.07.15.13.14.14Z"/>
        <path class="cls-14" d="m96.22,82.49s0-.25-.02-.68-.03-1.08-.05-1.76l.02.02-2.13.05s.04-.04.02-.02h0v1.29c0,.4,0,.79.02,1.15h0l1.54-.03h.59l-.58.02-1.54.05h0v-.02c0-.36-.02-.74-.03-1.15v-1.28h0s.02-.03.02-.02l2.13-.05h0v.02c0,.69.02,1.29.03,1.77s-.02.65-.02.65Z"/>
        <path class="cls-14" d="m95.86,82.19s0-.19-.02-.52c0-.38-.02-.84-.04-1.34h0l-1.47.04s.03-.04.02,0h0v.98c0,.3,0,.6.02.87l-.02-.02h1.47s-.14,0-.38.02l-1.07.03h0c0-.28,0-.57-.02-.87v-.98h0s.03-.03.02-.02l1.47-.03h.02v.02c0,.51,0,.96.02,1.35,0,.29,0,.47,0,.47Z"/>
        <path class="cls-14" d="m96.34,87.64c-.02-.77-.06-2.22-.13-4.57l.02.02-2.13.05s0,0,.02-.02h0v1.29c0,.42.02.82.03,1.21,0,.77.03,1.46.05,2.07h0l2.13-.03-2.13.07h0c0-.6-.03-1.3-.05-2.06,0-.38-.02-.79-.03-1.21v-1.28h0l.02-.02,2.13-.05h.02v.02c.01,2.31.04,3.76.05,4.53Z"/>
        <path class="cls-14" d="m95.99,87.4v-.31c0-.2,0-.51-.02-.84-.02-.77-.05-1.75-.08-2.88v.02l-1.47.04.02-.02h0v1.16c0,.38,0,.74.02,1.08,0,.67.03,1.27.04,1.79h0l1.47-.02h-.38l-1.08.03h0c0-.52-.03-1.12-.05-1.79,0-.35-.02-.71-.03-1.08v-1.15h0l.02-.02,1.47-.03h.02v.02c.02,1.14.05,2.13.06,2.9v.84c0,.18-.01.28-.01.28Z"/>
        <path class="cls-14" d="m96.48,93.43c-.02-.77-.06-2.22-.13-4.57h.02l-2.13.05h.02v1.29c0,.42.02.82.03,1.21,0,.77.03,1.46.05,2.07h0l2.13-.03-2.13.07h0c0-.6-.03-1.3-.05-2.07,0-.38,0-.79-.03-1.21v-1.29h0l.02-.02,2.13-.05h0v.02c.03,2.32.08,3.76.08,4.54Z"/>
        <path class="cls-14" d="m96.12,93.2v-.31c0-.2,0-.51-.03-.84-.02-.77-.05-1.75-.08-2.88h.02l-1.47.03.02-.02h0v1.16c0,.38,0,.74.02,1.08,0,.67.03,1.27.04,1.79h0l1.47-.02h-.38l-1.08.03h0c0-.52-.03-1.12-.05-1.79,0-.34-.02-.7-.03-1.08v-1.15h0l.02-.02,1.47-.03h.02v.02c.02,1.14.05,2.13.06,2.9v.84l-.03.3Z"/>
        <path class="cls-14" d="m94.43,82.22c-.05.06-.11.12-.17.17-.06.05-.12.1-.2.13.05-.06.11-.12.17-.17.06-.05.12-.1.2-.13Z"/>
        <path class="cls-14" d="m96.23,82.45s-.09-.04-.19-.11-.17-.13-.17-.14c.07.03.13.06.19.11.06.04.12.09.17.14Z"/>
        <path class="cls-14" d="m96.13,80.12s-.06.07-.15.13c-.05.04-.11.08-.17.1,0,0,.06-.07.15-.13.05-.04.11-.08.18-.1Z"/>
        <path class="cls-14" d="m94.35,80.34c-.06-.02-.13-.05-.18-.08-.09-.06-.16-.11-.16-.12.07.02.13.05.18.09.09.05.16.11.16.12Z"/>
        <path class="cls-14" d="m94.42,83.41c-.14-.06-.26-.17-.31-.31.1.11.2.22.31.31Z"/>
        <path class="cls-14" d="m96.21,83.08s-.06.07-.14.15c.03.05.01.11-.04.14-.05.03-.11.01-.14-.04-.03-.05-.01-.11.04-.14.04-.02.08-.02.11,0,.08-.07.16-.13.17-.12Z"/>
        <path class="cls-14" d="m94.51,87.46s-.06.06-.13.13-.14.13-.15.12.04-.08.12-.15.16-.13.16-.1Z"/>
        <path class="cls-14" d="m96.29,87.64c-.06-.02-.11-.06-.16-.1-.08-.07-.14-.12-.13-.13s.08.03.15.1c.05.04.1.08.13.13Z"/>
        <path class="cls-14" d="m94.59,89.24c-.07-.04-.13-.09-.19-.15-.06-.05-.12-.11-.16-.18.07.04.13.09.19.15.06.05.12.11.16.18Z"/>
        <path class="cls-14" d="m96.37,88.85c-.04.07-.09.12-.15.17-.05.06-.11.11-.18.14.04-.07.09-.12.15-.17.05-.06.11-.11.18-.14Z"/>
        <path class="cls-14" d="m94.61,93.2s-.04.08-.12.15-.13.13-.14.13.04-.08.12-.15.13-.13.14-.13Z"/>
        <path class="cls-14" d="m96.45,93.43c-.06-.03-.12-.07-.17-.12-.09-.07-.15-.14-.14-.15.06.03.12.07.17.12.08.07.15.13.14.15Z"/>
        <path class="cls-14" d="m73.98,77.54c-.06.02-.13.02-.19.02l-.56.03-2.11.08-7.41.21h-.08v-.08c-.4-2.06-.85-4.34-1.32-6.74l-2.29-11.91c-.28-1.51-.51-2.74-.67-3.61l-.17-.99c0-.1-.03-.18-.04-.26,0-.03,0-.06,0-.09.01.03.02.06.03.08,0,.07.03.15.06.25.05.24.12.57.21.98l.74,3.6,2.35,11.9c.47,2.4.9,4.68,1.3,6.74l-.09-.08,7.41-.14,2.12-.03h.52c.07,0,.14,0,.21.02Z"/>
        <polygon class="cls-7" points="138.44 29.87 157.18 52.98 154.91 53.04 137.55 31.12 138.44 29.87"/>
        <path class="cls-14" d="m138.43,29.87l-.05.08-.16.24-.65.95v-.03c2.31,2.85,9.2,11.5,17.42,21.87l-.08-.03,1.26-.03,1.01-.02-.08.16-13.22-16.37-3.99-4.96-1.08-1.36-.28-.36s-.07-.08-.1-.13c.03.03.07.07.1.11l.28.34,1.09,1.32,4.02,4.9,13.34,16.38.13.16h-.2l-1,.02-1.27.03h-.05l-.03-.04c-8.22-10.39-15.06-19.07-17.32-21.96h0l.69-.94.17-.23s.03-.07.06-.1Z"/>
        <path class="cls-14" d="m122.48,52.79c0,.06-3.46.18-7.72.28-4.26.1-7.73.14-7.73.08s3.46-.18,7.72-.28,7.73-.13,7.73-.08Z"/>
        <rect class="cls-1" x="102.07" y="78.94" width="4.94" height="14.96" transform="translate(-2.04 2.52) rotate(-1.37)"/>
        <path class="cls-14" d="m107.19,93.84s0-.05,0-.08v-.22c0-.21,0-.49-.03-.85-.02-.75-.06-1.81-.1-3.13-.07-2.67-.18-6.39-.3-10.67l.1.1-4.94.12c.2-.2.05-.05.1-.1h0v1.11c0,.38.02.74.03,1.1,0,.73.03,1.45.05,2.15.03,1.4.06,2.75.09,4.02.05,2.54.1,4.77.13,6.57l-.07-.07,3.61-.05h1.33s-.05,0-.08,0h-.24l-.97.04-3.65.12h-.07v-.03c-.05-1.8-.11-4.04-.18-6.57-.03-1.27-.07-2.62-.1-4.02,0-.7-.03-1.42-.05-2.14,0-.38,0-.73-.03-1.1v-1.11h0c.05-.05-.1.1.1-.11l4.94-.12h.1v.1c.08,4.31.16,8.06.21,10.74.02,1.31.03,2.37.05,3.11v.82c0,.2-.02.27-.02.26Z"/>
        <path class="cls-14" d="m106.97,82.89c-.82.12-1.64.17-2.47.16-.82.05-1.65.04-2.47-.04.82-.12,1.64-.17,2.47-.16.82-.06,1.65-.04,2.47.04Z"/>
        <path class="cls-14" d="m107.1,89.09c-.82.12-1.64.17-2.47.16-.82.05-1.65.04-2.47-.04.82-.12,1.64-.17,2.47-.16.82-.06,1.65-.04,2.47.04Z"/>
        <path class="cls-14" d="m104.76,93.86c-.06,0-.18-3.31-.28-7.4-.1-4.09-.13-7.41-.08-7.41s.18,3.31.28,7.4c.1,4.09.13,7.4.08,7.41Z"/>
        <rect class="cls-1" x="133.57" y="78.15" width="4.94" height="14.96" transform="translate(-2.01 3.28) rotate(-1.37)"/>
        <path class="cls-14" d="m138.69,93.05s0-.05,0-.08v-.22c0-.21-.02-.49-.03-.85-.02-.75-.06-1.81-.1-3.13-.08-2.67-.18-6.39-.3-10.67l.1.1-4.94.12c.19-.2.05-.05.1-.1v1.11c0,.38,0,.74.02,1.1,0,.73.03,1.45.05,2.15.03,1.4.06,2.75.09,4.02.05,2.54.1,4.77.13,6.57l-.07-.07,3.61-.05h1.33-.32l-.96.04-3.65.12h-.07v-.07c-.05-1.8-.12-4.04-.18-6.57-.03-1.27-.07-2.62-.1-4.02,0-.7-.03-1.42-.05-2.14,0-.38,0-.73-.03-1.1v-1.11h0c.04-.05-.1.1.1-.11l4.94-.12h.09v.1c.08,4.31.16,8.06.21,10.74.02,1.32.04,2.37.05,3.11v.82c0,.2,0,.3,0,.3Z"/>
        <path class="cls-14" d="m138.25,82.22c-.82.12-1.64.17-2.47.16-.82.06-1.65.04-2.47-.04.82-.12,1.64-.17,2.47-.16.82-.05,1.65-.04,2.47.04Z"/>
        <path class="cls-14" d="m138.38,88.42c-.82.12-1.64.17-2.47.16-.82.06-1.65.04-2.47-.04.82-.12,1.64-.17,2.47-.16.82-.05,1.65-.04,2.47.04Z"/>
        <path class="cls-14" d="m136.04,93.2c-.06,0-.18-3.31-.28-7.4-.1-4.09-.13-7.41-.08-7.41s.18,3.31.28,7.4.13,7.41.08,7.41Z"/>
        <rect class="cls-1" x="139.37" y="78.12" width="4.94" height="14.96" transform="translate(-2.01 3.42) rotate(-1.37)"/>
        <path class="cls-14" d="m144.49,93.02v-.3c0-.21-.02-.49-.03-.85-.03-.75-.06-1.81-.1-3.13-.08-2.67-.18-6.39-.3-10.67l.1.09-4.94.12c.19-.21.05-.05.1-.1h0v1.11c0,.38,0,.74.03,1.1,0,.73.03,1.44.05,2.15.03,1.4.06,2.75.09,4.02.05,2.54.1,4.78.13,6.57l-.07-.06,3.61-.05h1.33-.32l-.96.04-3.65.12h-.07v-.07c-.05-1.8-.11-4.04-.18-6.57-.03-1.27-.07-2.62-.1-4.02-.02-.7-.03-1.42-.05-2.15,0-.36-.02-.73-.03-1.1v-1.09h0s-.1.1.1-.1l4.94-.12h.1v.1c.09,4.31.16,8.06.21,10.75.02,1.31.04,2.37.05,3.11v.83c0,.09,0,.18-.02.27Z"/>
        <path class="cls-14" d="m144.27,82.07c-.82.12-1.64.18-2.47.16-.82.05-1.65.04-2.47-.04,1.64-.17,3.29-.21,4.94-.12h0Z"/>
        <path class="cls-14" d="m144.41,88.27c-.82.12-1.64.18-2.47.16-.82.05-1.65.04-2.47-.04,1.64-.17,3.29-.21,4.94-.12h0Z"/>
        <path class="cls-14" d="m142.07,93.04c-.05,0-.18-3.31-.28-7.4s-.13-7.41-.08-7.41.18,3.31.28,7.4c.1,4.09.13,7.41.08,7.41Z"/>
        <rect class="cls-1" x="80.75" y="79.45" width="4.94" height="14.96" transform="translate(-2.05 2.01) rotate(-1.37)"/>
        <path class="cls-14" d="m85.86,94.36v-.3c0-.21-.02-.49-.03-.85-.03-.75-.06-1.81-.1-3.13-.07-2.67-.18-6.39-.3-10.68l.1.1-4.94.12c.19-.21.05-.06.1-.1h0v1.11c0,.38.02.74.03,1.1,0,.73.03,1.44.05,2.14.03,1.4.06,2.75.09,4.02.05,2.54.1,4.78.13,6.57l-.07-.06,3.63-.05h1.32-.32l-.96.04-3.65.12h-.07v-.07c-.05-1.8-.11-4.04-.18-6.57-.03-1.27-.07-2.62-.1-4.02,0-.7-.03-1.42-.05-2.15,0-.37,0-.73-.03-1.1v-1.11h0l.1-.11,4.94-.11h.1v.1c.08,4.31.16,8.06.21,10.74.02,1.32.03,2.37.05,3.11v.83c0,.1-.02.19-.04.29Z"/>
        <path class="cls-14" d="m85.65,83.4c-.82.12-1.64.17-2.47.16-.82.05-1.65.04-2.47-.04.82-.12,1.64-.18,2.47-.16.82-.05,1.65-.04,2.47.04Z"/>
        <path class="cls-14" d="m85.78,89.6c-.82.12-1.64.17-2.47.16-.82.05-1.65.04-2.47-.04.82-.12,1.64-.18,2.47-.16.82-.05,1.65-.04,2.47.04Z"/>
        <path class="cls-14" d="m83.44,94.36c-.05,0-.18-3.31-.28-7.4s-.13-7.41-.08-7.41.18,3.31.28,7.4c.1,4.09.13,7.41.08,7.41Z"/>
        <rect class="cls-1" x="87.99" y="66.11" width="11.16" height="8.27" transform="translate(-1.65 2.26) rotate(-1.37)"/>
        <path class="cls-14" d="m99.24,74.25c0-.05,0-.11,0-.16,0-.12,0-.26-.02-.45,0-.38-.03-.97-.06-1.68-.05-1.45-.11-3.51-.18-5.99l.08.08-11.16.29s.18-.2.1-.1h0v1.1c0,.37,0,.73.03,1.09,0,.72.03,1.43.05,2.12.03,1.39.06,2.69.08,3.96l-.09-.09,8.03-.15,2.31-.03h.61c.07,0,.15,0,.22,0-.07,0-.13,0-.2,0l-.6.02-2.27.08-8.08.24h-.07v-.09c-.03-1.25-.07-2.57-.1-3.96-.02-.69-.03-1.4-.05-2.12,0-.36,0-.72-.03-1.09v-1.07h0c-.08.09.12-.12.1-.1l11.16-.25h.08v.08c.04,2.51.08,4.58.1,6.04v2.09s-.02.09-.04.13Z"/>
        <path class="cls-14" d="m96.38,68.11c-.71.59-1.46,1.14-2.25,1.62-.75.54-1.54,1.03-2.36,1.46.71-.59,1.46-1.14,2.25-1.62.75-.54,1.54-1.03,2.36-1.46Z"/>
        <path class="cls-14" d="m93.5,71.08c-.61.54-1.3.98-2.06,1.29.61-.54,1.3-.98,2.06-1.29Z"/>
        <rect class="cls-1" x="113.62" y="80.64" width="11.16" height="8.27" transform="translate(-1.99 2.87) rotate(-1.37)"/>
        <path class="cls-14" d="m124.89,88.78c0-.05,0-.11,0-.16v-.44c0-.38-.04-.97-.06-1.68-.05-1.45-.11-3.51-.19-5.99l.08.08-11.16.28.1-.1h0v1.1c0,.37.02.73.03,1.09.02.72.03,1.43.05,2.12.03,1.39.06,2.69.09,3.95l-.09-.09,8.03-.15,2.31-.03h.62c.07,0,.15,0,.22,0h-.2l-.6.02-2.28.08-8.08.24h-.09v-.09c-.03-1.24-.07-2.57-.1-3.95-.02-.69-.03-1.4-.05-2.12,0-.36-.02-.72-.03-1.09v-1.1h0l.1-.1,11.16-.25h.08v.1c.04,2.51.08,4.58.1,6.05,0,.7,0,1.26.02,1.66v.43c-.01.05-.03.1-.05.15Z"/>
        <path class="cls-14" d="m122.02,82.64c-.71.59-1.46,1.14-2.25,1.62-.75.54-1.54,1.03-2.36,1.46,1.46-1.14,3.01-2.16,4.62-3.08h0Z"/>
        <path class="cls-14" d="m119.14,85.61c-.28.29-.61.54-.97.73-.33.24-.69.43-1.08.56.28-.3.61-.54.97-.73.33-.24.69-.43,1.08-.56Z"/>
        <rect class="cls-1" x="131.71" y="54.49" width="11.16" height="11.16" transform="translate(-1.4 3.3) rotate(-1.37)"/>
        <path class="cls-14" d="m143,65.52c0-.07,0-.14,0-.22,0-.15,0-.35-.02-.6-.02-.54-.04-1.31-.08-2.28-.06-1.96-.14-4.73-.24-8.06l.09.08-11.16.28s.18-.2.1-.1h0v1.54c0,.51.01,1.01.03,1.49.02.99.04,1.95.07,2.89.04,1.87.08,3.64.12,5.26l-.09-.08,8.06-.15,2.28-.03h.6c.07,0,.14,0,.22,0-.06,0-.13,0-.19,0l-.59.03-2.26.08-8.12.23h-.08v-.08c-.04-1.62-.08-3.39-.13-5.26-.02-.94-.05-1.9-.07-2.89,0-.49-.02-.99-.03-1.49,0-.25,0-.5-.02-.77v-.77h0l.1-.11,11.16-.25h.09v.09c.07,3.35.12,6.16.15,8.12,0,.96.03,1.72.03,2.26v.59c0,.07,0,.14,0,.21Z"/>
        <path class="cls-14" d="m140.06,56.55c-.71.6-1.46,1.14-2.25,1.63-.75.54-1.54,1.03-2.36,1.46.71-.6,1.46-1.14,2.25-1.62.75-.54,1.54-1.03,2.36-1.46Z"/>
        <path class="cls-14" d="m137.19,59.53c-.28.29-.61.54-.98.73-.33.24-.69.43-1.08.56.29-.29.63-.53.99-.71.32-.25.68-.44,1.07-.57Z"/>
        <rect class="cls-13" x="150.3" y="67.32" width="8.41" height="3.11" transform="translate(-1.6 3.71) rotate(-1.37)"/>
        <path class="cls-14" d="m158.68,62.09c0,.19-.15.35-.34.35-.19,0-.35-.15-.35-.34,0-.19.15-.35.34-.35.19,0,.35.15.35.34,0,0,0,0,0,0Z"/>
        <polygon class="cls-6" points="68.53 95.41 65 95.5 62.29 97.82 66.05 98.48 70.99 97.31 68.53 95.41"/>
        <polygon class="cls-6" points="70.61 95.36 71.96 96.83 74.86 97.08 75.31 95.25 70.61 95.36"/>
        <polygon class="cls-6" points="76.87 95.21 75.72 97.24 79.36 99.04 82.25 96.08 79.56 95.15 76.87 95.21"/>
        <path class="cls-14" d="m177.49,92.16c0,.05-32.19.87-71.89,1.82-39.7.95-71.9,1.67-71.9,1.62s32.18-.87,71.9-1.82,71.89-1.67,71.89-1.62Z"/>
        <rect class="cls-6" x="91.6" y="76.25" width="3.61" height="1.13" transform="translate(-1.81 2.26) rotate(-1.37)"/>
        <polygon class="cls-6" points="82.39 95.08 84.66 96.53 87.3 94.96 82.39 95.08"/>
        <polygon class="cls-6" points="86.53 96.63 88.97 94.93 93.17 94.83 91.76 97.77 86.53 96.63"/>
        <polygon class="cls-6" points="94.16 94.8 93.75 96.9 97.78 96.8 96.17 94.76 94.16 94.8"/>
        <polygon class="cls-6" points="97.73 94.81 99.97 96.66 104.03 94.66 97.73 94.81"/>
        <polygon class="cls-6" points="105.39 94.63 103.36 96.08 106.94 97.4 111.3 96.48 111.93 94.82 109.9 94.42 105.39 94.63"/>
        <polygon class="cls-6" points="113.86 94.68 113.3 95.8 115.28 96.38 116.73 94.61 113.86 94.68"/>
        <polygon class="cls-6" points="118.31 94.32 117.01 96.2 119.52 97.76 124.33 96.78 126.52 94.12 118.31 94.32"/>
        <path class="cls-4" d="m49.36,93.59c.87-.28,2.13.41,2.84.97-.24-.77.45-1.56,1.24-1.74s1.58.09,2.34.35c-.63-1.39-.02-3.02,1.37-3.65,1.12-.51,2.45-.21,3.25.73,1.79-.29,3.62.34,4.85,1.68-.29-.29.07-.84.47-.84.41.05.78.28.99.64.68.87,1.08,1.92,1.15,3.01l-20.06.5c.18-.8.77-1.43,1.56-1.65Z"/>
        <path class="cls-4" d="m124.02,92.52c-.25-.74-1.06-1.14-1.8-.89-.39.13-.71.43-.86.82-.1-.47-.35-.89-.72-1.2-.37-.3-.89-.37-1.33-.16-.43.24-.59.78-.35,1.21l-2.56-2.13c-.27-.22-.66-.43-.91-.2-.13.17-.17.39-.12.6.1.8.3,1.59.59,2.34-.48-.47-1.15-.69-1.82-.57-.72.21-1.32.72-1.65,1.4l14.97-.36c-.74-1.16-2.26-1.54-3.45-.85Z"/>
        <path class="cls-14" d="m149.85,49.87v.33c0,.23,0,.55.03.95.03.85.07,2.06.11,3.6.08,3.08.2,7.49.34,12.67l-.09-.09,8.41-.21h.1v.1c.02.99.05,2.04.07,3.11v.1h-.89l-7.61.18.09-.1c.14,6.41.26,11.97.35,15.94.03,1.97.07,3.55.08,4.65v1.57s0,.07,0,.11v-.43c0-.29-.02-.71-.05-1.24-.03-1.1-.08-2.67-.14-4.65-.1-3.97-.25-9.53-.42-15.94v-.1h.1l7.61-.18.8-.02-.1.1c-.02-1.07-.05-2.12-.07-3.11l.1.1-8.41.19h-.09v-.08c-.11-5.19-.2-9.58-.27-12.67-.03-1.54-.05-2.76-.06-3.6v-1.2s0-.05,0-.08Z"/>
        <path class="cls-14" d="m124.76,74.51c-.06,0-.23-5.54-.38-12.38s-.25-12.39-.2-12.39.23,5.55.38,12.39c.15,6.84.25,12.39.2,12.39Z"/>
        <path class="cls-14" d="m56.53,94.25c-.06,0-.19-3.8-.3-8.49-.11-4.69-.16-8.49-.1-8.49s.19,3.8.3,8.49.16,8.49.1,8.49Z"/>
        <path class="cls-14" d="m65.03,111.62c-.05,0-.32-2.62-.59-5.85s-.45-5.87-.38-5.87.32,2.62.59,5.85.44,5.87.38,5.87Z"/>
        <path class="cls-14" d="m59.31,43.55c-.05,0-.6-5.97-1.22-13.34-.62-7.37-1.08-13.35-1.02-13.35s.6,5.97,1.22,13.34c.62,7.37,1.08,13.35,1.02,13.35Z"/>
        <path class="cls-14" d="m94.94,119.76c-.05,0-.24-4.5-.42-10.05-.18-5.55-.27-10.06-.22-10.06s.24,4.5.42,10.05.27,10.06.22,10.06Z"/>
        <path class="cls-14" d="m92.76,50.48c-.05,0-.28-5.6-.49-12.5s-.35-12.5-.3-12.5.28,5.6.5,12.5c.22,6.9.35,12.5.29,12.5Z"/>
        <path class="cls-14" d="m126.34,106.67c-.05,0-.1-1.96-.09-4.37s.05-4.37.11-4.37.1,1.96.09,4.37-.05,4.37-.11,4.37Z"/>
        <path class="cls-14" d="m126.53,26.02c-.06,0-.09-3.04-.08-6.79s.06-6.79.12-6.79.09,3.04.08,6.79-.06,6.79-.12,6.79Z"/>
        <path class="cls-14" d="m157.98,114.16c-.06,0-.14-3.88-.19-8.66s-.05-8.66,0-8.66.14,3.88.19,8.66.05,8.66,0,8.66Z"/>
        <path class="cls-14" d="m157.05,25.99c-.11-.91-.15-1.82-.13-2.73-.04-.91-.02-1.83.07-2.74.11.91.16,1.82.13,2.73.04.91.02,1.83-.07,2.74Z"/>
        <polygon class="cls-2" points="81.1 99.71 83.16 97.06 84.9 97.59 85.93 97.08 88.81 97.93 88.87 100.51 86.08 101.36 81.1 99.71"/>
        <polygon class="cls-2" points="72.37 97.94 74.04 97.9 77.59 99.57 74.17 101.01 69.04 99.29 72.37 97.94"/>
        <polygon class="cls-2" points="89.92 98.47 89.96 100.18 93.27 99.25 92.7 98.4 89.92 98.47"/>
        <polygon class="cls-2" points="100.61 97.65 102.91 96.68 106.75 98.39 103.43 99.27 98.85 98.58 100.61 97.65"/>
        <polygon class="cls-2" points="108.52 98.02 112.25 96.98 114.37 97.23 115.09 98.47 110.63 99.69 107.71 98.43 108.52 98.02"/>
        <polygon class="cls-2" points="115.71 97.2 115.74 98.47 120.29 99.02 115.71 97.2"/>
        <polygon class="cls-2" points="59.39 98.25 62.48 95.89 56.57 96.03 53.02 96.83 55.4 98.74 59.39 98.25"/>
        <polygon class="cls-2" points="53.05 98.14 50.88 96.17 46.57 96.27 47.05 97.6 50.32 98.76 53.05 98.14"/>
        <polygon class="cls-2" points="126.21 96.65 128 94.34 131.27 94.26 132.08 96.19 129.87 97.51 126.21 96.65"/>
        <polygon class="cls-2" points="132.79 94.22 133.58 95.85 136.1 95.63 138.48 94.09 132.79 94.22"/>
      </g>
      <g>
        <g id="freepik--Floor--inject-93">
          <path class="cls-14" d="m10.22,172.53c0-.06,57.41-.1,128.2-.1s128.22.05,128.22.1-57.39.1-128.22.1-128.2-.05-128.2-.1Z"/>
        </g>
        <g id="freepik--Plants--inject-93">
          <path class="cls-14" d="m85.87,157.74c.16.15.3.32.43.49.27.32.65.8,1.1,1.42,2.33,3.2,4.12,6.76,5.32,10.53.23.72.38,1.31.5,1.72.06.21.11.43.13.65-.09-.2-.16-.41-.21-.62-.12-.4-.31-.99-.55-1.7-.63-1.86-1.39-3.67-2.27-5.43-.89-1.75-1.9-3.44-3.02-5.05-.43-.62-.79-1.11-1.04-1.45-.14-.17-.27-.35-.39-.54Z"/>
          <path class="cls-14" d="m93.76,152.82c.02.07.03.14.03.2,0,.15.02.35.04.58.03.5.07,1.24.15,2.14.14,1.81.41,4.3.88,7.03.47,2.73,1.07,5.17,1.56,6.93.24.88.44,1.58.59,2.07l.16.56c.02.07.04.13.05.2-.04-.06-.06-.12-.08-.19-.05-.15-.12-.33-.2-.55-.17-.48-.38-1.18-.65-2.05-.67-2.28-1.21-4.59-1.62-6.93-.41-2.33-.68-4.69-.83-7.05-.05-.91-.08-1.65-.08-2.16v-.58c0-.07,0-.14.01-.21Z"/>
          <path class="cls-14" d="m102.26,159.62c-.04.17-.09.33-.16.49-.12.31-.28.77-.47,1.33-.96,2.95-1.33,6.07-1.09,9.17.04.6.1,1.07.14,1.4.03.17.05.35.05.52-.06-.16-.1-.33-.12-.51-.07-.33-.14-.81-.2-1.4-.32-3.12.05-6.28,1.09-9.24.2-.56.38-1.01.53-1.32.06-.16.14-.31.23-.45Z"/>
          <path class="cls-14" d="m135.21,166.26c.12,0,.23.04.34.08.3.09.6.2.89.33,1.91.87,3.46,2.39,4.36,4.29.14.28.26.57.35.87.04.11.07.22.08.34-.03,0-.19-.45-.56-1.15-.48-.9-1.09-1.73-1.82-2.45-.73-.71-1.57-1.31-2.48-1.78-.7-.35-1.17-.5-1.16-.53Z"/>
          <path class="cls-14" d="m141.08,158.4c.06,0,.55,3.08,1.11,6.87s.96,6.9.9,6.9-.55-3.08-1.1-6.87-.96-6.9-.91-6.9Z"/>
          <path class="cls-7" d="m38.67,148.35c1.23.28,2.29,1.05,2.93,2.12.63,1.07,1.01,2.27,1.11,3.51.26,2.39-.54,5.03-1.54,7.21-2.34-1.27-3.46-4.15-3.94-5.65-.77-2.37-.68-7.1,1.44-7.2"/>
          <path class="cls-7" d="m44.31,164.52c-.58-1.29-.41-2.79.42-3.93.85-1.12,2.11-1.85,3.5-2.02.64-.09,1.35-.06,1.82.38.42.44.57,1.08.38,1.66-.18.57-.51,1.09-.96,1.49-1.46,1.45-3.13,2.58-5.18,2.43"/>
          <path class="cls-14" d="m43.39,172.22c-.02-.17-.03-.34-.02-.51,0-.35-.03-.8-.05-1.34-.11-1.49.03-2.98.41-4.43.4-1.45,1.18-2.76,2.26-3.81.33-.31.7-.58,1.09-.8.11-.06.21-.12.33-.17.08-.03.12-.05.12-.04-1.81,1.07-3.12,2.83-3.63,4.88-.37,1.43-.52,2.9-.45,4.37v1.35c0,.17-.02.34-.05.51Z"/>
          <path class="cls-14" d="m38.93,151.96c.03.07.05.13.07.2.05.15.1.35.17.59.15.52.35,1.26.58,2.19.48,1.85,1.1,4.42,1.73,7.27s1.15,5.44,1.48,7.31c.17.94.3,1.7.38,2.23.04.25.07.45.09.61.02.07.02.14.02.21-.03-.07-.05-.14-.05-.21-.04-.15-.08-.35-.13-.6-.11-.55-.26-1.3-.44-2.22-.38-1.87-.9-4.46-1.54-7.31-.64-2.85-1.23-5.41-1.68-7.27l-.53-2.2c-.05-.25-.1-.44-.14-.6-.01-.07-.02-.14-.02-.2Z"/>
          <path class="cls-7" d="m41.24,166.71c-1.12-2.75-3.5-4.79-6.39-5.49-.73-.17-1.63-.18-2.06.43s-.11,1.46.3,2.07c1.82,2.61,5.03,3.87,8.14,3.19"/>
          <path class="cls-14" d="m35.67,163.35c.15.01.31.04.45.09.18.04.36.08.53.15.23.07.46.15.68.24.27.11.54.23.8.36.3.15.59.32.88.5.65.42,1.24.91,1.78,1.47.53.56.99,1.19,1.37,1.86.16.29.31.6.44.9.12.27.22.54.31.82.08.23.14.46.19.7.04.18.08.35.1.53.03.15.05.31.05.47-.04,0-.12-.65-.46-1.66-.09-.27-.2-.54-.32-.8-.14-.3-.29-.6-.45-.88-.38-.65-.84-1.26-1.36-1.82-.53-.54-1.11-1.03-1.74-1.45-.3-.18-.58-.37-.85-.5s-.54-.27-.77-.38c-1-.4-1.65-.54-1.63-.58Z"/>
        </g>
      </g>
      <g id="freepik--character-2--inject-93">
        <path class="cls-3" d="m212.4,78.93c-.1-.67-.34-1.31-.72-1.87-.64-.98-2.31-2.08-2.36-2.85s-.9-.43-.99.49c-.05.59.67,2.38.67,2.38,0,0-1.44-.05-2.19-.83s-3.62-2.61-4.08-2.27c-.52.38.25.77.55,1.09.23.23,2.01,1.87,2.01,1.87,0,0-4.11-1.34-4.7-1.3s-.19.72.07.81c.17.05-.51.34-.14.96.25.42,1.85,1.28,2.31,1.42l.96.29-3.02-.54s-.64.32,0,.77c.28.2,8.81,4.05,9.49,4.29,1.15.42,2.86.95,2.86.95l1.45-4.94-2.17-.72Z"/>
        <path class="cls-4" d="m245.32,162.33v10.15l-12.61.06c.07-1.21,6.58-3.66,6.58-3.66l-.27-6.49,6.3-.06Z"/>
        <g class="cls-11">
          <path class="cls-1" d="m243.18,168.31c.25.08.4.33.36.58-.07.25-.32.41-.58.36-.27-.08-.44-.35-.38-.62.1-.26.38-.4.64-.31"/>
        </g>
        <g class="cls-11">
          <path class="cls-1" d="m245.32,172.48v-1.02l-12.12.44s-.56.25-.49.64l12.61-.06Z"/>
        </g>
        <path class="cls-14" d="m239.08,168.81c0,.06.31.09.62.28s.47.45.52.43-.03-.38-.41-.61-.74-.16-.73-.1Z"/>
        <path class="cls-14" d="m237.76,169.37c0,.06.25.17.47.42s.27.53.33.53.1-.35-.17-.67-.63-.34-.63-.28Z"/>
        <path class="cls-14" d="m237.02,170.94c.05,0,.14-.29,0-.63s-.45-.47-.47-.42.15.23.28.51.13.54.2.54Z"/>
        <path class="cls-14" d="m239.19,167.33c.03.06.31-.03.65,0s.62.13.65.08-.23-.27-.64-.29-.7.17-.67.22Z"/>
        <path class="cls-14" d="m239.48,165.83c.21.06.42.06.63,0,.23-.04.45-.11.66-.2.12-.06.25-.12.36-.2.07-.04.13-.09.19-.15.08-.09.09-.23.03-.33-.06-.09-.16-.14-.27-.14-.08,0-.16,0-.24.03-.13.03-.26.08-.38.13-.21.1-.41.23-.58.38-.29.27-.38.5-.37.51s.17-.17.47-.38c.17-.13.36-.24.56-.32.12-.05.24-.09.36-.12.13-.03.25-.04.28.02s0,.03,0,.07c-.04.04-.09.08-.14.11-.11.07-.22.13-.33.19-.2.1-.4.18-.61.24-.21.03-.42.08-.62.14Z"/>
        <path class="cls-14" d="m239.56,165.92c.12-.18.18-.4.17-.61,0-.23-.02-.47-.09-.69-.04-.13-.09-.26-.16-.38-.07-.16-.21-.28-.38-.32-.11,0-.22.07-.26.18-.03.07-.05.15-.07.23-.02.14-.02.29,0,.43.04.24.13.46.27.65.25.32.51.38.51.38s-.2-.15-.38-.46c-.11-.18-.18-.38-.2-.59-.02-.12-.02-.24,0-.37.02-.13.07-.24.12-.23s.17.1.22.2c.06.11.12.22.16.34.07.2.11.41.12.63.02.37-.05.59-.02.6Z"/>
        <path class="cls-4" d="m254.08,161.67l-.1,10.81-13.47-.06c.08-1.29,7.07-3.85,7.07-3.85l-.22-6.93,6.72.02Z"/>
        <g class="cls-11">
          <path class="cls-1" d="m251.74,168.03c.27.08.44.35.38.63-.07.27-.34.45-.62.38-.28-.09-.44-.38-.38-.67.11-.27.41-.42.69-.32"/>
        </g>
        <g class="cls-11">
          <path class="cls-1" d="m253.98,172.48v-1.09l-12.95.35s-.6.26-.53.68l13.49.06Z"/>
        </g>
        <path class="cls-14" d="m247.35,168.53c0,.07.33.1.65.31s.49.49.55.47-.05-.41-.44-.67-.77-.17-.77-.1Z"/>
        <path class="cls-14" d="m245.93,169.11c0,.07.27.18.49.46s.28.57.35.57.11-.38-.17-.72-.67-.37-.67-.31Z"/>
        <path class="cls-14" d="m245.12,170.8c.06,0,.15-.32,0-.68s-.48-.5-.5-.45.16.25.3.55.13.57.21.58Z"/>
        <path class="cls-14" d="m247.47,166.94c.03.06.33-.03.7,0s.66.14.69.09-.24-.29-.68-.32-.75.18-.72.23Z"/>
        <path class="cls-14" d="m247.8,165.34c.22.06.46.06.68,0,.24-.04.48-.11.71-.22.13-.06.26-.13.38-.2.08-.04.15-.09.21-.16.09-.1.1-.24.03-.35-.07-.09-.17-.15-.29-.15-.09,0-.17,0-.25.03-.14.03-.28.08-.42.14-.23.1-.44.24-.62.4-.32.29-.42.53-.38.55s.18-.18.5-.42c.18-.14.39-.25.6-.34.13-.05.25-.09.38-.12.14-.04.27-.04.3.03s0,.03,0,.07c-.04.05-.09.08-.15.12-.12.08-.23.14-.36.2-.21.1-.43.18-.65.25-.23.04-.45.09-.67.16Z"/>
        <path class="cls-14" d="m247.89,165.44c.13-.19.19-.42.18-.65.02-.4-.07-.8-.26-1.15-.07-.18-.23-.31-.43-.34-.12,0-.23.07-.28.18-.03.08-.06.16-.07.25-.06.41.04.82.28,1.15.26.35.53.43.54.41s-.2-.16-.38-.5c-.12-.19-.19-.41-.21-.64-.02-.13-.02-.26,0-.38,0-.15.07-.26.13-.25s.18.11.23.22c.07.12.12.24.17.37.07.22.12.44.13.67.01.38-.06.64-.02.65Z"/>
        <path class="cls-14" d="m228.62,106.56s.23,6.79,1.05,10.73c.8,3.85,5.85,23.71,5.85,23.71l3.08,26.74,6.99-.38-2.25-57.69-14.72-3.12Z"/>
        <path class="cls-14" d="m236.7,109.68s2.31,16.31,3.81,22.83c1.5,6.53,2.04,8.7,2.04,8.7,0,0,2.57,5.13,2.57,5.26l1.88,20.78h7.08s1.77-18.23.8-21.86-2.46-9.2-2.14-13.27.43-12.7.43-13.41,1.72-5.62,1.72-5.62c.52-1.59.75-3.25.68-4.92-.11-2.8-18.88,1.51-18.88,1.51Z"/>
        <path class="cls-4" d="m245.12,146.05s-.04-.05-.05-.08l-.14-.25-.53-.95-1.92-3.52h0c-.87-3.03-1.96-7.19-3.02-11.81-1.09-4.76-1.97-9.08-2.6-12.22-.3-1.54-.55-2.82-.72-3.72-.08-.43-.14-.77-.18-1.01,0-.1-.03-.19-.04-.26s0-.09,0-.09c.01.03.02.06.03.08,0,.07.04.16.06.26.05.25.13.58.22,1,.19.89.45,2.16.77,3.71.66,3.13,1.56,7.45,2.66,12.2,1.06,4.62,2.13,8.78,2.97,11.82h0l1.86,3.55.49.97c.05.1.09.18.12.25.02.02.03.03.05.05Z"/>
        <path class="cls-4" d="m253.42,118.31c-.3-.31-.57-.65-.81-1.01-.3-.31-.57-.65-.8-1.02.38.22.71.53.96.89.3.32.52.71.65,1.14Z"/>
        <path class="cls-7" d="m233.06,61.95s-2.73,1.22-3.95,2.81c-1.09,1.42-7.7,16.83-7.7,16.83l-7.87-3.18-2.85,5.98s8.68,4.68,11.35,5.08c2.86.43,4.95-.31,6.27-2.64s4.02-13.53,4.02-13.53l.74-11.36Z"/>
        <path class="cls-7" d="m256.04,101.21c-.44-3.46-4.36-9.79-4.36-9.79l4.33-21.08c.38-2.58-.28-6.01-2.35-7.51-.69-.5-2.22-1.29-3.08-1.42l-5.18-1.15-9.19.53-3.13,1.15s-4.77,10.32-4.44,15.28c.26,3.99,2.94,10.47,2.69,11.5-2.06,8.31-3.01,20.4-3.01,20.4,2.81.03,5.62.21,8.41.54,3.9.43,19.89.88,19.89.88,0,0-.28-7.17-.57-9.34Z"/>
        <path class="cls-14" d="m231.09,67.63c.05.16.08.32.1.49.05.36.11.81.19,1.36v.05c-.46.58-.87,1.19-1.24,1.82-.45.8-.8,1.65-1.04,2.54-.4,1.56-.47,3.19-.22,4.78.04.31.09.58.13.82s.08.45.12.62c.05.17.08.35.1.53-.07-.16-.13-.34-.17-.51-.06-.2-.12-.41-.16-.62-.06-.24-.12-.52-.17-.82-.29-1.61-.24-3.27.17-4.85.25-.9.61-1.77,1.08-2.57.38-.64.81-1.25,1.29-1.82v.05c-.05-.55-.1-1-.13-1.37-.03-.16-.05-.33-.05-.5Z"/>
        <path class="cls-3" d="m219.25,75.11s1.96-.64,3.3,0,8.08,5.82,8.08,5.82l-1.12,4-1.54-1.26s-2.52.35-3.51-.63-2.11-1.9-2.11-1.9c0,0-1.01,1.62-1.54,1.54-.38-.07-.64-1.35-.64-1.35,0,0-1.18.3-.89-.87l.7-2.31c.13-.42.49-.72.93-.77l2.09-.21-1.12-.91c-.75.05-1.51,0-2.25-.13-.38-.11-.65-.82-.38-1.02Z"/>
        <path class="cls-5" d="m223.63,79.38s-.23-.12-.62-.27c-.22-.09-.46-.13-.7-.13-.29.02-.57.13-.8.31-.41.35-.71.81-.87,1.32-.07.22-.15.44-.24.65.03-.23.08-.45.15-.67.07-.24.16-.47.28-.69.15-.27.35-.51.59-.7.25-.2.55-.31.86-.32.25,0,.5.05.73.16.15.07.3.14.44.23.06.02.11.06.15.1Z"/>
        <path class="cls-5" d="m224.18,77.37c-.2-.09-.4-.16-.62-.21-.22,0-.43.01-.65.06,0,0,.05-.07.17-.11.16-.06.33-.08.49-.06.17.02.32.08.46.17.1.07.15.14.14.15Z"/>
        <path class="cls-7" d="m254.22,74.27s-7.81,12.32-8.55,13.26c-1.64,2.06-3.83,3.15-6.9,2.31-3.08-.84-11.26-5.3-11.26-5.3l2.45-5.57,9.58,2.04,7.41-14.84c.76-1.64,2.13-2.92,3.83-3.56.36-.09.74-.08,1.09.04,2.45.71,3.96,3.18,3.46,5.69l-1.1,5.94Z"/>
        <path class="cls-14" d="m251.87,62.73h-.43c-.41.03-.82.12-1.21.26-.62.24-1.19.61-1.66,1.09-.3.3-.56.62-.79.98-.25.41-.47.83-.67,1.26-1.83,3.62-4.42,8.75-7.48,14.79l-.03.06h-.07l-9.58-2.04.11-.05-2,4.55c-.15.35-.31.7-.45,1.02l-.05-.13c2.28,1.12,4.52,2.21,6.68,3.23,1.08.51,2.15,1.01,3.19,1.48.53.23,1.05.47,1.57.66.51.19,1.06.27,1.6.26.53,0,1.06-.1,1.57-.28.49-.16.97-.39,1.41-.66.85-.53,1.61-1.19,2.24-1.97.56-.75,1.07-1.53,1.54-2.34l1.36-2.21c1.74-2.81,3.15-5.07,4.13-6.65.49-.77.87-1.38,1.13-1.8l.3-.47c.07-.1.1-.15.1-.15,0,0-.03.06-.09.17l-.28.47-1.1,1.82-4.07,6.69c-.43.7-.89,1.44-1.35,2.22-.47.82-.98,1.61-1.54,2.36-.63.8-1.4,1.48-2.26,2.02-.45.28-.94.51-1.44.69-.52.18-1.07.28-1.62.29-.57.02-1.13-.08-1.67-.27-.54-.19-1.05-.43-1.58-.66-1.05-.47-2.12-.97-3.2-1.47-2.17-1.02-4.4-2.11-6.69-3.23l-.08-.04.04-.09c.14-.32.29-.67.45-1.02.69-1.56,1.36-3.1,2-4.56l.03-.07h.08l9.58,2.05-.1.05,7.54-14.76c.24-.44.43-.89.69-1.27.24-.35.51-.68.82-.99.48-.48,1.06-.84,1.7-1.08.4-.14.81-.22,1.23-.23h.32l.09.02Z"/>
        <path class="cls-14" d="m233.49,41.22c.44-1.42,1.44-2.61,2.77-3.3,1.48-.69,3.16-.85,4.74-.43,1.57.41,3.07,1.08,4.42,1.97.8.44,1.51,1.03,2.09,1.73.99,1.33,1.96,3.49,2.01,5.15.04,1.34-.57,4.68-1.15,5.88-.32.5-.78.89-1.32,1.12-.65,1.19-1.5,2.25-2.52,3.14-.28-.91-.57-1.82-.85-2.72l-10.19-12.53Z"/>
        <path class="cls-14" d="m250.35,50.31c-.1-2.07.35-2.96-1.2-6.42-1.01-2.22-2.75-4.03-4.93-5.12l-7.42.81c.05-.14.11-.26.16-.38l-2.65.38c-.87-.12-1.71.32-2.12,1.09-.16.18-.3.38-.41.6-.32.7-.51,1.45-.58,2.22-.1.75-.15,1.51-.16,2.27-.02.3-.04.56-.06.77-.02.33,0,.66.08.98.11,3.19.52,6.7.13,9.35-.07.27-.05.56.04.83.16.25.4.45.68.55,3.29,1.56,5.62-.31,8.85-1.95.64-.32,1.28-.71,1.99-.68s1.37,1.99,2.06,2.31l5.68.38c.33-2.68-.03-5.91-.13-7.98Z"/>
        <path class="cls-3" d="m246.64,45.66c-.04-1.98-1.37-3.69-3.27-4.23l-6.03-1.72c-2.62-.36-4.46,2.82-4.71,5.45-.28,2.92-.48,6.01-.2,8.2.56,4.41,3.91,5.08,3.91,5.08,0,0-.04,1.51-.08,2.79l2.01,6.25,6.93-6.71,1.47-15.04c-.02-.08-.03.03-.03-.07Z"/>
        <path class="cls-14" d="m233.4,48.5c-.01.31.22.56.53.58.29.03.56-.18.59-.47,0,0,0-.01,0-.02.02-.31-.22-.57-.52-.59-.3-.03-.56.19-.6.48,0,0,0,0,0,0Z"/>
        <path class="cls-14" d="m233.24,46.89c.07.07.5-.23,1.11-.21s1.04.34,1.11.27-.03-.17-.22-.32c-.26-.19-.57-.29-.89-.3-.31-.01-.62.08-.89.25-.19.14-.26.27-.23.3Z"/>
        <path class="cls-14" d="m238.7,48.51c-.01.31.22.56.53.58.3.03.56-.19.6-.48,0,0,0,0,0,0,.01-.31-.22-.56-.53-.58-.3-.03-.56.18-.59.48,0,0,0,.01,0,.02Z"/>
        <path class="cls-14" d="m239,47.05c.07.08.5-.23,1.11-.2s1.04.33,1.11.27-.03-.17-.22-.32c-.26-.19-.57-.3-.89-.3-.32-.01-.63.08-.89.26-.19.14-.26.27-.23.3Z"/>
        <path class="cls-14" d="m236.96,51.76c-.32-.11-.65-.18-.98-.21-.15-.02-.3-.06-.32-.17,0-.16.04-.32.12-.45.16-.38.32-.77.49-1.15.69-1.66,1.19-3.03,1.12-3.05s-.68,1.3-1.37,2.96l-.47,1.17c-.1.18-.14.4-.1.6.04.11.13.2.25.23.09.02.17.04.26.04.33.05.67.06,1,.02Z"/>
        <path class="cls-5" d="m242.22,57.02s-1.52,2.98-5.9,2.43l.03-1.04c2.05.09,4.08-.4,5.87-1.4Z"/>
        <path class="cls-14" d="m239.27,44.87c.05.17.66.11,1.37.21s1.28.32,1.38.18c.04-.07-.05-.23-.28-.38-.3-.21-.65-.34-1.01-.38-.36-.06-.73-.02-1.08.09-.28.08-.41.21-.38.29Z"/>
        <path class="cls-14" d="m233.49,45.04c.1.14.53,0,1.03.02s.92.12,1.03-.02c.05-.07-.02-.21-.2-.34-.5-.34-1.16-.34-1.65,0-.18.13-.24.28-.2.34Z"/>
        <path class="cls-14" d="m233.94,41.17c.33-.65,1.01-1.06,1.74-1.05.72.02,1.42.25,2.01.65,2.57,1.59,3.81,5.28,6.35,6.93.63.38,1.46.07,1.99.6s.85,1.35.53,2.02c.38-.45.7-.95.94-1.49.24-.55.23-1.17-.02-1.72-.21-.38-.6-.7-.7-1.15s.08-.77.07-1.15c-.04-.4-.17-.79-.38-1.13-.92-1.85-2.33-3.42-4.07-4.54-1.16-.71-2.49-1.1-3.85-1.11-1.36,0-2.67.48-3.71,1.35-.59.52-1.22,1.06-.94,1.8"/>
        <path class="cls-3" d="m245.95,48.83c.05-.13,2.37-.89,2.31,1.54-.04,2.37-2.41,1.83-2.42,1.76s.11-3.3.11-3.3Z"/>
        <path class="cls-5" d="m246.61,51.25s.04.03.11.06c.1.04.21.04.31,0,.31-.19.5-.54.49-.9.01-.2-.02-.41-.1-.59-.04-.15-.16-.27-.3-.32-.1-.03-.2.02-.25.11-.03.07,0,.12-.03.12s-.05-.04-.03-.14c.01-.06.05-.11.1-.15.06-.05.15-.07.23-.06.2.05.36.19.42.38.1.21.14.43.13.66.02.43-.23.83-.62,1.01-.13.04-.27.01-.38-.07-.07-.04-.08-.11-.07-.11Z"/>
        <path class="cls-4" d="m246.93,47.64l-.14-.08c-.09-.06-.23-.14-.38-.26-.45-.36-.87-.76-1.24-1.2-.54-.66-1.04-1.36-1.5-2.07-.56-.88-1.19-1.71-1.88-2.49-.37-.39-.79-.73-1.23-1.03-.42-.27-.87-.49-1.34-.66-.8-.29-1.65-.42-2.5-.38-.57.02-1.14.11-1.69.28-.15.04-.3.09-.44.15-.05.02-.1.04-.16.05.05-.03.1-.05.15-.07.14-.07.29-.12.44-.17.55-.18,1.12-.29,1.7-.32.86-.04,1.72.08,2.53.36.48.16.94.39,1.37.66.45.3.87.65,1.25,1.04.7.78,1.33,1.62,1.89,2.51.46.72.95,1.41,1.48,2.08.36.44.77.85,1.21,1.22.16.13.29.21.38.28.04.03.08.07.11.11Z"/>
        <path class="cls-1" d="m246.87,51.69c.25-.04.49.14.52.39s-.14.49-.39.52c-.25.04-.49-.14-.52-.39-.03-.21.08-.41.28-.49"/>
        <path class="cls-14" d="m246.76,51.72c-.1.08-.18.19-.22.31-.05.13-.01.28.08.38.14.18.41.21.58.06.08-.07.14-.17.15-.27.02-.13-.03-.27-.13-.36-.1-.08-.22-.14-.35-.15,0,0,.04-.03.11-.02.11,0,.21.04.29.11.13.1.2.27.18.43-.03.28-.27.48-.55.46-.14-.01-.27-.08-.35-.2-.1-.13-.13-.31-.08-.46.03-.1.1-.19.19-.25.06-.05.1-.06.1-.05Z"/>
        <path class="cls-14" d="m246.31,48.29c.08.65-.02,1.3-.28,1.9-.32.57-1.08.94-1.63.6-.45-.27-.57-.87-.64-1.39-.18-1.51-.24-3.04-.43-4.55l2.99,3.45Z"/>
        <path class="cls-4" d="m234.56,40.06s.21-.03.59-.03c.54,0,1.07.12,1.56.33.34.14.66.32.97.53.35.25.68.52.99.8.73.65,1.37,1.39,1.92,2.19.29.43.54.87.82,1.29.26.4.57.76.92,1.09.6.54,1.26,1.01,1.96,1.39.6.34,1.1.58,1.44.74l.38.18s.09.04.14.06c-.04-.03-.08-.06-.13-.08l-.38-.2c-.34-.18-.83-.43-1.42-.77-.69-.4-1.34-.87-1.92-1.4-.34-.32-.64-.68-.89-1.07-.27-.41-.53-.85-.82-1.29-.55-.81-1.21-1.56-1.95-2.21-.32-.29-.66-.56-1.01-.8-.31-.21-.65-.39-1-.53-.5-.21-1.05-.31-1.59-.3-.15,0-.29.02-.44.05-.05,0-.1.01-.14.03Z"/>
        <path class="cls-5" d="m239.39,53.29c-.03-.23-.09-.45-.17-.66-.02-.08-.07-.16-.14-.21-.08-.03-.17-.03-.25,0-.5.16-1.15.46-1.63.62-.06.35.03.71.25.99.23.2.54.3.84.28.35.02.7-.12.93-.38.14-.18.2-.41.18-.64Z"/>
        <path class="cls-14" d="m237.64,54.09c.23.11.48.16.73.15.26-.02.51-.15.68-.35.2-.25.28-.58.22-.89-.03-.16-.11-.31-.22-.42-.1-.1-.22-.07-.38,0l-.77.32c-.24.11-.49.2-.74.25.21-.15.45-.28.69-.38l.77-.36c.08-.04.17-.06.26-.07.11,0,.22.03.3.11.14.14.24.32.28.52.08.37-.02.76-.27,1.05-.21.23-.5.36-.8.36-.2,0-.4-.04-.57-.13-.12-.08-.17-.14-.16-.15Z"/>
      </g>
      <g id="freepik--character-1--inject-93">
        <path class="cls-4" d="m205.48,159.89l-.28,12.2,16.08.42c-.05-1.45-8.29-4.59-8.29-4.59l.52-7.82-8.03-.22Z"/>
        <g class="cls-11">
          <path class="cls-1" d="m208.03,167.16c-.32.07-.53.38-.48.71.09.32.4.51.73.45.32-.04.55-.34.51-.66-.04-.32-.34-.55-.66-.51-.06,0-.11.02-.16.04"/>
        </g>
        <g class="cls-11">
          <path class="cls-1" d="m205.19,172.1l.08-1.23,15.39.86s.71.31.62.79l-16.09-.42Z"/>
        </g>
        <path class="cls-14" d="m213.25,167.86c0,.07-.38.1-.77.33s-.61.53-.68.5.06-.45.54-.72.93-.16.91-.1Z"/>
        <path class="cls-14" d="m214.92,168.58c0,.07-.33.19-.6.5s-.36.64-.44.63-.12-.43.23-.8.81-.4.81-.33Z"/>
        <path class="cls-14" d="m215.82,170.51c-.07,0-.17-.36.05-.77s.58-.55.62-.49-.2.28-.38.61-.2.65-.28.65Z"/>
        <path class="cls-14" d="m213.16,166.08c-.03.07-.38-.04-.84-.03s-.79.14-.83.08.3-.32.82-.33.89.23.85.28Z"/>
        <path class="cls-14" d="m212.83,164.27c-.27.06-.54.05-.8-.02-.29-.06-.57-.15-.84-.27-.16-.07-.31-.15-.45-.24-.09-.05-.17-.11-.24-.18-.1-.11-.11-.27-.02-.38.08-.1.21-.16.35-.16.1,0,.21.02.3.05.17.04.33.1.49.17.27.12.51.29.73.48.38.33.48.62.45.63s-.21-.22-.58-.49c-.22-.16-.46-.29-.71-.38-.15-.06-.3-.11-.46-.15-.17-.05-.32-.05-.36.02s0,.04,0,.08c.05.06.11.1.17.14.14.09.28.17.42.24.25.12.51.22.77.3.26.04.52.1.77.17Z"/>
        <path class="cls-14" d="m212.71,164.37c-.14-.22-.21-.48-.19-.74,0-.28.04-.56.13-.83.06-.16.13-.31.22-.46.1-.21.3-.36.53-.38.14,0,.27.09.33.22.04.09.07.18.08.28.03.17.03.34,0,.51-.06.29-.19.55-.38.77-.33.38-.65.47-.66.44s.25-.17.5-.55c.14-.21.24-.45.28-.71.02-.15.02-.3,0-.44,0-.16-.08-.29-.15-.28s-.22.12-.29.24c-.08.13-.15.27-.21.41-.1.25-.16.51-.18.77-.03.45.05.73,0,.74Z"/>
        <path class="cls-4" d="m193.52,160.32l-.87,12.19-16.05-1.1c.19-1.44,8.68-3.78,8.68-3.78l.22-7.84,8.02.53Z"/>
        <g class="cls-11">
          <path class="cls-1" d="m190.29,167.3c.31.1.48.42.41.74-.12.31-.45.48-.77.38-.32-.11-.5-.44-.43-.77.16-.3.52-.44.84-.31"/>
        </g>
        <g class="cls-11">
          <path class="cls-1" d="m192.65,172.51l.04-1.23-15.39-.6s-.73.25-.68.73l16.04,1.1Z"/>
        </g>
        <path class="cls-14" d="m185.03,167.53c0,.07.38.13.77.38s.55.59.63.57,0-.46-.47-.77-.94-.25-.93-.18Z"/>
        <path class="cls-14" d="m183.3,168.07c-.02.07.31.22.55.55s.3.67.38.67.15-.41-.16-.82-.77-.47-.78-.4Z"/>
        <path class="cls-14" d="m182.22,169.91c.07.02.2-.34.03-.77s-.53-.61-.57-.55.18.29.32.64.15.67.22.68Z"/>
        <path class="cls-14" d="m185.29,165.75c.03.07.38,0,.84.05s.77.22.82.15-.27-.35-.79-.41-.9.15-.87.21Z"/>
        <path class="cls-14" d="m185.79,163.97c.26.08.54.1.8.05.29-.03.58-.09.85-.18.16-.06.32-.12.48-.2.09-.04.18-.09.25-.16.11-.1.13-.26.06-.38-.07-.11-.2-.18-.33-.19-.1,0-.2,0-.3.02-.46.07-.9.25-1.28.53-.38.3-.54.57-.51.58s.23-.19.62-.43c.23-.14.48-.25.74-.33.16-.04.31-.08.47-.1.17-.03.32-.02.35.05s0,.04-.02.08c-.06.05-.12.09-.19.12-.39.2-.8.35-1.24.43-.26.02-.52.06-.77.12Z"/>
        <path class="cls-14" d="m185.89,164.09s.2-.24.26-.72c.03-.28.02-.56-.05-.84-.04-.16-.1-.32-.18-.47-.08-.22-.26-.37-.48-.42-.14,0-.28.07-.35.19-.05.08-.08.18-.1.27-.04.17-.05.34-.03.51.02.29.13.57.29.81.28.42.61.52.62.5s-.23-.2-.45-.59c-.13-.22-.2-.47-.21-.73,0-.15,0-.3.04-.44.04-.16.11-.28.17-.26s.21.13.27.27c.07.14.13.28.17.43.08.25.11.51.11.77,0,.45-.11.72-.07.73Z"/>
        <path class="cls-14" d="m219.49,94.48l-26.52.85s-5.9,39.41-5.74,42.14l-3.64,28.59,10.59.38s1.67-9.27,2.83-15.61c.77-4.23,2.18-10.42,2.56-13.94.38-3.53,5.66-27.79,5.66-27.79,0,0,.46,28.22.47,29.4s-1.33,27.64-1.33,27.64l10.51,1c.65-4.54,1.94-24.86,2.22-28.76.5-7.05,2.97-27.33,3.2-32.42.23-5.1-.82-11.46-.82-11.46Z"/>
        <path class="cls-4" d="m197,98.7c-.11-.4-.15-.81-.13-1.23-.04-.41-.02-.83.05-1.23.15.81.17,1.64.08,2.46Z"/>
        <path class="cls-4" d="m197.97,98.42c-.06-.35-.06-.7,0-1.05,0-.35.07-.7.19-1.03.06.35.06.7,0,1.05,0,.35-.07.7-.19,1.03Z"/>
        <path class="cls-4" d="m214.15,98.42c-.12-.59-.12-1.2,0-1.8.12.59.12,1.2,0,1.8Z"/>
        <path class="cls-4" d="m215.19,98.89c-.2-.76-.14-1.56.19-2.27-.01.38-.05.76-.11,1.14,0,.38-.03.76-.08,1.14Z"/>
        <path class="cls-4" d="m206.74,108.46c0-.16.03-.31.06-.46.06-.33.13-.75.21-1.25.17-1.05.38-2.51.51-4.14s.16-3.08.16-4.16v-1.27c-.01-.15-.01-.31,0-.47.03.15.05.31.06.46.03.3.05.73.07,1.27.08,2.79-.15,5.58-.68,8.32-.1.52-.2.95-.27,1.24-.03.15-.07.3-.13.45Z"/>
        <path class="cls-4" d="m205.83,97.02c-.2.04-.39.15-.53.3-.14.16-.21.38-.17.59.11.36.49.57.86.46.14-.04.25-.12.34-.23.11-.19.13-.41.05-.62-.07-.19-.21-.36-.38-.47,0,0,.07,0,.18.04.15.09.27.22.33.38.11.24.09.52-.03.75-.27.38-.79.47-1.17.21-.17-.12-.29-.29-.33-.49-.03-.26.06-.52.24-.71.12-.12.27-.21.44-.23.13-.02.18.01.18.02Z"/>
        <path class="cls-4" d="m194.29,140.5c-1.81-.61-3.58-1.34-5.3-2.17,1.81.61,3.58,1.34,5.3,2.17Z"/>
        <path class="cls-7" d="m215.57,55.22s4.97,1.12,6.54,4.62c1.13,2.49,3.43,17.63,3.43,17.63l11.16-.04,1.7,5.38s-9.75,5.83-13.88,5.82c-3.46,0-6.48-2.64-6.48-2.64l-4.42-12.8,1.94-17.97Z"/>
        <path class="cls-7" d="m218.94,80.92l-2.97-17.28-.38-8.41-7.59-1.47-9.83.74-7.77,3.64c-2,.93-3.63,2.52-4.62,4.5l-5.31,10.7-8.36-2.66-4.28,2.91s11.08,11.45,13.9,10.99c3.39-.55,7.49-9.37,7.49-9.37l1.31-2.79,4.6,14.01-2.02,10.39c1.77,1.54,6.73,2.87,15.21,2.39s12.26-2.56,12.26-2.56l-1.61-15.71Z"/>
        <path class="cls-14" d="m209.87,35.51c-.05-1.35-.67-3.18-1.74-4-.7-.53-1.71-.17-2.54-.48-1.06-.38-1.86-1.61-2.84-2.17s-2.23-.9-3.23-.38c-.49.26-.87.69-1.38.9-.59.25-1.27.15-1.89.31-1.17.36-1.89,1.54-1.66,2.74-1.1.31-1.74,1.45-1.43,2.55.21.76.84,1.33,1.61,1.47.74.14,1.57-.11,2.21.28s.79,1.35.7,2.15c-.09.79-.31,1.62-.04,2.37l10.75,2.05c.45-.84.73-2.11,1.08-3.01.55-1.45.47-3.21.41-4.77Z"/>
        <path class="cls-12" d="m208.05,42.22c.07-.03,2.8-.88,2.76,1.92-.04,2.81-2.84,2.18-2.85,2.1s.09-4.03.09-4.03Z"/>
        <path class="cls-10" d="m208.84,45.19s.05.03.13.07c.12.05.26.05.38,0,.37-.23.59-.64.57-1.07.01-.24-.03-.48-.13-.7-.05-.18-.19-.32-.36-.38-.12-.03-.24.02-.29.13-.04.08-.02.13-.04.14s-.06-.05-.03-.16c.02-.07.06-.13.11-.18.08-.06.18-.08.27-.07.23.05.42.22.5.44.11.24.17.5.16.77-.03.57-.32,1.09-.73,1.2-.15.04-.32.01-.45-.08-.1-.05-.12-.11-.11-.11Z"/>
        <path class="cls-12" d="m193.88,47.93c-.06-1.97.15-6.05.38-9.74.25-3.97,3.51-7.08,7.48-7.15h.38c4.26.18,6.5,3.89,6.2,8.15l-.38,14.81-.61.38c-2.81,1.82-6.44,1.81-9.24-.04h0l-.03-1.75s-4.07-.57-4.19-4.66Z"/>
        <path class="cls-10" d="m198.09,52.59c1.89,0,3.74-.56,5.31-1.61,0,0-1.18,3.01-5.27,2.72l-.04-1.1Z"/>
        <path class="cls-14" d="m195.18,41.42c0,.32.25.59.57.6,0,0,.01,0,.02,0,.31.02.57-.21.59-.52,0,0,0-.01,0-.02,0-.32-.26-.57-.57-.58-.31-.03-.58.19-.61.5,0,0,0,.02,0,.02Z"/>
        <path class="cls-14" d="m201.11,41.65c0,.32.26.57.58.58.31.02.57-.21.59-.52,0,0,0,0,0-.01,0-.32-.26-.57-.57-.58-.31-.02-.58.22-.6.53,0,0,0,0,0,.01Z"/>
        <path class="cls-14" d="m195.14,40.06c.07.08.51-.26,1.15-.27s1.1.3,1.15.22-.04-.17-.25-.31c-.27-.18-.6-.28-.93-.27-.33,0-.65.11-.91.31-.2.15-.26.29-.22.32Z"/>
        <path class="cls-14" d="m201.17,40.09c.08.07.49-.29,1.12-.34s1.11.23,1.17.14-.05-.17-.27-.3c-.29-.16-.62-.24-.95-.21-.33.03-.64.17-.89.38-.2.15-.24.29-.2.32Z"/>
        <path class="cls-14" d="m199.16,44.89c-.33-.1-.68-.15-1.02-.17-.16,0-.32-.04-.34-.15-.02-.17.02-.33.1-.48.15-.38.3-.8.45-1.23.63-1.75,1.08-3.19,1.01-3.22s-.64,1.38-1.27,3.13c-.15.43-.3.84-.43,1.24-.1.2-.12.42-.07.63.05.11.15.2.27.23.09.02.18.03.27.03.34.04.69.03,1.04-.02Z"/>
        <path class="cls-14" d="m201.02,45.29c-.1,0-.09.68-.67,1.15s-1.3.43-1.3.53.16.13.47.13c.4,0,.79-.13,1.09-.38.29-.25.48-.6.52-.99.02-.28-.06-.45-.1-.44Z"/>
        <path class="cls-14" d="m201.17,37.43c.08.17.7.02,1.44.03s1.35.15,1.44,0c.03-.08-.08-.23-.34-.38-.69-.34-1.5-.34-2.19,0-.24.12-.35.27-.35.35Z"/>
        <path class="cls-14" d="m195.23,38.07c.11.14.54,0,1.06-.03s.97.08,1.07-.07c.04-.07-.03-.22-.23-.35-.26-.16-.56-.24-.87-.22-.31.01-.6.12-.84.3-.18.15-.24.3-.19.37Z"/>
        <path class="cls-14" d="m198.73,30.71c1.43-.62,2.9-.38,4.45-.2,1.14.1,2.24.48,3.2,1.11,1.55,1.04,2.54,2.73,2.69,4.6.19,1.95.06,3.92-.38,5.83l-.15-.03c.13.57.27,1.15-.06,1.7-.18.32-.56.47-.91.38-.58-.17-.63-.92-.6-1.5.09-1.74.04-3.49-.14-5.23-.13-1.41-.77-2.98-1.89-3.61-1.55-.87-3.45-.83-4.97.1-.47.32-1.09.34-1.58.05-1.09-.65-2.01-.61-2.67.25.23-1.52,1.6-2.84,3.02-3.46Z"/>
        <path class="cls-4" d="m195.93,43.28s.1,0,.29-.03c.27-.04.53-.13.77-.27.16-.1.32-.21.45-.35.15-.16.28-.34.38-.53.11-.22.19-.46.22-.71.02-.26,0-.54,0-.83l.05.05h-4.81l.05-.05c-.01.31,0,.62.03.93.13.75.64,1.37,1.35,1.64.29.1.59.15.9.14h.33s-.06,0-.08,0h-.25c-.31.02-.63-.01-.92-.12-.46-.16-.85-.47-1.11-.87-.16-.25-.27-.52-.32-.81-.03-.31-.05-.63-.03-.95v-.05h4.92v.89c-.03.26-.11.51-.23.74-.2.38-.5.69-.88.9-.24.13-.5.22-.77.25-.07,0-.15,0-.22,0-.09.05-.12.05-.12.05Z"/>
        <path class="cls-4" d="m202.7,43.28s.1,0,.28-.03c.27-.04.53-.13.77-.27.36-.21.65-.51.83-.88.11-.22.19-.46.21-.71.03-.26,0-.54,0-.83l.05.05h-4.81l.05-.05c-.01.31,0,.62.03.93.05.27.15.53.29.77.25.39.62.7,1.06.86.29.1.59.15.9.14h.33s-.06,0-.09,0h-.25c-.31.02-.62-.01-.92-.12-.75-.26-1.29-.91-1.43-1.69-.04-.31-.05-.63-.04-.95v-.05h4.92v.89c-.03.26-.11.51-.23.74-.11.2-.24.39-.41.55-.14.13-.3.25-.47.35-.24.13-.5.22-.77.25-.07,0-.14,0-.22,0-.07.06-.11.06-.11.05Z"/>
        <path class="cls-4" d="m200.01,41.19s-.08-.1-.24-.22c-.41-.33-.99-.35-1.42-.03-.16.12-.23.22-.25.21s.04-.13.2-.27c.21-.19.49-.28.77-.28.29,0,.56.12.77.31.13.15.18.27.17.28Z"/>
        <path class="cls-4" d="m209.01,42.23c-.21-.03-.41-.07-.61-.12-.38-.08-.89-.2-1.47-.3s-1.1-.19-1.48-.25c-.21-.02-.41-.06-.62-.11.21,0,.42,0,.62.03.38.04.92.11,1.49.22s1.1.23,1.47.34c.2.04.4.11.59.2Z"/>
        <path class="cls-1" d="m195.78,43.02c-.18.02-.35,0-.52-.04-.42-.09-.81-.29-1.13-.58-.32-.29-.54-.68-.64-1.1-.04-.17-.04-.35,0-.53,0,0,0,.2.1.51.11.4.33.76.64,1.04.3.28.67.48,1.07.59.28.09.48.1.48.12Z"/>
        <path class="cls-6" d="m209.84,35.05s-1.9,1.66-3.11,1.78c-.07-.39-.18-.78-.32-1.15-.27-.55-.61-1.07-1.01-1.54,1.39.25,2.82,0,4.03-.72.21.52.35,1.07.41,1.64Z"/>
        <path class="cls-6" d="m209.88,35.72c-.63,1.11-1.78,1.83-3.05,1.92.57-.22,1.12-.48,1.65-.77.49-.35.96-.74,1.4-1.15Z"/>
        <path class="cls-14" d="m216.22,67.67c-.23-.66-.4-1.34-.5-2.02-.17-.68-.27-1.36-.3-2.06.23.66.4,1.33.5,2.02.17.68.27,1.37.3,2.06Z"/>
        <path class="cls-13" d="m162.17,56.34c.72,2.61,1.58,5.18,2.57,7.7,1.43,3.49,4.59,8.95,5.11,11.65s1.08,20.37,1.08,20.37l17.76,1.92,14.04,8.37s12.48.44,23.31,0l14.01-2.97-4.98-39.08-14.08,3.33-26.9-2.01-31.92-9.28Z"/>
        <path class="cls-14" d="m162.17,56.34l31.94,9.24h0l26.9,1.99h-.02l14.08-3.33.1-.03v.1c1.52,11.93,3.19,24.97,4.93,38.58l.06.48v.09l-.09.02-14.02,2.96h0c-4.04.16-8.02.2-11.91.19s-7.7-.08-11.41-.2h-.06l-14.04-8.38h.03l-17.76-1.92h-.07v-.07c-.21-6.33-.42-12.07-.75-17.12-.04-.63-.09-1.25-.14-1.86-.04-.59-.13-1.19-.26-1.77-.31-1.08-.71-2.14-1.19-3.16-.89-1.98-1.8-3.74-2.57-5.36-1.2-2.48-2.19-5.06-2.98-7.7-.28-.9-.48-1.59-.61-2.06s-.18-.71-.18-.71l.21.7c.14.47.35,1.15.63,2.06.8,2.63,1.81,5.19,3.01,7.65.77,1.61,1.69,3.37,2.59,5.35.48,1.03.89,2.09,1.2,3.18.14.59.22,1.18.27,1.78.06.61.11,1.23.15,1.86.34,5.05.56,10.78.77,17.12l-.07-.07,17.76,1.92h.02l14.05,8.37h-.05c3.71.12,7.51.18,11.4.19,3.89,0,7.86-.04,11.9-.2h0l14.01-2.96-.08.11-.06-.48c-1.73-13.62-3.4-26.67-4.91-38.58l.12.08-14.09,3.32h-.03l-26.9-2.03h0l-31.9-9.39Z"/>
        <polygon class="cls-1" points="220.55 67.74 226.04 106.34 240.06 103.37 235.07 64.31 220.55 67.74"/>
        <polygon class="cls-9" points="181.55 61.98 188.69 97.97 202.74 106.34 203.37 106.53 194.09 65.63 181.55 61.98"/>
        <path class="cls-12" d="m167.59,73.57l-1.36-1.29c-.26-.2-.45-.48-.55-.8-.06-.33.18-.72.5-.69-.46-.13-.74-.6-.61-1.07.09-.31.34-.55.66-.62-.24-.25-.44-.54-.57-.87-.13-.33-.09-.7.12-.99.27-.3.69-.42,1.08-.32.38.11.74.3,1.05.55.49.36.96.74,1.42,1.15.18.14.32.31.42.5.1.2.06.45-.09.62.81.1,1.38.83,1.28,1.64,0,0,0,0,0,.01.33.46-.09,1.15-.64,1.3-.56.09-1.14,0-1.65-.28.44.01.81.33.89.77.07.5-.28.96-.78,1.03-.4.06-.79-.16-.96-.52"/>
        <path class="cls-12" d="m237.85,77.49c.7-.05,1.31.48,1.35,1.18.02.29-.06.57-.22.81.41.13.56.65.5,1.07s-.27.82-.33,1.24c-.09.68.19,1.45-.2,2.02-.32.46-.95.56-1.51.56-.62,0-1.24-.05-1.86-.13-.26-.01-.53-.07-.77-.18-.25-.11-.43-.33-.48-.6-.04-.27.16-.53.43-.56,0,0,0,0,.01,0-.42.01-.78-.33-.79-.75,0-.28.14-.54.38-.68-.21-.29-.18-.69.08-.94.26-.23.56-.41.89-.53,1.09-.54,1.97-1.43,2.47-2.54"/>
        <path class="cls-14" d="m225.96,106.29c-.05,0-1.33-8.62-2.85-19.28-1.52-10.66-2.69-19.3-2.65-19.31s1.33,8.62,2.85,19.29c1.52,10.66,2.7,19.31,2.65,19.31Z"/>
        <path class="cls-14" d="m188.69,97.87c-.05,0-1.7-8.04-3.67-17.97-1.97-9.93-3.53-18-3.46-18.02s1.7,8.04,3.67,17.97c1.97,9.94,3.52,18,3.46,18.02Z"/>
        <path class="cls-14" d="m203.47,106.89c-.05,0-2.18-9.14-4.74-20.43-2.56-11.3-4.6-20.46-4.54-20.47s2.17,9.13,4.74,20.43c2.56,11.3,4.58,20.46,4.54,20.47Z"/>
      </g>
      <g id="freepik--speech-bubble--inject-93">
        <path class="cls-1" d="m227.85,14.35c-5.24-1.49-10.69,1.54-12.18,6.78-.6,2.1-.48,4.34.33,6.36h0l-1.22,2.94,3.11.06c3.55,3.87,9.51,4.29,13.56.94l3.1.35-.82-3.08c.41-.67.72-1.4.91-2.16,1.5-5.24-1.54-10.7-6.78-12.19Z"/>
        <path class="cls-14" d="m227.85,14.35l.08.02.23.07.38.13c.18.05.35.12.52.2l.64.28.74.42c.27.15.52.36.81.56s.55.47.84.73l.41.44.21.23.2.25.38.53.38.59c.53.88.92,1.84,1.15,2.83.26,1.14.31,2.31.16,3.46-.15,1.28-.55,2.53-1.2,3.64v-.07c.26.97.53,2.01.82,3.08.01.05-.02.1-.07.11h-.03l-3.1-.35.07-.02c-4.09,3.39-10.11,2.97-13.69-.94l.07.03-3.11-.07c-.05,0-.1-.05-.1-.1,0-.01,0-.02,0-.03l1.22-2.94s.08-.07.12-.05c.02,0,.03.02.04.03h0l-.17.09c-.58-1.45-.81-3.03-.67-4.59.06-.73.21-1.44.45-2.13.11-.34.23-.66.38-.98.13-.31.28-.61.45-.9.63-1.09,1.46-2.06,2.44-2.84.84-.67,1.79-1.19,2.81-1.54.22-.09.45-.17.68-.24.23-.05.44-.13.65-.17.4-.08.81-.14,1.22-.17l.55-.03h.97c.15,0,.28.04.42.05.26.04.5.06.7.1l.49.12.3.08.1.03s-.07,0-.1,0l-.31-.06-.49-.1c-.2-.04-.43-.05-.69-.09-.13,0-.27-.04-.42-.05h-.97l-.55.05c-.4.03-.8.09-1.2.18-.21.03-.42.11-.65.17-.23.06-.45.13-.67.22-1,.36-1.93.88-2.76,1.54-.97.78-1.78,1.73-2.39,2.81-.17.29-.32.59-.45.9-.14.31-.26.64-.36.97-.23.68-.38,1.39-.45,2.1-.13,1.53.1,3.08.67,4.5.01.05-.02.1-.07.12-.04,0-.07,0-.1-.03h0l.17-.02-1.22,2.94-.08-.13,3.11.06s.05.01.07.03c2.36,2.57,5.92,3.69,9.33,2.93,1.5-.34,2.9-1.03,4.09-2.01.02-.02.04-.03.07-.02l3.1.36-.1.12c-.28-1.07-.56-2.11-.82-3.08,0-.02,0-.05,0-.07.64-1.1,1.05-2.32,1.2-3.58.15-1.14.1-2.29-.14-3.41-.23-.98-.6-1.93-1.11-2.8l-.36-.59-.38-.52-.19-.25-.21-.23-.4-.44c-.29-.26-.55-.52-.83-.73s-.53-.41-.79-.57l-.72-.43-.63-.3c-.16-.08-.34-.15-.51-.21l-.38-.14-.23-.08c-.06-.02-.08-.03-.08-.03Z"/>
        <path class="cls-7" d="m229.49,22.54c-.07-.54-.31-1.05-.67-1.45-.34-.41-.81-.7-1.33-.84-.91-.21-1.85.22-2.29,1.04-.15-.27-.36-.5-.61-.67-.47-.33-1.05-.44-1.61-.33-.52.12-1,.41-1.35.81-.38.4-.62.9-.7,1.44-.09.69.04,1.39.38,2,.4.62.93,1.13,1.57,1.5,1.03.63,2.38,1.42,2.38,1.42,0,0,1.15-.85,2.2-1.47.64-.35,1.19-.86,1.6-1.47.35-.6.5-1.3.42-2Z"/>
      </g>
    </g>
  </g>
</svg>